<svg width="16" height="20" viewBox="0 0 16 20" fill="none" xmlns="http://www.w3.org/2000/svg">
<path fill-rule="evenodd" clip-rule="evenodd" d="M1.75228 0.838745H15.9189V15.5473V16.5485V18.2206V19.8928C11.1967 19.8928 6.4861 19.8928 1.76388 19.8928C0.510815 19.8821 0.000305176 19.3496 0.000305176 18.2206V18.3272C0.000305176 13.087 0.000305176 7.85754 0.000305176 2.61741C0.000305176 1.37128 0.870492 0.860046 1.75228 0.838745Z" fill="#EE7959"/>
<path d="M15.9187 0.838745H1.75208V16.5485H15.9187V0.838745Z" fill="#FDCE8B"/>
<path fill-rule="evenodd" clip-rule="evenodd" d="M1.76388 0.838745C0.882094 0.860046 0.0119077 1.37128 0.000305176 2.62806C0.000305176 7.86819 0.000305176 13.0977 0.000305176 18.3378C0.000305176 16.7722 0.812479 16.5804 1.76388 16.5485C1.76388 11.3084 1.76388 6.07888 1.76388 0.838745Z" fill="#D9A761"/>
<path fill-rule="evenodd" clip-rule="evenodd" d="M15.9188 18.2206V16.5485C11.1966 16.5485 6.48599 16.5485 1.76377 16.5485C0.4991 16.5485 -0.0114094 17.0916 0.000193058 18.2206C0.000193058 19.3496 0.510703 19.8821 1.76377 19.8928C6.48599 19.8928 11.2082 19.8928 15.9188 19.8928V18.2206Z" fill="#CB913F"/>
<path fill-rule="evenodd" clip-rule="evenodd" d="M0.98645 16.6443C1.24171 16.5698 1.49696 16.5485 1.75221 16.5485H15.3735V18.9236H0.98645C0.98645 18.1567 0.98645 17.4005 0.98645 16.6443Z" fill="#E0E0E0"/>
<path fill-rule="evenodd" clip-rule="evenodd" d="M0.98645 16.6443C1.2301 16.5698 1.49696 16.5485 1.77542 16.5485H15.3619V17.3047C10.837 17.3047 6.31199 17.3047 1.78702 17.3047C1.52016 17.294 1.25331 17.3153 0.98645 17.4005C0.98645 17.1023 0.98645 16.9425 0.98645 16.6443Z" fill="#C0C0C0"/>
<path fill-rule="evenodd" clip-rule="evenodd" d="M5.56942 3.25647H12.1248C12.2408 4.12982 12.7978 4.59845 13.7492 4.69431V12.6717C12.7978 12.7782 12.2408 13.2468 12.1248 14.1095H5.56942C5.45339 13.2362 4.89647 12.7675 3.94507 12.6717V4.70496C4.89647 4.59845 5.45339 4.12982 5.56942 3.25647Z" fill="white"/>
<path d="M15.9187 15.5472H1.75208V16.5484H15.9187V15.5472Z" fill="#CB913F"/>
<path d="M6.07991 10.2327L8.72528 5.37595L8.8413 5.17358L8.95733 5.37595L11.6027 10.2327L11.6955 10.4031H11.4867H6.19594H5.98709L6.07991 10.2327ZM8.8413 5.69547L6.40478 10.1687H11.2894L8.8413 5.69547Z" fill="#4D5A6A"/>
<path d="M6.39318 7.21857L8.8297 11.7025L11.2662 7.21857H6.39318ZM8.72528 12.0007L6.07991 7.15466L5.98709 6.98425H6.19594H11.4867H11.6955L11.6027 7.15466L8.95733 12.0114L8.8413 12.2137L8.72528 12.0007Z" fill="#2D3A4A"/>
<path d="M7.72739 7.21857L7.85501 6.98425H8.13347L8.00585 7.21857H7.72739Z" fill="#2D3A4A"/>
<path d="M9.82754 6.98425L9.95517 7.21857H9.6651L9.53748 6.98425H9.82754Z" fill="#4D5A6A"/>
<path d="M8.13347 10.403H7.85501L7.72739 10.1687H8.00585L8.13347 10.403Z" fill="#2D3A4A"/>
<path d="M9.82754 10.403H9.53748L9.6651 10.1687H9.95517L9.82754 10.403Z" fill="#4D5A6A"/>
<path d="M10.6165 8.43262L10.7557 8.69888L10.6165 8.9545L10.4773 8.69888L10.6165 8.43262Z" fill="#2D3A4A"/>
<path d="M6.92688 8.69888L7.06611 8.43262L7.20534 8.69888L7.06611 8.9545L6.92688 8.69888Z" fill="#4D5A6A"/>
</svg>
