<svg width="43" height="22" viewBox="0 0 43 22" fill="none" xmlns="http://www.w3.org/2000/svg">
<rect x="0.5" y="0.5" width="42" height="21" rx="4.5" stroke="#828282"/>
<path d="M25.4554 13.944C25.4554 14.456 25.3274 14.9467 25.0714 15.416C24.8154 15.8747 24.4368 16.2587 23.9354 16.568C23.4448 16.8773 22.8528 17.0533 22.1594 17.096V18.392H21.2954V17.096C20.3248 17.0107 19.5354 16.7013 18.9274 16.168C18.3194 15.624 18.0101 14.936 17.9994 14.104H19.5514C19.5941 14.552 19.7594 14.9413 20.0474 15.272C20.3461 15.6027 20.7621 15.8107 21.2954 15.896V11.896C20.5808 11.7147 20.0048 11.528 19.5674 11.336C19.1301 11.144 18.7568 10.8453 18.4474 10.44C18.1381 10.0347 17.9834 9.49067 17.9834 8.808C17.9834 7.944 18.2821 7.22933 18.8794 6.664C19.4874 6.09867 20.2928 5.784 21.2954 5.72V4.392H22.1594V5.72C23.0661 5.79467 23.7968 6.088 24.3514 6.6C24.9061 7.10133 25.2261 7.75733 25.3114 8.568H23.7594C23.7061 8.19467 23.5408 7.85867 23.2634 7.56C22.9861 7.25067 22.6181 7.048 22.1594 6.952V10.856C22.8634 11.0373 23.4341 11.224 23.8714 11.416C24.3194 11.5973 24.6928 11.8907 24.9914 12.296C25.3008 12.7013 25.4554 13.2507 25.4554 13.944ZM19.4714 8.728C19.4714 9.25067 19.6261 9.65067 19.9354 9.928C20.2448 10.2053 20.6981 10.4347 21.2954 10.616V6.92C20.7408 6.97333 20.2981 7.15467 19.9674 7.464C19.6368 7.76267 19.4714 8.184 19.4714 8.728ZM22.1594 15.912C22.7354 15.848 23.1834 15.64 23.5034 15.288C23.8341 14.936 23.9994 14.5147 23.9994 14.024C23.9994 13.5013 23.8394 13.1013 23.5194 12.824C23.1994 12.536 22.7461 12.3067 22.1594 12.136V15.912Z" fill="#828282"/>
</svg>
