<svg width="53" height="54" viewBox="0 0 53 54" fill="none" xmlns="http://www.w3.org/2000/svg">
<path d="M15.0422 53.2065C11.0912 53.2065 7.14013 51.8896 4.24274 48.7288C1.34535 45.5681 0.0284173 41.6169 0.0284173 37.4025V15.8039C-0.234982 11.5896 1.34535 7.63845 4.24274 4.47766C7.14013 1.58027 11.0912 0 15.0422 0H37.958C41.9089 0 45.8599 1.31687 48.7573 4.47766C51.6546 7.63845 52.9716 11.5896 52.9716 15.8039V37.4025C53.235 41.6169 51.6546 45.5681 48.7573 48.7288C45.8599 51.6262 41.9089 53.2065 37.958 53.2065H15.0422ZM3.9794 16.0673V37.666C3.9794 44.7778 8.19382 49.2555 15.0422 49.2555H37.958C44.5429 49.2555 49.0206 44.7778 49.0206 37.666V16.0673C49.284 12.9065 47.9671 10.0091 46.1233 7.63848C44.0161 5.53129 41.1187 4.47766 38.2213 4.47766H15.3055C8.19376 4.47766 3.9794 8.95551 3.9794 16.0673ZM37.6945 32.1346V28.9739H34.2703V31.8712C34.2703 32.9248 33.4801 33.7151 32.1631 33.7151C31.1095 33.7151 30.3193 32.9248 30.3193 32.1346V31.8712V28.9739H24.788C23.7344 32.6615 19.7834 34.7686 16.3592 33.4516C12.6716 32.398 10.5644 28.4471 11.8814 25.0229C12.935 21.3353 16.886 19.2281 20.3102 20.5451C22.4174 21.3353 24.2612 22.9157 24.788 25.0229H39.8016C40.8552 25.0229 41.6455 25.8131 41.6455 26.6032V26.8666V31.8712C41.6455 32.9248 40.8553 33.7151 39.5383 33.7151C38.4847 33.7151 37.6945 32.9248 37.6945 32.1346ZM15.0422 26.8666C15.0422 28.447 16.3591 29.7641 17.9395 29.7641C19.5199 29.7641 20.837 28.447 20.837 26.8666C20.837 25.2862 19.5199 23.9693 17.9395 23.9693C16.3591 23.9693 15.0422 25.2862 15.0422 26.8666Z" fill="#00B0B2"/>
</svg>
