<svg width="30" height="26" viewBox="0 0 30 26" fill="none" xmlns="http://www.w3.org/2000/svg">
<g filter="url(#filter0_d)">
<path fill-rule="evenodd" clip-rule="evenodd" d="M10.5756 9.64408C10.5756 9.64408 11.4501 10.0064 11.8499 11.0933C11.8499 11.0933 12.3872 11.3682 13.1993 10.6686C13.1993 10.6686 12.7745 9.65657 12.9494 9.04438C12.9619 9.01939 13.0993 8.78201 13.1118 8.75703C13.1118 8.75703 12.7745 8.68207 12.712 8.79451C12.637 8.91945 12.662 9.15683 12.4996 9.4067C12.3372 9.65657 12.2373 9.28176 12.1873 8.98191C12.1498 8.75703 12.0623 8.55713 12.0623 8.55713L11.825 8.6071C11.825 8.6071 12.0249 9.18181 11.9374 9.38171C11.8624 9.56912 11.5751 9.16932 11.3627 8.89446C11.2378 8.73204 11.0504 9.03189 11.0504 9.03189C11.0504 9.03189 11.5876 9.49415 11.5126 9.66907C11.4377 9.83148 10.9629 9.3942 10.9629 9.3942L10.5756 9.64408Z" fill="#99D19A"/>
<path fill-rule="evenodd" clip-rule="evenodd" d="M10.1258 9.93138C10.1258 9.93138 10.3132 10.1813 10.5381 10.1063C10.7005 10.0563 10.8004 9.98136 10.8004 9.78146C10.8004 9.60655 10.738 9.55657 10.738 9.55657C10.738 9.55657 10.9504 9.65652 11.1503 9.46912C11.3377 9.28171 11.1752 9.04433 11.1752 9.04433C11.1752 9.04433 11.5626 8.86942 11.5001 8.56957C11.4501 8.3197 11.0503 8.21975 11.0503 8.21975C11.0503 8.21975 11.3127 7.99487 11.1128 7.70751C10.8504 7.32021 10.4506 7.70751 10.4506 7.70751C10.4506 7.70751 10.2757 7.28273 10.0383 7.3327C9.56356 7.42016 9.6885 7.81995 9.6885 7.81995C9.6885 7.81995 9.52608 7.62006 9.3012 7.76998C9.00135 7.96988 9.18875 8.24474 9.35117 8.39466C9.35117 8.39466 8.7015 8.34469 8.76397 8.80695C8.81394 9.25673 9.26371 9.14428 9.26371 9.14428C9.26371 9.14428 8.63903 9.49411 9.0888 9.85642C9.26371 10.0063 9.57606 9.68151 9.57606 9.68151C9.57606 9.68151 9.35117 10.1688 9.72598 10.2562C10.1133 10.3562 10.1258 9.93138 10.1258 9.93138Z" fill="#6FBE70"/>
<path fill-rule="evenodd" clip-rule="evenodd" d="M12.2998 8.48214C12.2998 8.48214 12.1623 8.79448 12.3497 8.96939C12.5246 9.13181 12.6246 9.11932 12.787 9.00687C12.9244 8.90692 12.9494 8.78199 12.9494 8.78199C12.9494 8.78199 12.9744 9.09433 13.2243 9.1568C13.4867 9.21927 13.6116 8.86944 13.6116 8.86944C13.6116 8.86944 13.9739 9.09433 14.1863 8.89443C14.3612 8.71952 14.2363 8.31972 14.2363 8.31972C14.2363 8.31972 14.5611 8.41967 14.6985 8.09484C14.8859 7.67005 14.3362 7.53262 14.3362 7.53262C14.3362 7.53262 14.5986 7.20779 14.4237 6.9829C14.1613 6.63308 13.824 6.94542 13.824 6.94542C13.824 6.94542 13.8365 6.69554 13.6616 6.63308C13.3242 6.50814 13.1993 6.75801 13.1493 6.97041C13.1493 6.97041 12.8495 6.3957 12.4872 6.69554C12.1623 6.99539 12.4997 7.30773 12.4997 7.30773C12.4997 7.30773 11.875 6.97041 11.8 7.54511C11.775 7.77 12.2123 7.85746 12.2123 7.85746C12.2123 7.85746 11.6751 7.93242 11.8125 8.30723C11.9499 8.69453 12.2998 8.48214 12.2998 8.48214Z" fill="#6FBE70"/>
<path fill-rule="evenodd" clip-rule="evenodd" d="M10.6631 7.65755C10.6631 7.65755 10.5256 7.9699 10.713 8.14481C10.8879 8.30723 10.9879 8.29473 11.1503 8.18229C11.2877 8.08234 11.3127 7.9574 11.3127 7.9574C11.3127 7.9574 11.3377 8.26974 11.5876 8.33221C11.85 8.39468 11.9749 8.04486 11.9749 8.04486C11.9749 8.04486 12.3372 8.26974 12.5496 8.06985C12.7245 7.89493 12.5996 7.49514 12.5996 7.49514C12.5996 7.49514 12.9244 7.59509 13.0618 7.27025C13.2493 6.84547 12.6995 6.70804 12.6995 6.70804C12.6995 6.70804 12.9619 6.3832 12.787 6.15831C12.5246 5.80849 12.1873 6.12083 12.1873 6.12083C12.1873 6.12083 12.1998 5.87096 12.0249 5.80849C11.6875 5.68355 11.5626 5.93343 11.5126 6.14582C11.5126 6.14582 11.2128 5.57111 10.8505 5.87096C10.5006 6.15831 10.838 6.47066 10.838 6.47066C10.838 6.47066 10.2133 6.13333 10.1383 6.70804C10.1133 6.93292 10.5506 7.02038 10.5506 7.02038C10.5506 7.02038 10.0134 7.09534 10.1508 7.47015C10.3132 7.86995 10.6631 7.65755 10.6631 7.65755Z" fill="#65BA67"/>
<path fill-rule="evenodd" clip-rule="evenodd" d="M10.3132 8.03239C10.3132 8.03239 10.0883 8.31975 10.2133 8.54463C10.3507 8.76952 10.4507 8.78201 10.6381 8.71954C10.813 8.65708 10.8754 8.54463 10.8754 8.54463C10.8754 8.54463 10.8005 8.96942 11.0379 9.10685C11.2877 9.24428 11.5251 8.83199 11.5251 8.83199C11.5251 8.83199 11.825 9.16932 12.1123 9.01939C12.3497 8.89446 12.3372 8.45718 12.3372 8.45718C12.3372 8.45718 12.6371 8.65708 12.8869 8.36972C13.2118 7.98242 12.687 7.69506 12.687 7.69506C12.687 7.69506 13.0993 7.48267 12.9494 7.15784C12.7495 6.73305 12.3372 6.94544 12.3372 6.94544C12.3372 6.94544 12.4247 6.69557 12.2622 6.58313C11.9624 6.35824 11.75 6.57063 11.6376 6.78303C11.6376 6.78303 11.5001 6.10837 11.0379 6.30827C10.5881 6.49567 10.838 6.92046 10.838 6.92046C10.838 6.92046 10.3257 6.45819 10.1008 6.99542C10.0009 7.2203 10.3882 7.39522 10.3882 7.39522C10.3882 7.39522 9.81348 7.30776 9.83847 7.73255C9.88844 8.14484 10.3132 8.03239 10.3132 8.03239Z" fill="#85C886"/>
<path fill-rule="evenodd" clip-rule="evenodd" d="M12.9495 8.99438C12.9495 8.99438 12.9745 9.68154 12.5372 10.3062C12.1 10.9309 11.8376 11.0808 11.8376 11.0808C11.8376 11.0808 12.3748 11.3557 13.1869 10.656C13.1869 10.656 12.7621 9.64406 12.937 9.03187" fill="#8BCB8C"/>
<path d="M6.4776 7.42011C6.4776 7.42011 6.22773 6.98283 5.75297 7.07029C5.54058 7.10777 4.94088 7.52006 4.34118 7.19523C3.75398 6.87039 4.1038 6.42062 4.55358 6.40813C5.00335 6.38314 5.00335 6.38314 5.00335 6.38314C5.00335 6.38314 3.46663 6.658 3.41665 5.95835C3.37917 5.39614 4.04134 5.45861 4.04134 5.45861C4.04134 5.45861 2.75449 5.37115 3.04184 4.63402C3.25423 4.10929 4.12879 4.75896 4.12879 4.75896C4.12879 4.75896 3.49161 4.10929 4.15378 3.83443C4.91589 3.52209 4.91589 5.04632 4.91589 5.04632C4.91589 5.04632 4.9034 3.77196 5.59055 4.14677C6.25272 4.50909 5.60304 5.4711 5.60304 5.4711C5.60304 5.4711 5.94037 4.50909 6.41513 4.99634C6.8774 5.48359 6.4776 6.30818 6.32768 6.44561C6.17775 6.58304 7.01483 7.42011 7.0773 7.91986C7.11478 8.41961 6.4776 7.42011 6.4776 7.42011Z" fill="#61B863"/>
<path d="M4.17876 4.0842C4.12878 4.0967 4.1038 4.15916 4.11629 4.22163C4.11629 4.22163 4.30369 4.72138 4.42863 5.20863C3.77896 4.80884 3.26672 4.59644 3.24173 4.58395C3.19176 4.55896 3.1168 4.58395 3.1043 4.64642C3.07931 4.69639 3.1043 4.77135 3.16677 4.78385C3.17926 4.78385 3.85392 5.0712 4.62853 5.59594C4.24123 5.65841 3.75397 5.82082 3.6915 5.84581C3.62904 5.8708 3.60405 5.93327 3.62904 5.98324C3.65402 6.04571 3.71649 6.0707 3.76647 6.04571C4.00385 5.95825 4.65352 5.75835 4.91588 5.78334C5.16576 5.97075 5.42812 6.18314 5.678 6.40803C5.20324 6.43301 4.55357 6.64541 4.46611 6.68289C4.40364 6.70787 4.37866 6.77034 4.40364 6.82032C4.42863 6.88279 4.4911 6.90777 4.54107 6.88279C4.81593 6.78284 5.59054 6.55795 5.91538 6.63291C6.30268 7.0452 6.64001 7.50747 6.83991 8.0322C6.8649 8.08218 6.92736 8.11966 6.97734 8.09467C7.01482 8.08218 7.03981 8.0447 7.0523 8.00722C7.0523 7.99472 7.0523 7.96973 7.0523 7.95724C6.83991 7.39503 6.47759 6.89528 6.0778 6.48299C5.91538 6.15815 6.15276 5.471 6.2652 5.22113C6.2652 5.20863 6.27769 5.19614 6.27769 5.19614C6.29019 5.14616 6.2652 5.10868 6.21523 5.0837C6.16525 5.05871 6.09029 5.0837 6.0778 5.13367C6.0653 5.15866 5.81543 5.73337 5.81543 6.20813C5.678 6.08319 5.55306 5.97075 5.41563 5.8583C5.25321 5.57095 5.44062 4.78385 5.52807 4.49649C5.54057 4.43403 5.51558 4.38405 5.45311 4.35906C5.39064 4.34657 5.34067 4.37156 5.31568 4.43403C5.29069 4.52148 5.0908 5.17115 5.12828 5.64591C5.0908 5.62092 5.06581 5.59594 5.02833 5.57095C4.96586 5.52097 4.90339 5.48349 4.84092 5.43352C4.80344 5.40853 4.75347 5.38354 4.71599 5.34606C4.59105 4.78385 4.34118 4.14667 4.34118 4.10919C4.30369 4.0842 4.24123 4.05922 4.17876 4.0842Z" fill="#69BC6B"/>
<path d="M6.95234 7.28269C6.95234 7.28269 6.97733 6.78294 6.52756 6.59554C6.32766 6.52057 5.60302 6.54556 5.26569 5.95836C4.92837 5.37116 5.46559 5.17126 5.86539 5.39614C6.25269 5.62103 6.25269 5.62103 6.25269 5.62103C6.25269 5.62103 4.80343 5.03383 5.12826 4.42164C5.39063 3.92189 5.91537 4.33418 5.91537 4.33418C5.91537 4.33418 4.87839 3.57207 5.52806 3.09731C5.99033 2.75998 6.39013 3.78446 6.39013 3.78446C6.39013 3.78446 6.17773 2.89741 6.88987 3.00985C7.70196 3.14728 6.88987 4.43413 6.88987 4.43413C6.88987 4.43413 7.55204 3.34718 7.93934 4.03433C8.30166 4.6965 7.25219 5.17126 7.25219 5.17126C7.25219 5.17126 8.05178 4.53408 8.18921 5.19625C8.32664 5.85841 7.53954 6.33317 7.35214 6.38314C7.15224 6.42063 7.4271 7.57004 7.20221 8.03231C6.96483 8.46959 6.95234 7.28269 6.95234 7.28269Z" fill="#69BC6B"/>
<path d="M6.77752 3.23478C6.71505 3.22229 6.66508 3.25977 6.65258 3.32224C6.65258 3.32224 6.55263 3.84697 6.40271 4.32173C6.06538 3.63458 5.75304 3.1848 5.72805 3.15982C5.69057 3.10984 5.6281 3.09735 5.57813 3.13483C5.52815 3.17231 5.51566 3.23478 5.55314 3.28475C5.56563 3.29725 5.97792 3.89694 6.36523 4.74651C6.00291 4.59659 5.50317 4.48415 5.4282 4.45916C5.36573 4.44667 5.31576 4.48415 5.30327 4.54662C5.29077 4.60908 5.32825 4.65906 5.39072 4.67155C5.6406 4.72153 6.29027 4.89644 6.50266 5.05886C6.6151 5.34621 6.72755 5.67105 6.815 5.99588C6.40271 5.7585 5.72805 5.59608 5.6406 5.58359C5.57813 5.5711 5.52815 5.60858 5.51566 5.67105C5.50317 5.73351 5.54065 5.78349 5.60311 5.79598C5.89047 5.85845 6.66508 6.08334 6.90246 6.32072C7.0149 6.87044 7.05238 7.44515 6.93994 7.99487C6.92744 8.05734 6.96492 8.10731 7.02739 8.11981C7.06487 8.1323 7.10236 8.10731 7.12734 8.08232C7.13984 8.06983 7.15233 8.05734 7.15233 8.03235C7.26477 7.44515 7.22729 6.83296 7.11485 6.25825C7.15233 5.89593 7.71454 5.43367 7.93943 5.29624C7.95192 5.29624 7.95192 5.28374 7.96442 5.27125C7.98941 5.23377 8.0019 5.18379 7.96442 5.14631C7.92694 5.09634 7.86447 5.08384 7.81449 5.12132C7.78951 5.14631 7.27727 5.49613 7.02739 5.89593C6.97742 5.72102 6.92744 5.54611 6.87747 5.38369C6.88996 5.04636 7.47716 4.48415 7.70205 4.28425C7.75203 4.24677 7.75203 4.17181 7.71454 4.13432C7.67706 4.08435 7.6021 4.08435 7.56462 4.12183C7.48966 4.1843 6.98991 4.63407 6.76503 5.05886C6.75253 5.02137 6.74004 4.98389 6.71505 4.94641C6.69006 4.87145 6.65258 4.80898 6.6276 4.73402C6.60261 4.68405 6.59011 4.64656 6.56513 4.59659C6.75253 4.04687 6.88996 3.3847 6.88996 3.34722C6.87747 3.29725 6.83999 3.24727 6.77752 3.23478Z" fill="#61B863"/>
<path d="M6.51519 7.89499C6.51519 7.89499 5.00345 8.54466 5.40325 10.5811C5.81554 12.73 8.81402 16.4781 10.7131 16.5156C13.0369 16.5656 11.2503 10.9309 10.2258 8.76954C9.40122 7.05791 7.36475 7.18285 6.51519 7.89499Z" fill="#FFCBA8"/>
<path d="M6.14041 9.78138C6.14041 9.78138 6.64016 9.28164 7.26484 9.13171" stroke="#FFD8BE" stroke-width="2.4027" stroke-miterlimit="10" stroke-linecap="round" stroke-linejoin="round"/>
<path d="M8.37671 9.98128C8.37671 9.98128 8.73903 9.71891 9.06386 9.70642" stroke="#FFD8BE" stroke-width="2.4027" stroke-miterlimit="10" stroke-linecap="round" stroke-linejoin="round"/>
<path d="M7.00253 12.2552C7.00253 12.2552 7.60223 11.743 8.02701 11.618" stroke="#FFD8BE" stroke-width="2.4027" stroke-miterlimit="10" stroke-linecap="round" stroke-linejoin="round"/>
<path d="M9.03888 10.2562C9.03888 10.2562 9.72603 9.85637 10.1633 9.8064" stroke="#FFD8BE" stroke-width="2.4027" stroke-miterlimit="10" stroke-linecap="round" stroke-linejoin="round"/>
<path d="M8.914 11.9928C8.914 11.9928 9.43874 11.6805 9.63863 11.668" stroke="#FFD8BE" stroke-width="2.4027" stroke-miterlimit="10" stroke-linecap="round" stroke-linejoin="round"/>
<path d="M8.33917 13.8543C8.33917 13.8543 8.8764 13.3921 9.17625 13.3296" stroke="#FFD8BE" stroke-width="2.4027" stroke-miterlimit="10" stroke-linecap="round" stroke-linejoin="round"/>
<path d="M9.58847 15.5285C9.58847 15.5285 9.86333 15.2911 10.1382 15.1537" stroke="#FFD8BE" stroke-width="2.4027" stroke-miterlimit="10" stroke-linecap="round" stroke-linejoin="round"/>
<path d="M10.2632 14.4916C10.2632 14.4916 10.7004 14.0668 11.1877 13.9918" stroke="#FFD8BE" stroke-width="2.4027" stroke-miterlimit="10" stroke-linecap="round" stroke-linejoin="round"/>
<path d="M7.26483 8.41958C7.26483 8.41958 7.67712 8.00729 8.27682 7.94482" stroke="#FFD8BE" stroke-width="2.4027" stroke-miterlimit="10" stroke-linecap="round" stroke-linejoin="round"/>
<path d="M5.89041 10.6685C5.89041 10.6685 6.16527 10.3686 6.57756 10.2687" stroke="#FFD8BE" stroke-width="2.4027" stroke-miterlimit="10" stroke-linecap="round" stroke-linejoin="round"/>
<path opacity="0.6" d="M10.7006 16.5155C13.0244 16.5655 11.2378 10.9308 10.2133 8.76941C10.2133 8.76941 11.1004 12.3051 10.9504 14.0542C10.8005 15.7284 10.0509 16.3781 10.0509 16.3781L10.7006 16.5155Z" fill="#FFC7A1"/>
<path d="M8.8389 11.2432C8.90137 11.3306 8.88888 11.4431 8.80142 11.518C8.71397 11.5805 8.60152 11.568 8.52656 11.4806C8.46409 11.3931 8.47659 11.2807 8.56404 11.2057C8.6515 11.1432 8.77643 11.1682 8.8389 11.2432Z" fill="#FFD8BE"/>
<path d="M10.7253 11.8303C10.7878 11.9177 10.7753 12.0302 10.6879 12.1051C10.6004 12.1676 10.488 12.1551 10.413 12.0677C10.3505 11.9802 10.363 11.8678 10.4505 11.7928C10.5504 11.7178 10.6629 11.7428 10.7253 11.8303Z" fill="#FFD8BE"/>
<path d="M9.01383 14.6665C9.0763 14.7539 9.0638 14.8664 8.97635 14.9413C8.88889 15.0038 8.77645 14.9913 8.70149 14.9038C8.63902 14.8164 8.65151 14.7039 8.73897 14.629C8.82642 14.554 8.95136 14.579 9.01383 14.6665Z" fill="#FFD8BE"/>
<path d="M8.02683 8.79444C8.0893 8.8819 8.0768 8.99434 7.98935 9.0693C7.90189 9.13177 7.78945 9.11928 7.71449 9.03182C7.65202 8.94437 7.66451 8.83192 7.75197 8.75696C7.83942 8.69449 7.96436 8.71948 8.02683 8.79444Z" fill="#FFD8BE"/>
<path opacity="0.2" d="M5.95273 9.16932C5.95273 9.16932 5.66537 10.2188 5.91525 10.8185C6.16512 11.4182 6.61489 11.4057 6.81479 11.1808C7.17711 10.7685 6.86477 9.61909 7.06467 9.18181C7.36451 8.49466 6.09016 8.16983 5.95273 9.16932Z" fill="#FFF3DD"/>
<path fill-rule="evenodd" clip-rule="evenodd" d="M21.3701 9.55655C21.3701 9.55655 22.2447 9.91887 22.6445 11.0058C22.6445 11.0058 23.1817 11.2807 23.9938 10.581C23.9938 10.581 23.569 9.56905 23.7439 8.95686C23.7564 8.93187 23.8939 8.69449 23.9064 8.6695C23.9064 8.6695 23.569 8.59454 23.5066 8.70698C23.4316 8.83192 23.4566 9.0693 23.2942 9.31917C23.1318 9.56905 23.0318 9.19424 22.9818 8.89439C22.9443 8.6695 22.8569 8.4696 22.8569 8.4696L22.6195 8.51958C22.6195 8.51958 22.8194 9.09429 22.732 9.29419C22.657 9.48159 22.3696 9.08179 22.1572 8.80693C22.0323 8.64452 21.8449 8.94436 21.8449 8.94436C21.8449 8.94436 22.3821 9.40663 22.3072 9.58154C22.2322 9.74396 21.7575 9.30668 21.7575 9.30668L21.3701 9.55655Z" fill="#99D19A"/>
<path fill-rule="evenodd" clip-rule="evenodd" d="M20.9204 9.85631C20.9204 9.85631 21.1078 10.1062 21.3327 10.0312C21.4951 9.98125 21.595 9.90629 21.595 9.70639C21.595 9.53148 21.5326 9.4815 21.5326 9.4815C21.5326 9.4815 21.7449 9.58145 21.9448 9.39405C22.1323 9.20664 21.9698 8.96926 21.9698 8.96926C21.9698 8.96926 22.3571 8.79435 22.2947 8.4945C22.2447 8.24463 21.8449 8.14468 21.8449 8.14468C21.8449 8.14468 22.1073 7.91979 21.9074 7.63244C21.645 7.24513 21.2452 7.63244 21.2452 7.63244C21.2452 7.63244 21.0703 7.20765 20.8329 7.25763C20.3581 7.34508 20.4831 7.74488 20.4831 7.74488C20.4831 7.74488 20.3207 7.54498 20.0958 7.69491C19.7959 7.8948 19.9833 8.16967 20.1458 8.31959C20.1458 8.31959 19.4961 8.26962 19.5586 8.73188C19.6085 9.18165 20.0583 9.06921 20.0583 9.06921C20.0583 9.06921 19.4336 9.41903 19.8834 9.78135C20.0583 9.93127 20.3706 9.60644 20.3706 9.60644C20.3706 9.60644 20.1458 10.0937 20.5206 10.1811C20.9079 10.2686 20.9204 9.85631 20.9204 9.85631Z" fill="#6FBE70"/>
<path fill-rule="evenodd" clip-rule="evenodd" d="M23.1066 8.39462C23.1066 8.39462 22.9692 8.70696 23.1566 8.88187C23.3315 9.04429 23.4314 9.03179 23.5939 8.91935C23.7313 8.8194 23.7563 8.69446 23.7563 8.69446C23.7563 8.69446 23.7813 9.0068 24.0311 9.06927C24.2935 9.13174 24.4184 8.78192 24.4184 8.78192C24.4184 8.78192 24.7808 9.0068 24.9931 8.80691C25.1681 8.63199 25.0431 8.2322 25.0431 8.2322C25.0431 8.2322 25.368 8.33215 25.5054 8.00731C25.6928 7.58253 25.1431 7.4451 25.1431 7.4451C25.1431 7.4451 25.4054 7.12026 25.2305 6.89537C24.9682 6.54555 24.6308 6.85789 24.6308 6.85789C24.6308 6.85789 24.6433 6.60802 24.4684 6.54555C24.1311 6.42062 24.0061 6.67049 23.9562 6.88288C23.9562 6.88288 23.6563 6.30817 23.294 6.60802C22.9442 6.89537 23.2815 7.20772 23.2815 7.20772C23.2815 7.20772 22.6568 6.87039 22.5819 7.4451C22.5569 7.66998 22.9942 7.75744 22.9942 7.75744C22.9942 7.75744 22.4569 7.8324 22.5944 8.20721C22.7568 8.60701 23.1066 8.39462 23.1066 8.39462Z" fill="#6FBE70"/>
<path fill-rule="evenodd" clip-rule="evenodd" d="M21.4702 7.57003C21.4702 7.57003 21.3327 7.88237 21.5201 8.05728C21.695 8.2197 21.795 8.20721 21.9574 8.09476C22.0948 7.99481 22.1198 7.86988 22.1198 7.86988C22.1198 7.86988 22.1448 8.18222 22.3947 8.24469C22.6571 8.30716 22.782 7.95733 22.782 7.95733C22.782 7.95733 23.1443 8.18222 23.3567 7.98232C23.5316 7.80741 23.4067 7.40761 23.4067 7.40761C23.4067 7.40761 23.7315 7.50756 23.8689 7.18273C24.0563 6.75794 23.5066 6.62051 23.5066 6.62051C23.5066 6.62051 23.769 6.29568 23.5941 6.07079C23.3317 5.72097 22.9944 6.03331 22.9944 6.03331C22.9944 6.03331 23.0069 5.78344 22.832 5.72097C22.4946 5.59603 22.3697 5.8459 22.3197 6.0583C22.3197 6.0583 22.0199 5.48359 21.6576 5.78344C21.3077 6.07079 21.6451 6.38313 21.6451 6.38313C21.6451 6.38313 21.0204 6.0458 20.9454 6.62051C20.9204 6.8454 21.3577 6.93285 21.3577 6.93285C21.3577 6.93285 20.8205 7.00781 20.9579 7.38262C21.1078 7.78242 21.4702 7.57003 21.4702 7.57003Z" fill="#65BA67"/>
<path fill-rule="evenodd" clip-rule="evenodd" d="M21.1201 7.94487C21.1201 7.94487 20.8952 8.23222 21.0201 8.45711C21.1576 8.682 21.2575 8.69449 21.4449 8.63202C21.6198 8.56955 21.6823 8.45711 21.6823 8.45711C21.6823 8.45711 21.6073 8.88189 21.8447 9.01932C22.0946 9.15675 22.332 8.74446 22.332 8.74446C22.332 8.74446 22.6318 9.08179 22.9192 8.93187C23.1566 8.80693 23.1441 8.36965 23.1441 8.36965C23.1441 8.36965 23.4439 8.56955 23.6938 8.2822C24.0186 7.89489 23.4939 7.60754 23.4939 7.60754C23.4939 7.60754 23.9062 7.39515 23.7562 7.07031C23.5563 6.64553 23.1441 6.85792 23.1441 6.85792C23.1441 6.85792 23.2315 6.60805 23.0691 6.4956C22.7692 6.27072 22.5569 6.48311 22.4444 6.6955C22.4444 6.6955 22.307 6.02084 21.8447 6.22074C21.3949 6.40815 21.6448 6.83293 21.6448 6.83293C21.6448 6.83293 21.1326 6.37067 20.9077 6.90789C20.8077 7.13278 21.195 7.30769 21.195 7.30769C21.195 7.30769 20.6203 7.22024 20.6453 7.64502C20.6953 8.05731 21.1201 7.94487 21.1201 7.94487Z" fill="#85C886"/>
<path fill-rule="evenodd" clip-rule="evenodd" d="M23.7564 8.91931C23.7564 8.91931 23.7814 9.60646 23.3441 10.2311C22.9068 10.8558 22.6445 11.0058 22.6445 11.0058C22.6445 11.0058 23.1817 11.2806 23.9938 10.581C23.9938 10.581 23.569 9.56898 23.7439 8.95679" fill="#8BCB8C"/>
<path fill-rule="evenodd" clip-rule="evenodd" d="M24.5186 9.75647C24.5186 9.75647 24.4562 10.6935 23.5691 11.4306C23.5691 11.4306 23.4942 12.0178 24.4187 12.5675C24.4187 12.5675 25.2308 11.8304 25.868 11.7929C25.9054 11.7929 26.1678 11.8429 26.1928 11.8554C26.1928 11.8554 26.1428 11.5181 26.0179 11.4931C25.868 11.4556 25.6556 11.5681 25.3682 11.4931C25.0809 11.4181 25.4057 11.1932 25.6681 11.0683C25.868 10.9684 26.0304 10.8059 26.0304 10.8059L25.9054 10.606C25.9054 10.606 25.4182 10.9808 25.2183 10.9684C25.0059 10.9559 25.3057 10.5561 25.4806 10.2687C25.5931 10.1063 25.2558 10.0188 25.2558 10.0188C25.2558 10.0188 24.9934 10.681 24.806 10.656C24.6186 10.6435 24.881 10.0438 24.881 10.0438L24.5186 9.75647Z" fill="#99D19A"/>
<path fill-rule="evenodd" clip-rule="evenodd" d="M24.0937 9.43158C24.0937 9.43158 23.9188 9.68146 24.0687 9.88136C24.1812 10.0188 24.2811 10.0937 24.456 10.0188C24.6184 9.95632 24.6434 9.88136 24.6434 9.88136C24.6434 9.88136 24.6184 10.1187 24.8558 10.2437C25.0932 10.3686 25.2681 10.1312 25.2681 10.1312C25.2681 10.1312 25.568 10.4436 25.8303 10.2812C26.0427 10.1562 26.0177 9.74393 26.0177 9.74393C26.0177 9.74393 26.3051 9.91884 26.53 9.63148C26.8173 9.25667 26.3051 9.0068 26.3051 9.0068C26.3051 9.0068 26.6424 8.70695 26.53 8.49456C26.2926 8.08227 25.9553 8.31965 25.9553 8.31965C25.9553 8.31965 26.0927 8.10725 25.8803 7.94484C25.593 7.73244 25.3931 7.99481 25.3056 8.19471C25.3056 8.19471 25.1432 7.57003 24.7309 7.76993C24.3186 7.96982 24.5685 8.35713 24.5685 8.35713C24.5685 8.35713 24.0312 7.86988 23.8438 8.4196C23.7689 8.63199 24.1687 8.81939 24.1687 8.81939C24.1687 8.81939 23.6314 8.76942 23.6689 9.15672C23.6939 9.55652 24.0937 9.43158 24.0937 9.43158Z" fill="#6FBE70"/>
<path fill-rule="evenodd" clip-rule="evenodd" d="M26.1927 11.0182C26.1927 11.0182 25.8553 10.9932 25.7554 11.2181C25.6555 11.443 25.7054 11.5305 25.8553 11.6429C25.9928 11.7428 26.1177 11.7304 26.1177 11.7304C26.1177 11.7304 25.8304 11.8553 25.8553 12.1177C25.8803 12.38 26.2551 12.3925 26.2551 12.3925C26.2551 12.3925 26.1552 12.8048 26.4301 12.9422C26.6549 13.0547 26.9923 12.8048 26.9923 12.8048C26.9923 12.8048 27.0048 13.1421 27.3546 13.1671C27.8169 13.2046 27.7669 12.6424 27.7669 12.6424C27.7669 12.6424 28.1542 12.7798 28.3166 12.5424C28.5665 12.1801 28.1542 11.9552 28.1542 11.9552C28.1542 11.9552 28.3916 11.8928 28.3916 11.7054C28.4041 11.343 28.1167 11.3056 27.9043 11.343C27.9043 11.343 28.3416 10.8683 27.9418 10.6184C27.5545 10.381 27.3671 10.8058 27.3671 10.8058C27.3671 10.8058 27.4795 10.0937 26.9173 10.2311C26.6924 10.2811 26.7549 10.7184 26.7549 10.7184C26.7549 10.7184 26.505 10.2311 26.2052 10.481C25.8678 10.7434 26.1927 11.0182 26.1927 11.0182Z" fill="#6FBE70"/>
<path fill-rule="evenodd" clip-rule="evenodd" d="M26.4177 9.19424C26.4177 9.19424 26.0803 9.16925 25.9804 9.39414C25.8804 9.61902 25.9304 9.70648 26.0803 9.81892C26.2178 9.91887 26.3427 9.90638 26.3427 9.90638C26.3427 9.90638 26.0553 10.0313 26.0803 10.2937C26.1053 10.556 26.4801 10.5685 26.4801 10.5685C26.4801 10.5685 26.3802 10.9808 26.655 11.1183C26.8799 11.2307 27.2172 10.9808 27.2172 10.9808C27.2172 10.9808 27.2297 11.3182 27.5796 11.3431C28.0418 11.3806 27.9919 10.8184 27.9919 10.8184C27.9919 10.8184 28.3792 10.9558 28.5416 10.7185C28.7915 10.3561 28.3792 10.1313 28.3792 10.1313C28.3792 10.1313 28.6165 10.0688 28.6165 9.88139C28.629 9.51907 28.3417 9.48159 28.1293 9.51907C28.1293 9.51907 28.5666 9.04431 28.1668 8.79444C27.7795 8.55706 27.5921 8.98184 27.5921 8.98184C27.5921 8.98184 27.7045 8.2697 27.1423 8.40714C26.9174 8.45711 26.9799 8.89439 26.9799 8.89439C26.9799 8.89439 26.73 8.40714 26.4301 8.65701C26.1053 8.93187 26.4177 9.19424 26.4177 9.19424Z" fill="#65BA67"/>
<path fill-rule="evenodd" clip-rule="evenodd" d="M25.9553 8.98181C25.9553 8.98181 25.618 8.85687 25.4431 9.05677C25.2807 9.25667 25.2932 9.35662 25.4181 9.51904C25.5306 9.66896 25.6555 9.68145 25.6555 9.68145C25.6555 9.68145 25.2307 9.74392 25.1682 10.0188C25.1183 10.2936 25.593 10.3936 25.593 10.3936C25.593 10.3936 25.3681 10.7934 25.6055 11.0058C25.8054 11.1932 26.2177 11.0308 26.2177 11.0308C26.2177 11.0308 26.1302 11.3806 26.4801 11.518C26.9423 11.6929 27.0548 11.1057 27.0548 11.1057C27.0548 11.1057 27.3796 11.4181 27.6545 11.1682C27.9918 10.8434 27.6545 10.5185 27.6545 10.5185C27.6545 10.5185 27.9168 10.5185 27.9793 10.3311C28.0918 9.96881 27.8169 9.84387 27.592 9.80639C27.592 9.80639 28.1792 9.45657 27.8544 9.08176C27.5295 8.71944 27.2047 9.09425 27.2047 9.09425C27.2047 9.09425 27.4796 8.45707 26.8924 8.41959C26.6425 8.4071 26.6175 8.81939 26.6175 8.81939C26.6175 8.81939 26.5051 8.25717 26.1178 8.41959C25.7055 8.61949 25.9553 8.98181 25.9553 8.98181Z" fill="#85C886"/>
<path fill-rule="evenodd" clip-rule="evenodd" d="M25.9054 11.793C25.9054 11.793 25.2683 12.0429 24.5311 11.843C23.794 11.6306 23.5691 11.4307 23.5691 11.4307C23.5691 11.4307 23.4942 12.0179 24.4187 12.5676C24.4187 12.5676 25.2308 11.8305 25.868 11.793" fill="#8BCB8C"/>
<path fill-rule="evenodd" clip-rule="evenodd" d="M15.1357 8.38198C15.1357 8.38198 15.6229 9.19407 15.3106 10.2935C15.3106 10.2935 15.5854 10.8182 16.6599 10.7433C16.6599 10.7433 16.9098 9.68132 17.4095 9.28152C17.4345 9.25653 17.6844 9.15658 17.7093 9.14409C17.7093 9.14409 17.4845 8.89422 17.3595 8.94419C17.2221 9.00666 17.1097 9.20656 16.8223 9.319C16.5349 9.41895 16.6849 9.05664 16.8223 8.79427C16.9347 8.59437 16.9722 8.36948 16.9722 8.36948L16.7473 8.26953C16.7473 8.26953 16.5599 8.85674 16.385 8.95669C16.2101 9.06913 16.2226 8.56938 16.2101 8.23205C16.2101 8.03215 15.8853 8.15709 15.8853 8.15709C15.8853 8.15709 16.0477 8.84424 15.8853 8.94419C15.7229 9.03165 15.5979 8.40696 15.5979 8.40696L15.1357 8.38198Z" fill="#99D19A"/>
<path fill-rule="evenodd" clip-rule="evenodd" d="M14.611 8.35699C14.611 8.35699 14.611 8.66933 14.8484 8.7443C15.0108 8.79427 15.1358 8.79427 15.2482 8.64435C15.3482 8.50692 15.3232 8.41946 15.3232 8.41946C15.3232 8.41946 15.4356 8.63185 15.698 8.59437C15.9604 8.55689 15.9729 8.26954 15.9729 8.26954C15.9729 8.26954 16.3976 8.35699 16.5226 8.08213C16.635 7.85725 16.3602 7.53241 16.3602 7.53241C16.3602 7.53241 16.6975 7.50742 16.71 7.1576C16.735 6.69533 16.1728 6.7703 16.1728 6.7703C16.1728 6.7703 16.2852 6.33302 16.0603 6.22058C15.623 6.00818 15.4856 6.40798 15.4856 6.40798C15.4856 6.40798 15.4731 6.15811 15.1983 6.14561C14.8359 6.13312 14.8234 6.45796 14.8609 6.68284C14.8609 6.68284 14.3737 6.25806 14.1363 6.65785C13.9114 7.05765 14.3362 7.23256 14.3362 7.23256C14.3362 7.23256 13.624 7.13261 13.774 7.70732C13.8364 7.93221 14.2737 7.84475 14.2737 7.84475C14.2737 7.84475 13.799 8.10712 14.0613 8.40697C14.3487 8.69432 14.611 8.35699 14.611 8.35699Z" fill="#6FBE70"/>
<path fill-rule="evenodd" clip-rule="evenodd" d="M17.2223 8.46938C17.2223 8.46938 16.9349 8.64429 16.9724 8.88167C17.0224 9.11905 17.1098 9.16902 17.2972 9.16902C17.4722 9.16902 17.5596 9.09406 17.5596 9.09406C17.5596 9.09406 17.3972 9.35643 17.5596 9.55632C17.7345 9.75622 18.0344 9.55632 18.0344 9.55632C18.0344 9.55632 18.1968 9.95612 18.4966 9.91864C18.7465 9.88116 18.8714 9.48136 18.8714 9.48136C18.8714 9.48136 19.0713 9.75622 19.3837 9.56882C19.7835 9.33144 19.4212 8.90665 19.4212 8.90665C19.4212 8.90665 19.821 8.8067 19.821 8.50686C19.821 8.06958 19.3462 8.11955 19.3462 8.11955C19.3462 8.11955 19.5086 7.93215 19.3962 7.76973C19.1963 7.46988 18.9464 7.59482 18.784 7.74474C18.784 7.74474 18.8714 7.10756 18.4092 7.13255C17.9594 7.15754 18.0469 7.61981 18.0469 7.61981C18.0469 7.61981 17.7345 6.97013 17.3472 7.39492C17.1848 7.56983 17.4971 7.88217 17.4971 7.88217C17.4971 7.88217 17.0224 7.6323 16.9099 8.00711C16.81 8.43189 17.2223 8.46938 17.2223 8.46938Z" fill="#6FBE70"/>
<path fill-rule="evenodd" clip-rule="evenodd" d="M16.3852 6.84535C16.3852 6.84535 16.0978 7.02026 16.1353 7.25764C16.1853 7.49502 16.2727 7.545 16.4601 7.545C16.6351 7.545 16.7225 7.47003 16.7225 7.47003C16.7225 7.47003 16.5601 7.7324 16.7225 7.9323C16.8974 8.1322 17.1973 7.9323 17.1973 7.9323C17.1973 7.9323 17.3597 8.3321 17.6595 8.29462C17.9094 8.25714 18.0344 7.85734 18.0344 7.85734C18.0344 7.85734 18.2342 8.1322 18.5466 7.94479C18.9464 7.70741 18.5841 7.28263 18.5841 7.28263C18.5841 7.28263 18.9839 7.18268 18.9839 6.88283C18.9839 6.44555 18.5091 6.49553 18.5091 6.49553C18.5091 6.49553 18.6715 6.30812 18.5591 6.14571C18.3592 5.84586 18.1093 5.97079 17.9469 6.12072C17.9469 6.12072 18.0344 5.48354 17.5721 5.50853C17.1223 5.53352 17.2098 5.99578 17.2098 5.99578C17.2098 5.99578 16.8974 5.34611 16.5101 5.7709C16.3477 5.94581 16.66 6.25815 16.66 6.25815C16.66 6.25815 16.1853 6.00828 16.0728 6.38309C15.9729 6.80787 16.3852 6.84535 16.3852 6.84535Z" fill="#65BA67"/>
<path fill-rule="evenodd" clip-rule="evenodd" d="M15.8855 6.93283C15.8855 6.93283 15.5357 7.02029 15.5107 7.28266C15.4857 7.54502 15.5607 7.60749 15.7606 7.66996C15.9355 7.73243 16.0479 7.66996 16.0479 7.66996C16.0479 7.66996 15.7356 7.96981 15.848 8.23218C15.9605 8.49454 16.4103 8.29464 16.4103 8.29464C16.4103 8.29464 16.4477 8.74442 16.7726 8.79439C17.0349 8.83187 17.2848 8.46956 17.2848 8.46956C17.2848 8.46956 17.4097 8.80688 17.7721 8.71943C18.2593 8.59449 18.0094 8.05726 18.0094 8.05726C18.0094 8.05726 18.4592 8.13223 18.5342 7.76991C18.6216 7.30764 18.1719 7.24518 18.1719 7.24518C18.1719 7.24518 18.3843 7.09525 18.3343 6.90785C18.2218 6.54553 17.922 6.5955 17.7221 6.70795C17.7221 6.70795 18.0094 6.08326 17.5222 5.97082C17.0474 5.85838 16.9975 6.35812 16.9975 6.35812C16.9975 6.35812 16.86 5.68347 16.3603 5.98331C16.1479 6.10825 16.3603 6.47057 16.3603 6.47057C16.3603 6.47057 15.948 6.07077 15.7231 6.42059C15.4732 6.77042 15.8855 6.93283 15.8855 6.93283Z" fill="#85C886"/>
<path fill-rule="evenodd" clip-rule="evenodd" d="M17.4345 9.26904C17.4345 9.26904 17.0597 9.84375 16.3351 10.0811C15.6104 10.331 15.3106 10.2935 15.3106 10.2935C15.3106 10.2935 15.5854 10.8183 16.6599 10.7433C16.6599 10.7433 16.9098 9.68133 17.4095 9.28154" fill="#8BCB8C"/>
<path d="M25.0557 6.6206C24.556 6.45819 23.8313 6.37073 23.2691 7.15783C22.5944 8.11984 22.0822 8.9944 21.3951 9.54412C20.7079 10.0938 19.4835 11.7805 20.433 13.6046C21.3826 15.4286 23.5814 15.5286 24.4435 15.3162C26.1177 14.9164 26.9048 13.2797 26.43 11.0309C26.0927 9.44417 26.2051 9.06936 26.2801 8.49466C26.355 7.82 26.0927 6.94544 25.0557 6.6206Z" fill="#CDE9CE" stroke="#CDE38E" stroke-width="2.1298" stroke-miterlimit="10"/>
<path d="M25.0557 12.655C24.7683 13.6046 23.7563 14.1543 22.7943 13.8544C21.8448 13.5671 21.2951 12.5551 21.5949 11.5931C21.8823 10.6436 22.8943 10.0938 23.8563 10.3937C24.8058 10.6935 25.343 11.7055 25.0557 12.655Z" fill="#FAAE42"/>
<path d="M24.9182 11.2808C24.9682 11.5431 24.9432 11.8305 24.8682 12.1053C24.5809 13.0549 23.5689 13.6046 22.6069 13.3047C22.1321 13.1548 21.7573 12.83 21.5449 12.4302C21.6573 13.0923 22.1196 13.6546 22.8068 13.867C23.7563 14.1543 24.7683 13.6171 25.0681 12.6676C25.193 12.1803 25.1306 11.6931 24.9182 11.2808Z" fill="#FFAA71"/>
<path opacity="0.2" d="M22.8943 11.3806C22.7319 11.5055 22.507 11.5055 22.4071 11.3681C22.3071 11.2307 22.3571 11.0183 22.5195 10.8933C22.6819 10.7684 22.9068 10.7684 23.0068 10.9058C23.1067 11.0433 23.0567 11.2557 22.8943 11.3806Z" fill="#FFEAC2"/>
<path opacity="0.2" d="M20.2705 13.617C21.2201 15.4411 23.5814 15.6535 24.4559 15.4536C26.1301 15.0538 27.0296 13.2672 26.5548 11.0183C26.5548 11.0183 25.7178 13.4796 24.4559 14.0918C22.4069 15.0788 20.2455 13.6045 20.2455 13.6045" fill="#65BA67"/>
<g opacity="0.2">
<path opacity="0.2" d="M22.1695 9.89392C22.1321 9.88143 22.0946 9.85644 22.0696 9.81896C21.9946 9.73151 22.0071 9.59408 22.1071 9.51911C22.5069 9.19428 22.8442 8.70702 23.219 8.14481C23.3065 8.00738 23.4064 7.86995 23.5064 7.72002C23.7937 7.30773 24.181 7.10783 24.6558 7.13282C24.7682 7.14532 24.8682 7.24527 24.8557 7.35771C24.8432 7.47015 24.7432 7.5701 24.6308 7.55761C24.306 7.53262 24.0561 7.67005 23.8562 7.9574C23.7562 8.09483 23.6563 8.24476 23.5688 8.3697C23.169 8.9569 22.8192 9.46914 22.3694 9.83145C22.307 9.90642 22.232 9.91891 22.1695 9.89392Z" fill="#FFEAC2"/>
</g>
<path fill-rule="evenodd" clip-rule="evenodd" d="M16.5224 11.3556C16.5224 11.3556 16.7223 12.2801 16.0726 13.2296C16.0726 13.2296 16.1601 13.8168 17.1971 14.0917C17.1971 14.0917 17.7718 13.1672 18.384 12.9423C18.4089 12.9298 18.6838 12.9048 18.7088 12.9048C18.7088 12.9048 18.5714 12.5925 18.4464 12.605C18.2965 12.6175 18.1216 12.7799 17.8217 12.7799C17.5219 12.7924 17.7718 12.4925 17.9842 12.2801C18.1466 12.1302 18.259 11.9303 18.259 11.9303L18.0716 11.7679C18.0716 11.7679 17.7093 12.2676 17.5094 12.3051C17.3095 12.3551 17.4719 11.8803 17.5719 11.5555C17.6343 11.3681 17.2845 11.3806 17.2845 11.3806C17.2845 11.3806 17.2096 12.0802 17.0346 12.1177C16.8597 12.1552 16.9347 11.518 16.9347 11.518L16.5224 11.3556Z" fill="#99D19A"/>
<path fill-rule="evenodd" clip-rule="evenodd" d="M16.0227 11.1557C16.0227 11.1557 15.9228 11.4431 16.1227 11.593C16.2601 11.693 16.385 11.7304 16.535 11.618C16.6724 11.5181 16.6849 11.4306 16.6849 11.4306C16.6849 11.4306 16.7349 11.668 16.9847 11.718C17.2471 11.7679 17.347 11.4931 17.347 11.4931C17.347 11.4931 17.7219 11.7055 17.9218 11.4931C18.0967 11.3182 17.9467 10.9184 17.9467 10.9184C17.9467 10.9184 18.2716 11.0058 18.409 10.6685C18.5839 10.2312 18.0217 10.1313 18.0217 10.1313C18.0217 10.1313 18.2716 9.74395 18.0842 9.56904C17.7468 9.23171 17.4845 9.55655 17.4845 9.55655C17.4845 9.55655 17.5594 9.30668 17.2971 9.21922C16.9597 9.09428 16.8473 9.39413 16.8098 9.61902C16.8098 9.61902 16.485 9.0568 16.1352 9.36914C15.7978 9.66899 16.1477 9.96884 16.1477 9.96884C16.1477 9.96884 15.498 9.6565 15.4605 10.2312C15.448 10.4561 15.8853 10.5186 15.8853 10.5186C15.8853 10.5186 15.3481 10.6185 15.498 10.9808C15.6729 11.3931 16.0227 11.1557 16.0227 11.1557Z" fill="#6FBE70"/>
<path fill-rule="evenodd" clip-rule="evenodd" d="M18.4713 12.1053C18.4713 12.1053 18.134 12.1802 18.109 12.4176C18.0715 12.655 18.1465 12.73 18.3214 12.7924C18.4838 12.8549 18.5963 12.8049 18.5963 12.8049C18.5963 12.8049 18.3589 13.0048 18.4463 13.2547C18.5463 13.5046 18.9086 13.4046 18.9086 13.4046C18.9086 13.4046 18.9336 13.8294 19.2334 13.8919C19.4833 13.9418 19.7332 13.6045 19.7332 13.6045C19.7332 13.6045 19.8331 13.9293 20.183 13.8544C20.6452 13.7544 20.4328 13.2422 20.4328 13.2422C20.4328 13.2422 20.8451 13.2672 20.9326 12.9923C21.07 12.58 20.6077 12.4801 20.6077 12.4801C20.6077 12.4801 20.8201 12.3551 20.7702 12.1677C20.6827 11.8179 20.3954 11.8554 20.1955 11.9553C20.1955 11.9553 20.4828 11.3806 20.033 11.2557C19.5958 11.1308 19.5333 11.593 19.5333 11.593C19.5333 11.593 19.4458 10.8809 18.9461 11.1557C18.7462 11.2682 18.9336 11.668 18.9336 11.668C18.9336 11.668 18.5588 11.2682 18.3339 11.593C18.084 11.9304 18.4713 12.1053 18.4713 12.1053Z" fill="#6FBE70"/>
<path fill-rule="evenodd" clip-rule="evenodd" d="M18.1968 10.2936C18.1968 10.2936 17.8594 10.3686 17.8344 10.606C17.797 10.8433 17.8719 10.9183 18.0468 10.9808C18.2093 11.0432 18.3217 10.9933 18.3217 10.9933C18.3217 10.9933 18.0843 11.1932 18.1718 11.443C18.2717 11.6929 18.634 11.593 18.634 11.593C18.634 11.593 18.659 12.0177 18.9589 12.0802C19.2087 12.1302 19.4586 11.7929 19.4586 11.7929C19.4586 11.7929 19.5586 12.1177 19.9084 12.0427C20.3707 11.9428 20.1583 11.4305 20.1583 11.4305C20.1583 11.4305 20.5706 11.4555 20.658 11.1807C20.7954 10.7684 20.3332 10.6684 20.3332 10.6684C20.3332 10.6684 20.5456 10.5435 20.4956 10.3561C20.4081 10.0063 20.1208 10.0437 19.9209 10.1437C19.9209 10.1437 20.2082 9.56899 19.7585 9.44405C19.3212 9.31912 19.2587 9.78138 19.2587 9.78138C19.2587 9.78138 19.1713 9.06924 18.6715 9.3441C18.4716 9.45655 18.659 9.85634 18.659 9.85634C18.659 9.85634 18.2842 9.45655 18.0593 9.78138C17.8095 10.1187 18.1968 10.2936 18.1968 10.2936Z" fill="#65BA67"/>
<path fill-rule="evenodd" clip-rule="evenodd" d="M17.6843 10.2187C17.6843 10.2187 17.322 10.1937 17.2096 10.4311C17.0971 10.6684 17.1596 10.7559 17.322 10.8808C17.4719 10.9933 17.5969 10.9683 17.5969 10.9683C17.5969 10.9683 17.1971 11.1557 17.2221 11.4306C17.247 11.7179 17.7343 11.6679 17.7343 11.6679C17.7343 11.6679 17.6343 12.1052 17.9217 12.2551C18.1591 12.3801 18.5089 12.1052 18.5089 12.1052C18.5089 12.1052 18.5214 12.4675 18.8962 12.4925C19.396 12.53 19.3335 11.9428 19.3335 11.9428C19.3335 11.9428 19.7458 12.1552 19.9207 11.8428C20.1581 11.443 19.7458 11.2182 19.7458 11.2182C19.7458 11.2182 19.9957 11.1432 20.0081 10.9433C20.0206 10.5685 19.7208 10.5185 19.4834 10.556C19.4834 10.556 19.9582 10.0562 19.5334 9.79388C19.1211 9.54401 18.9212 9.99378 18.9212 9.99378C18.9212 9.99378 19.0086 9.30663 18.4339 9.43157C18.1966 9.48154 18.284 9.89383 18.284 9.89383C18.284 9.89383 18.0216 9.38159 17.6968 9.64396C17.347 9.93131 17.6843 10.2187 17.6843 10.2187Z" fill="#85C886"/>
<path fill-rule="evenodd" clip-rule="evenodd" d="M18.4089 12.9298C18.4089 12.9298 17.8717 13.3421 17.1096 13.3546C16.3475 13.3546 16.0726 13.2297 16.0726 13.2297C16.0726 13.2297 16.1601 13.8169 17.1971 14.0917C17.1971 14.0917 17.7718 13.1672 18.384 12.9423" fill="#8BCB8C"/>
<path d="M10.8754 9.84399C10.8754 9.84399 8.51412 13.2298 10.713 15.0788C13.599 17.5026 15.9978 13.4297 15.9978 13.4297L10.8754 9.84399Z" fill="#FAAE42"/>
<path d="M15.1359 9.63155C16.4478 10.756 16.7726 12.5426 15.8481 13.617C14.9235 14.6915 13.112 14.654 11.8001 13.5296C10.4883 12.4051 10.1634 10.6185 11.088 9.54409C12 8.46964 13.8241 8.50712 15.1359 9.63155Z" fill="#B1DCB2"/>
<path d="M14.0363 10.9185C14.486 11.3058 14.5985 11.9055 14.2736 12.2803C13.9613 12.6426 13.3491 12.6301 12.8993 12.2553C12.4496 11.868 12.3371 11.2683 12.662 10.8935C12.9743 10.5187 13.5865 10.5312 14.0363 10.9185Z" fill="#DFF1DF"/>
<path d="M12.6119 10.5562C12.6619 10.5187 12.6494 10.4438 12.6244 10.3438C12.5869 10.2314 12.4245 10.019 12.2746 10.1189C12.1372 10.2189 12.1746 10.3313 12.2621 10.4438C12.3495 10.5312 12.5245 10.6436 12.6119 10.5562Z" fill="#37A539"/>
<path d="M12.2621 11.0808C12.2871 11.0309 12.2621 10.9684 12.1871 10.8809C12.1122 10.7935 11.8748 10.6561 11.7873 10.7935C11.6999 10.9309 11.7748 11.0309 11.8998 11.0933C12.0122 11.1558 12.2121 11.1933 12.2621 11.0808Z" fill="#37A539"/>
<path d="M12.3121 11.6555C12.2996 11.593 12.2496 11.5556 12.1372 11.5306C12.0247 11.4931 11.7499 11.5056 11.7499 11.6805C11.7499 11.8429 11.8748 11.8804 12.0122 11.8679C12.1372 11.8554 12.3246 11.7804 12.3121 11.6555Z" fill="#37A539"/>
<path d="M12.4621 12.1803C12.4246 12.1303 12.3622 12.1303 12.2497 12.1678C12.1373 12.1928 11.9124 12.3552 12.0123 12.5052C12.0998 12.6426 12.2247 12.6051 12.3372 12.5177C12.4246 12.4427 12.5371 12.2803 12.4621 12.1803Z" fill="#37A539"/>
<path d="M12.8993 12.6175C12.8493 12.5925 12.7868 12.6175 12.6994 12.6925C12.6119 12.7674 12.462 12.9923 12.6119 13.0923C12.7493 13.1797 12.8493 13.1048 12.9243 12.9798C12.9617 12.8674 12.9992 12.6675 12.8993 12.6175Z" fill="#37A539"/>
<path d="M13.4866 12.8176C13.4241 12.8051 13.3741 12.855 13.3117 12.955C13.2492 13.0549 13.1867 13.3173 13.3617 13.3673C13.5241 13.4048 13.5865 13.3048 13.6115 13.1674C13.6365 13.03 13.6115 12.8301 13.4866 12.8176Z" fill="#37A539"/>
<path d="M14.0486 12.7676C13.9987 12.7926 13.9862 12.855 13.9862 12.98C13.9862 13.0924 14.0986 13.3548 14.261 13.2923C14.411 13.2299 14.411 13.1049 14.3485 12.98C14.2985 12.8675 14.1611 12.7176 14.0486 12.7676Z" fill="#37A539"/>
<path d="M14.4611 12.4927C14.4361 12.5426 14.4611 12.6051 14.5361 12.6926C14.611 12.78 14.8484 12.9299 14.9359 12.78C15.0233 12.6426 14.9484 12.5426 14.8234 12.4802C14.711 12.4177 14.5111 12.3927 14.4611 12.4927Z" fill="#37A539"/>
<path d="M14.686 11.868C14.6735 11.9305 14.711 11.9804 14.8109 12.0429C14.8984 12.1179 15.1732 12.1928 15.2232 12.0179C15.2732 11.868 15.1732 11.7805 15.0358 11.7556C14.9109 11.7306 14.711 11.7556 14.686 11.868Z" fill="#37A539"/>
<path d="M14.6984 11.3183C14.7109 11.3808 14.7734 11.4058 14.8983 11.4183C15.0108 11.4308 15.2856 11.3808 15.2481 11.2059C15.2232 11.0435 15.0982 11.0185 14.9608 11.0685C14.8359 11.0935 14.6609 11.1934 14.6984 11.3183Z" fill="#37A539"/>
<path d="M14.3236 10.881C14.3611 10.9185 14.436 10.9185 14.536 10.881C14.6484 10.8435 14.8608 10.6686 14.7484 10.5312C14.6484 10.4062 14.5235 10.4437 14.4235 10.5312C14.3361 10.6186 14.2361 10.7936 14.3236 10.881Z" fill="#37A539"/>
<path d="M13.824 10.4687C13.874 10.4937 13.9364 10.4562 14.0239 10.3812C14.1113 10.3063 14.2488 10.0689 14.0988 9.96893C13.9614 9.88148 13.8615 9.96893 13.799 10.0939C13.749 10.2188 13.7115 10.4187 13.824 10.4687Z" fill="#37A539"/>
<path d="M13.1741 10.3437C13.2365 10.3437 13.274 10.2937 13.324 10.1813C13.374 10.0813 13.3865 9.80645 13.2115 9.78147C13.0491 9.76897 12.9992 9.88142 12.9867 10.0188C12.9992 10.1438 13.0491 10.3437 13.1741 10.3437Z" fill="#37A539"/>
<path d="M18.534 23.7243H14.3486C13.5865 23.7243 12.9743 23.1121 12.9743 22.35V21.9877H19.8958V22.35C19.9083 23.1121 19.2836 23.7243 18.534 23.7243Z" fill="white"/>
<path d="M12.9994 22.2375V22.5999C12.9994 22.8622 13.2493 23.1871 13.3617 23.312C13.3617 23.312 15.9729 23.287 16.4351 23.287C16.8849 23.287 19.5461 23.262 19.5461 23.262C19.696 23.0871 19.8584 22.8372 19.8584 22.5999V22.2375H12.9994Z" fill="#FFF7F1"/>
<path d="M27.3047 13.2173H5.69061C5.69061 16.2532 6.95247 19.0019 8.96395 20.9634C10.3133 22.2752 12.1373 22.9873 14.0114 22.9873H18.9964C20.8704 22.9873 22.682 22.2752 24.0313 20.9759C26.0553 19.0019 27.3047 16.2532 27.3047 13.2173Z" fill="white"/>
<path d="M17.747 22.9873C19.6835 23.0498 21.3577 23.0248 23.3442 21.5756C25.4431 19.8514 26.8799 17.3527 27.2172 14.5166H27.2297C27.2422 14.3667 27.2547 14.1793 27.2672 13.9794C27.2797 13.8545 27.2797 13.717 27.2922 13.5921C27.2922 13.4547 27.3047 13.3172 27.3047 13.2173H22.7445H5.69061C5.69061 13.692 5.7156 14.1668 5.77807 14.6166L22.5321 14.5416C21.695 18.727 19.2587 21.5756 17.747 22.9873Z" fill="#FFF7F1"/>
<path d="M27.6418 13.8294H5.24062C5.00324 13.8294 4.80334 13.6295 4.80334 13.3921C4.80334 13.1547 5.00324 12.9548 5.24062 12.9548H27.6293C27.8667 12.9548 28.0666 13.1547 28.0666 13.3921C28.0791 13.6295 27.8792 13.8294 27.6418 13.8294Z" fill="white"/>
<path d="M21.4825 24.549H11.4001C11.1628 24.549 10.9629 24.3491 10.9629 24.1117C10.9629 23.8743 11.1628 23.6744 11.4001 23.6744H21.4825C21.7199 23.6744 21.9198 23.8743 21.9198 24.1117C21.9198 24.3616 21.7199 24.549 21.4825 24.549Z" fill="#FFEADC"/>
</g>
<defs>
<filter id="filter0_d" x="0" y="0" width="29.622" height="25.549" filterUnits="userSpaceOnUse" color-interpolation-filters="sRGB">
<feFlood flood-opacity="0" result="BackgroundImageFix"/>
<feColorMatrix in="SourceAlpha" type="matrix" values="0 0 0 0 0 0 0 0 0 0 0 0 0 0 0 0 0 0 127 0"/>
<feOffset dx="-1" dy="-1"/>
<feGaussianBlur stdDeviation="1"/>
<feColorMatrix type="matrix" values="0 0 0 0 0 0 0 0 0 0 0 0 0 0 0 0 0 0 0.25 0"/>
<feBlend mode="normal" in2="BackgroundImageFix" result="effect1_dropShadow"/>
<feBlend mode="normal" in="SourceGraphic" in2="effect1_dropShadow" result="shape"/>
</filter>
</defs>
</svg>
