<svg width="26" height="38" viewBox="0 0 26 38" fill="none" xmlns="http://www.w3.org/2000/svg">
<path d="M24.6538 35.4739C24.6538 36.3191 19.206 37.0234 12.5116 37.0234C5.79413 37.0234 0.369385 36.3426 0.369385 35.4739C0.369385 34.6288 5.81722 33.9244 12.5116 33.9244C19.206 33.9244 24.6538 34.6053 24.6538 35.4739Z" fill="#E6E7E8"/>
<path d="M12.5115 0C5.60942 0 0 5.70495 0 12.7246C0 15.1662 0.69252 17.5374 1.96214 19.5799L2.00831 19.6504C2.1699 19.9086 2.33149 20.1434 2.49307 20.3782L6.80978 26.67L12.4654 35.4975L18.121 26.6935L22.4377 20.4251C22.6454 20.1669 22.8301 19.8617 23.0378 19.5799L23.084 19.5095C24.3536 17.467 25.0231 15.1193 25.0231 12.7011C25 5.70495 19.3906 0 12.5115 0ZM20.7987 18.0539L20.7756 18.1009C20.614 18.3357 20.4755 18.5704 20.3139 18.7817L15.928 25.0971L12.4885 30.4499L9.04893 25.1206L4.70914 18.7817L4.68606 18.7348C4.54755 18.547 4.40905 18.3591 4.29363 18.1713L4.24746 18.0774C3.23176 16.481 2.70083 14.6263 2.70083 12.7011C2.70083 7.20749 7.10988 2.72335 12.5115 2.72335C17.9132 2.72335 22.3222 7.18401 22.3222 12.7011C22.2992 14.6028 21.7913 16.4575 20.7987 18.0539Z" fill="#FAAE42"/>
</svg>
