<svg width="26" height="38" viewBox="0 0 26 38" fill="none" xmlns="http://www.w3.org/2000/svg">
<path d="M24.6538 35.4739C24.6538 36.3191 19.206 37.0234 12.5116 37.0234C5.79419 37.0234 0.369446 36.3426 0.369446 35.4739C0.369446 34.6288 5.81728 33.9244 12.5116 33.9244C19.206 33.9244 24.6538 34.6053 24.6538 35.4739Z" fill="#E6E7E8"/>
<path d="M12.5116 2.74695C7.10992 2.74695 2.70087 7.20761 2.70087 12.7247C2.70087 14.6264 3.2318 16.4811 4.2475 18.101L4.29366 18.1714C4.40908 18.3593 4.54759 18.5471 4.68609 18.7349L4.70918 18.7818L9.04897 25.1207L12.4885 30.45L15.928 25.0972L20.2909 18.7818C20.4525 18.5705 20.6141 18.3358 20.7526 18.101L20.7757 18.0541C21.7683 16.4576 22.2992 14.6264 22.2992 12.7247C22.2992 7.20761 17.9132 2.74695 12.5116 2.74695ZM11.7729 19.3923C11.7036 19.7209 11.4266 19.9322 11.1035 19.9322C11.0573 19.9322 11.0111 19.9322 10.9649 19.9087C9.62607 19.6035 8.40262 18.9227 7.43309 17.9367C7.17917 17.6784 7.17917 17.2324 7.43309 16.9741C7.68702 16.7159 8.12561 16.7159 8.37954 16.9741C9.16439 17.7723 10.157 18.3358 11.242 18.5705C11.6113 18.641 11.8421 19.0166 11.7729 19.3923ZM18.9059 11.6213C18.8366 11.6448 18.7904 11.6448 18.7212 11.6448C18.4211 11.6448 18.1672 11.457 18.0748 11.1518C17.5208 9.22664 16.0203 7.67715 14.1044 7.1137C13.735 7.01979 13.5504 6.62068 13.6427 6.26852C13.735 5.89289 14.1275 5.70507 14.4737 5.79898C16.8052 6.47982 18.675 8.38146 19.3675 10.7761C19.483 11.1518 19.2752 11.5274 18.9059 11.6213Z" fill="#FCFDFD"/>
<path d="M18.975 12.8655C18.975 16.5044 16.0664 19.4626 12.4884 19.4626C12.0036 19.4626 11.542 19.4156 11.1034 19.3217C9.85683 19.04 8.77188 18.4061 7.89469 17.5374C6.74049 16.3401 6.0018 14.6967 6.0018 12.889C6.0018 9.24999 8.91039 6.29187 12.4884 6.29187C13.1117 6.29187 13.7119 6.38578 14.289 6.55012C16.4127 7.184 18.0978 8.87436 18.7211 11.0577C18.8827 11.6212 18.975 12.2316 18.975 12.8655Z" fill="#FAAE42"/>
<path d="M12.5115 0C5.60942 0 0 5.70495 0 12.7246C0 15.1662 0.69252 17.5374 1.96214 19.5799L2.00831 19.6504C2.1699 19.9086 2.33149 20.1434 2.49307 20.3782L6.80978 26.67L12.4654 35.4975L18.121 26.6935L22.4377 20.4251C22.6454 20.1669 22.8301 19.8617 23.0378 19.5799L23.084 19.5095C24.3536 17.467 25.0231 15.1193 25.0231 12.7011C25 5.70495 19.3906 0 12.5115 0ZM20.7987 18.0539L20.7756 18.1009C20.614 18.3357 20.4755 18.5704 20.3139 18.7817L15.928 25.0971L12.4885 30.4499L9.04893 25.1206L4.70914 18.7817L4.68606 18.7348C4.54755 18.547 4.40905 18.3591 4.29363 18.1713L4.24746 18.0774C3.23176 16.481 2.70083 14.6263 2.70083 12.7011C2.70083 7.20749 7.10988 2.72335 12.5115 2.72335C17.9132 2.72335 22.3222 7.18401 22.3222 12.7011C22.2992 14.6028 21.7913 16.4575 20.7987 18.0539Z" fill="#FAAE42"/>
<path d="M11.2651 18.5705C10.1802 18.3358 9.18755 17.7723 8.4027 16.9741C8.14877 16.7158 7.71018 16.7158 7.45625 16.9741C7.20233 17.2323 7.20233 17.6784 7.45625 17.9366C8.42578 18.9227 9.64923 19.627 10.9881 19.9087C11.0343 19.9087 11.0804 19.9322 11.1266 19.9322C11.4267 19.9322 11.7268 19.7209 11.796 19.3922C11.8422 19.0166 11.6114 18.641 11.2651 18.5705Z" fill="#414042"/>
<path d="M14.4969 5.82227C14.1506 5.72836 13.7582 5.91618 13.6659 6.29181C13.5735 6.66745 13.7582 7.04308 14.1275 7.13699C16.0204 7.70044 17.544 9.22645 18.098 11.1751C18.1903 11.4803 18.4443 11.6681 18.7443 11.6681C18.8136 11.6681 18.8598 11.6681 18.929 11.6446C19.2984 11.5507 19.483 11.1516 19.3907 10.7994C18.6982 8.40476 16.8284 6.50311 14.4969 5.82227Z" fill="#414042"/>
</svg>
