<svg width="56" height="56" viewBox="0 0 56 56" fill="none" xmlns="http://www.w3.org/2000/svg">
<g clip-path="url(#clip0)">
<path d="M21.8144 46.0085C17.4731 46.0085 14 42.4085 14 37.9085V30.1686C14 26.7486 16.0838 23.5085 19.3832 22.4285V19.5485C19.3832 14.3285 23.5509 10.0085 28.5869 10.0085C33.4491 10.0085 37.6168 14.1484 37.7904 19.1884V19.5485V22.4285C40.9162 23.5085 43 26.7486 43.1736 30.1686V37.9085C43.1736 42.4085 39.7006 46.0085 35.3593 46.0085H21.8144ZM16.6048 30.1686V37.9085C16.6048 40.9685 19.0359 43.3085 21.8144 43.3085H35.0119C37.964 43.3085 40.2215 40.7885 40.2215 37.9085V30.1686C40.2215 27.1086 37.7904 24.7686 35.0119 24.7686H21.8144C19.0359 24.5886 16.6048 27.1086 16.6048 30.1686ZM35.1856 21.8884V19.5485C35.1856 15.7685 32.2336 12.7085 28.5869 12.7085C25.1138 12.7085 22.1616 15.5884 21.988 19.1884V19.5485V21.8884H35.1856ZM27.1976 36.1085V31.9686C27.1976 31.2486 27.7186 30.7085 28.5869 30.7085C29.2815 30.7085 29.8024 31.2484 29.8024 31.7884V31.9686V35.9285C29.8024 36.6485 29.2814 37.1884 28.4132 37.1884C27.8922 37.3684 27.3712 36.8285 27.1976 36.1085Z" fill="#00B0B2"/>
</g>
<rect x="2" y="2" width="52" height="52" rx="14" stroke="#00B0B2" stroke-width="4"/>
<defs>
<clipPath id="clip0">
<rect width="29" height="36" fill="white" transform="translate(14 10)"/>
</clipPath>
</defs>
</svg>
