<svg width="64" height="57" viewBox="0 0 64 57" fill="none" xmlns="http://www.w3.org/2000/svg">
<rect x="11.9647" y="16.5446" width="42.5905" height="25.9989" rx="3" transform="rotate(-0.909648 11.9647 16.5446)" fill="white"/>
<path d="M28.1499 21.6392L14.825 21.7776L14.9634 35.1025L28.2883 34.9641L28.1499 21.6392Z" fill="#70A7DA"/>
<path d="M28.2946 30.1399L14.9697 30.2783L15.0187 34.9975L28.3436 34.8591L28.2946 30.1399Z" fill="#AFD792"/>
<path d="M17.9222 28.8277L28.3694 26.5047L28.2689 30.1915L17.9337 30.3226L17.9222 28.8277Z" fill="#2C5535"/>
<path d="M20.7943 30.2489L14.9208 27.3556L14.9439 30.3454L20.7943 30.2489Z" fill="#61A952"/>
<path d="M20.7823 25.3257C20.7374 26.2025 20.125 27.0062 19.119 26.9109C18.2423 26.8661 17.4385 26.2536 17.5339 25.2476C17.5787 24.3709 18.1911 23.5671 19.1971 23.6625C19.9446 23.6567 20.6978 24.3985 20.7823 25.3257Z" fill="#FDC275"/>
<path d="M39.5806 21.504L29.7258 21.6063L29.7373 22.7168L39.5922 22.6144L39.5806 21.504Z" fill="#88BBBC"/>
<path d="M39.5225 23.9037L29.6677 24.0061L29.6792 25.1165L39.534 25.0142L39.5225 23.9037Z" fill="#88BBBC"/>
<path d="M39.6035 26.3016L29.7486 26.4039L29.7601 27.5143L39.615 27.412L39.6035 26.3016Z" fill="#88BBBC"/>
<path d="M39.5472 28.8397L29.6923 28.942L29.7039 30.0524L39.5587 29.95L39.5472 28.8397Z" fill="#88BBBC"/>
<path d="M39.6322 31.2369L29.7774 31.3392L29.7889 32.4497L39.6438 32.3473L39.6322 31.2369Z" fill="#88BBBC"/>
<path d="M39.575 33.6357L29.7201 33.738L29.7316 34.8485L39.5865 34.7461L39.575 33.6357Z" fill="#88BBBC"/>
<path d="M52.0092 21.345L42.1543 21.4474L42.1658 22.5578L52.0207 22.4555L52.0092 21.345Z" fill="#88BBBC"/>
<path d="M52.091 23.7422L42.2361 23.8446L42.2477 24.955L52.1025 24.8526L52.091 23.7422Z" fill="#88BBBC"/>
<path d="M52.0347 26.2803L42.1799 26.3827L42.1914 27.4931L52.0462 27.3907L52.0347 26.2803Z" fill="#88BBBC"/>
<path d="M52.1163 28.6775L42.2614 28.7799L42.2729 29.8903L52.1278 29.788L52.1163 28.6775Z" fill="#88BBBC"/>
<path d="M52.1996 31.0761L42.3447 31.1785L42.3563 32.2889L52.2111 32.1865L52.1996 31.0761Z" fill="#88BBBC"/>
<path d="M52.1436 33.6139L42.2888 33.7163L42.3003 34.8267L52.1551 34.7243L52.1436 33.6139Z" fill="#88BBBC"/>
<path d="M39.7167 38.2702L29.8618 38.3726L29.8734 39.4829L39.7282 39.3806L39.7167 38.2702Z" fill="#88BBBC"/>
<path d="M24.9043 38.4567L15.0495 38.5591L15.061 39.6695L24.9159 39.5671L24.9043 38.4567Z" fill="#88BBBC"/>
<path d="M52.0384 18.0908L14.8398 18.4772L14.8514 19.5876L52.05 19.2012L52.0384 18.0908Z" fill="#88BBBC"/>
<path d="M52.2867 38.1076L42.4318 38.21L42.4434 39.3204L52.2982 39.218L52.2867 38.1076Z" fill="#88BBBC"/>
<path d="M14.5749 9.92079L14.5939 11.751L13.3716 9.93329L12.6522 9.94076L12.6828 12.8943L13.4023 12.8868L13.3834 11.0651L14.6056 12.8743L15.325 12.8668L15.2943 9.91332L14.5749 9.92079ZM17.625 9.88911L15.8158 9.9079L15.8465 12.8614L17.6557 12.8426L17.6497 12.2662L16.56 12.2775L16.5533 11.6296L17.5167 11.6196L17.511 11.0643L16.5475 11.0743L16.5413 10.4768L17.631 10.4655L17.625 9.88911ZM18.716 12.8316L19.5869 12.8226L20.0547 10.8737L20.5461 12.8126L21.417 12.8036L22.1563 9.84204L21.3822 9.85008L20.9753 12.0045L20.4481 9.85978L19.6572 9.868L19.1536 12.0234L18.7063 9.87788L17.9364 9.88587L18.716 12.8316ZM24.6844 11.8902C24.6741 10.9015 23.2166 11.1481 23.2112 10.6348C23.2093 10.4496 23.3388 10.3599 23.5114 10.3623C23.705 10.3645 23.8408 10.4767 23.8554 10.6659L24.6337 10.6579C24.5984 10.0944 24.1617 9.77913 23.518 9.78582C22.8995 9.79224 22.4442 10.1083 22.45 10.6679C22.4525 11.7156 23.9262 11.4058 23.9318 11.9527C23.9336 12.1252 23.8001 12.2318 23.5897 12.234C23.3878 12.2361 23.2436 12.1282 23.2202 11.9012L22.4545 11.9092C22.4817 12.5064 22.9814 12.8168 23.6167 12.8102C24.3067 12.803 24.6895 12.3867 24.6844 11.8902Z" fill="#FFC676"/>
</svg>
