<svg width="40" height="62" viewBox="0 0 40 62" fill="none" xmlns="http://www.w3.org/2000/svg">
<g filter="url(#filter0_d)">
<path fill-rule="evenodd" clip-rule="evenodd" d="M25.6097 6.91011C30.4919 10.5905 28.9897 28.7671 18.925 28.7671C9.23577 28.7671 7.58335 11.642 12.1651 7.28566C14.9441 4.50659 22.38 4.50659 25.6097 6.91011Z" fill="#FFDCB6"/>
<path fill-rule="evenodd" clip-rule="evenodd" d="M14.9441 29.8939V27.5655C16.0707 28.2415 17.4227 28.6921 18.9249 28.6921C20.5022 28.6921 21.8542 28.2415 23.056 27.4904V29.8188L19 36.6538L14.9441 29.8939Z" fill="#FFDCB6"/>
<path fill-rule="evenodd" clip-rule="evenodd" d="M14.3432 16.5994C15.0192 16.5994 15.6201 15.9985 15.6201 15.3225C15.6201 14.6465 15.0192 14.0457 14.3432 14.0457C13.6672 14.0457 13.0663 14.6465 13.0663 15.3225C13.0663 15.9985 13.6672 16.5994 14.3432 16.5994Z" fill="black"/>
<path fill-rule="evenodd" clip-rule="evenodd" d="M23.5817 16.5994C24.2577 16.5994 24.8586 15.9985 24.8586 15.3225C24.8586 14.6465 24.2577 14.0457 23.5817 14.0457C22.9057 14.0457 22.3048 14.6465 22.3048 15.3225C22.3048 15.9985 22.9057 16.5994 23.5817 16.5994Z" fill="black"/>
<path fill-rule="evenodd" clip-rule="evenodd" d="M28.2385 14.7216C28.4638 13.1442 30.5669 15.6229 27.5625 20.3548C28.0883 18.6273 28.1634 16.6744 28.2385 14.7216Z" fill="#FFDCB6"/>
<path fill-rule="evenodd" clip-rule="evenodd" d="M9.68629 14.7216C9.46096 13.1442 7.35788 15.6229 10.3623 20.3548C9.83651 18.6273 9.68629 16.6744 9.68629 14.7216Z" fill="#FFDCB6"/>
<path fill-rule="evenodd" clip-rule="evenodd" d="M26.4359 0C26.8865 0 27.1118 0.450651 27.2621 0.976421L28.9145 9.61407H9.08545L10.813 0.976421C10.9632 0.450651 11.1885 0 11.6392 0H26.4359Z" fill="#FAAE42"/>
<path fill-rule="evenodd" clip-rule="evenodd" d="M9.08545 9.61406H28.9145L28.5389 7.51099H9.461L9.08545 9.61406Z" fill="#303030"/>
<path fill-rule="evenodd" clip-rule="evenodd" d="M7.58324 9.61414H30.4167C30.7922 9.61414 31.0927 9.91457 31.0927 10.215C31.0927 10.5906 30.7922 10.891 30.4167 10.891H7.58324C7.20769 10.891 6.98236 10.5906 6.98236 10.215C6.98236 9.91457 7.20769 9.61414 7.58324 9.61414Z" fill="#A87E49"/>
<path fill-rule="evenodd" clip-rule="evenodd" d="M26.4359 0C26.8865 0 27.1118 0.450651 27.2621 0.976421L28.5389 7.43588H27.7878L26.511 0.976421C26.4359 0.450651 26.1354 0 25.6848 0H26.4359Z" fill="#606060"/>
<path fill-rule="evenodd" clip-rule="evenodd" d="M28.1633 9.61406H28.9144L28.5389 7.51099H27.7878L28.1633 9.61406Z" fill="black"/>
<path fill-rule="evenodd" clip-rule="evenodd" d="M29.8909 9.61414H30.5669C30.8674 9.61414 31.0927 9.91457 31.0927 10.215C31.0927 10.5906 30.8674 10.891 30.5669 10.891H29.8909C30.1914 10.891 30.4167 10.5906 30.4167 10.215C30.4167 9.91457 30.1914 9.61414 29.8909 9.61414Z" fill="#606060"/>
<path fill-rule="evenodd" clip-rule="evenodd" d="M21.7791 21.6317C23.2062 20.8806 19.8263 25.6126 16.221 22.3077C15.7703 21.8571 15.7703 21.4064 16.221 21.6317C18.0236 22.6833 19.9014 22.6082 21.7791 21.6317Z" fill="black"/>
<path fill-rule="evenodd" clip-rule="evenodd" d="M17.0472 22.0824C18.3241 22.6082 19.6009 22.5331 20.9529 22.0824C20.9529 22.3077 20.9529 22.533 20.9529 22.6833C19.6009 23.1339 18.3241 23.1339 17.0472 22.6833V22.0824Z" fill="white"/>
<path d="M14.3432 12.243C15.1694 12.243 15.9205 12.6186 16.4463 13.1444C16.9721 13.6701 17.3476 14.4212 17.3476 15.2474C17.3476 16.0737 16.9721 16.8247 16.4463 17.3505C15.9205 17.8763 15.1694 18.2518 14.3432 18.2518C13.517 18.2518 12.7659 17.9514 12.2401 17.3505C11.7144 16.8247 11.3388 16.0737 11.3388 15.2474C11.3388 14.4212 11.7144 13.6701 12.2401 13.1444C12.7659 12.6186 13.517 12.243 14.3432 12.243ZM16.2961 13.2946C15.7703 12.7688 15.0943 12.4684 14.3432 12.4684C13.5921 12.4684 12.9161 12.7688 12.3903 13.2946C11.8646 13.8203 11.5641 14.4963 11.5641 15.2474C11.5641 15.9985 11.8646 16.6745 12.3903 17.2003C12.9161 17.7261 13.5921 18.0265 14.3432 18.0265C15.0943 18.0265 15.7703 17.7261 16.2961 17.2003C16.8218 16.6745 17.1223 15.9985 17.1223 15.2474C17.1223 14.4963 16.8218 13.8203 16.2961 13.2946Z" fill="black"/>
<path d="M23.5818 12.243C24.408 12.243 25.1591 12.6186 25.6849 13.1444C26.2106 13.6701 26.5862 14.4212 26.5862 15.2474C26.5862 16.0737 26.2857 16.8247 25.6849 17.3505C25.1591 17.8763 24.408 18.2518 23.5818 18.2518C22.7556 18.2518 22.0045 17.9514 21.4787 17.3505C20.9529 16.8247 20.5774 16.0737 20.5774 15.2474C20.5774 14.4212 20.9529 13.6701 21.4787 13.1444C22.0045 12.6186 22.7556 12.243 23.5818 12.243ZM25.5347 13.2946C25.0089 12.7688 24.3329 12.4684 23.5818 12.4684C22.8307 12.4684 22.1547 12.7688 21.6289 13.2946C21.1032 13.8203 20.8027 14.4963 20.8027 15.2474C20.8027 15.9985 21.1032 16.6745 21.6289 17.2003C22.1547 17.7261 22.8307 18.0265 23.5818 18.0265C24.3329 18.0265 25.0089 17.7261 25.5347 17.2003C26.0604 16.6745 26.3609 15.9985 26.3609 15.2474C26.3609 14.4963 26.0604 13.8203 25.5347 13.2946Z" fill="black"/>
<path d="M17.3475 15.7732C17.2724 15.8483 17.1973 15.8483 17.1973 15.7732C17.1222 15.698 17.1222 15.6229 17.1973 15.6229C17.8733 14.9469 18.4742 14.6465 19.0751 14.7216C19.676 14.7216 20.2768 15.0972 20.8777 15.6229C20.9528 15.698 20.9528 15.7732 20.8777 15.7732C20.8026 15.8483 20.7275 15.8483 20.7275 15.7732C20.2017 15.2474 19.676 14.9469 19.1502 14.9469C18.4742 14.8718 17.9484 15.1723 17.3475 15.7732Z" fill="black"/>
<path d="M26.4359 15.1723L28.3137 14.3461L28.3888 14.5714L26.511 15.3976L26.4359 15.1723Z" fill="black"/>
<path d="M11.4138 15.4728L9.61121 14.7217L9.68631 14.4963L11.489 15.2474L11.4138 15.4728Z" fill="black"/>
<path fill-rule="evenodd" clip-rule="evenodd" d="M9.76141 17.05C10.7378 18.3269 11.2636 19.9793 12.24 21.2562C12.9911 22.2326 13.9676 22.9086 14.7938 23.8099V22.0824C14.7938 21.4815 17.7231 20.9558 18.1737 20.9558C18.4742 20.9558 18.6995 21.2562 18.6995 21.6318C18.6995 22.0073 18.4742 22.3077 18.1737 22.3077C15.2444 22.3077 15.0191 20.6553 15.0191 24.1855C15.1693 25.237 15.8453 25.7628 16.8218 25.9881C18.0235 25.7628 18.4742 25.0868 18.6244 24.2606C18.8497 24.2606 19.0751 24.2606 19.3004 24.2606C19.4506 25.0868 20.1266 25.5375 20.8777 25.9881C21.779 26.2135 22.3799 25.4624 22.9057 24.4859C22.9057 20.6553 22.7554 22.3078 19.751 22.3829C19.4506 22.3829 19.2253 22.0824 19.2253 21.7069C19.2253 21.3313 19.4506 21.0309 19.751 21.0309C20.2017 21.0309 23.2061 21.6318 23.2061 22.1575V24.0353C23.9572 23.0589 25.0087 22.5331 25.7598 21.4815C26.6612 20.2047 27.1869 18.3269 28.0883 17.05C27.8629 20.8055 26.8114 23.9602 24.483 26.5139C22.9057 28.1663 20.9528 28.9926 18.6244 28.9174C16.1458 28.8423 14.4933 27.8659 13.2916 26.5139C10.813 23.6597 10.2121 20.3549 9.76141 17.05Z" fill="black"/>
<path fill-rule="evenodd" clip-rule="evenodd" d="M1.0487 47.77C1.0487 44.7656 0.522931 39.8834 2.92645 38.231C7.65838 35.7524 9.68635 32.4475 14.944 29.8938L18.9249 36.7288L22.9808 29.8938C28.2385 32.4475 30.2665 35.7524 34.9984 38.231C37.4019 39.8834 36.8762 44.7656 36.8762 47.77H24.4079L26.9616 42.5874H21.7791L19.9764 39.0572L18.9249 37.0292L18.1738 38.5314L16.1458 42.5874H10.9632L13.517 47.77H1.0487Z" fill="#E6E6E6"/>
<path fill-rule="evenodd" clip-rule="evenodd" d="M15.0192 42.5874L8.63481 34.1C6.90728 35.5271 5.25486 36.9542 2.92645 38.1559C0.522931 39.8083 1.0487 44.6905 1.0487 47.6949H13.5921L11.0383 42.5123H15.0192V42.5874Z" fill="#215F60"/>
<path fill-rule="evenodd" clip-rule="evenodd" d="M22.9057 42.5874L29.2901 34.175C31.0176 35.6021 32.67 37.0292 34.9984 38.231C37.4019 39.8834 36.8762 44.7655 36.8762 47.7699H24.4079L26.9616 42.5874H22.9057Z" fill="#215F60"/>
<path d="M12.6156 51.6006L18.7746 39.3577L18.9999 38.8319L19.2253 39.3577L25.3092 51.6006L25.5345 52.0513H25.0838H12.8409H12.3903L12.6156 51.6006ZM18.9999 40.1839L13.3667 51.4504H24.6332L18.9999 40.1839Z" fill="#4D5A6A"/>
<path d="M13.3667 44.0144L18.9999 55.2809L24.6332 44.0144H13.3667ZM18.6995 56.1072L12.5405 43.8642L12.3903 43.4136H12.8409H25.0838H25.5345L25.3092 43.8642L19.2253 56.1072L18.9999 56.6329L18.6995 56.1072Z" fill="#2D3A4A"/>
<path d="M16.3712 44.0144L16.6716 43.4136H17.3476L17.0471 44.0144H16.3712Z" fill="#2D3A4A"/>
<path d="M21.2534 43.4136L21.5538 44.0144H20.8778L20.5774 43.4136H21.2534Z" fill="#4D5A6A"/>
<path d="M17.3476 52.0512H16.6716L16.3712 51.4503H17.0471L17.3476 52.0512Z" fill="#2D3A4A"/>
<path d="M21.2534 52.0512H20.5774L20.8778 51.4503H21.5538L21.2534 52.0512Z" fill="#4D5A6A"/>
<path d="M23.131 47.094L23.4315 47.77L23.131 48.3709L22.7555 47.77L23.131 47.094Z" fill="#2D3A4A"/>
<path d="M14.5686 47.77L14.869 47.094L15.1695 47.77L14.869 48.3709L14.5686 47.77Z" fill="#4D5A6A"/>
<path fill-rule="evenodd" clip-rule="evenodd" d="M13.8925 30.4196C14.2681 30.2694 14.5685 30.044 14.9441 29.8938L18.2489 35.527L17.5729 36.7288L13.8925 30.4196ZM22.6804 30.4196L23.0559 29.8938C28.3136 32.4475 30.3416 35.7524 35.0735 38.231C37.4771 39.8834 36.9513 44.7656 36.9513 47.77H35.5242C35.5242 44.7656 36.05 39.8834 33.6464 38.231C29.215 35.9026 27.187 32.8982 22.6804 30.4196ZM18.2489 38.3812L18.1738 38.5314L16.1458 42.5874H14.7187L16.7467 38.5314L17.4978 37.0292L18.2489 38.3812ZM10.9632 42.5874L13.517 47.77H12.0899L9.53613 42.5874H10.9632Z" fill="#CCCCCC"/>
<path fill-rule="evenodd" clip-rule="evenodd" d="M15.0191 42.5874L14.8689 42.3621L14.7187 42.5874H15.0191ZM12.1649 47.77H13.592L11.0383 42.5874H9.61121L12.1649 47.77Z" fill="black"/>
<path fill-rule="evenodd" clip-rule="evenodd" d="M28.7643 34.851L29.29 34.175C31.0176 35.6021 32.67 37.0292 34.9984 38.231C37.4019 39.8834 36.8762 44.7655 36.8762 47.7699H35.5242C35.5242 44.7655 36.05 39.8834 33.6464 38.231C31.6936 37.1794 30.1914 35.9777 28.7643 34.851Z" fill="black"/>
</g>
<defs>
<filter id="filter0_d" x="0" y="0" width="40" height="61.6329" filterUnits="userSpaceOnUse" color-interpolation-filters="sRGB">
<feFlood flood-opacity="0" result="BackgroundImageFix"/>
<feColorMatrix in="SourceAlpha" type="matrix" values="0 0 0 0 0 0 0 0 0 0 0 0 0 0 0 0 0 0 127 0"/>
<feOffset dx="1" dy="3"/>
<feGaussianBlur stdDeviation="1"/>
<feColorMatrix type="matrix" values="0 0 0 0 0 0 0 0 0 0 0 0 0 0 0 0 0 0 0.25 0"/>
<feBlend mode="normal" in2="BackgroundImageFix" result="effect1_dropShadow"/>
<feBlend mode="normal" in="SourceGraphic" in2="effect1_dropShadow" result="shape"/>
</filter>
</defs>
</svg>
