<svg width="25" height="23" viewBox="0 0 25 23" fill="none" xmlns="http://www.w3.org/2000/svg">
<path d="M24.1668 21.3571H23.5417C23.4865 21.3571 23.4335 21.3355 23.3944 21.297C23.3554 21.2585 23.3334 21.2063 23.3334 21.1518V12.399C23.3339 12.3663 23.3264 12.334 23.3117 12.3047C23.297 12.2754 23.2753 12.2501 23.2487 12.2307C23.222 12.2113 23.191 12.1985 23.1582 12.1933C23.1255 12.1881 23.092 12.1906 23.0605 12.2008C22.5826 12.3488 22.0862 12.4314 21.5855 12.4462C21.524 12.4462 21.4657 12.4488 21.4084 12.4488C20.4452 12.451 19.4975 12.2099 18.6558 11.7485C18.592 11.7136 18.5203 11.6952 18.4474 11.6952C18.3745 11.6952 18.3028 11.7136 18.2391 11.7485C17.3975 12.2099 16.45 12.451 15.487 12.4488C14.5293 12.4501 13.5878 12.2061 12.7546 11.7408C12.6904 11.7049 12.6178 11.6861 12.544 11.6861C12.4701 11.6861 12.3975 11.7049 12.3333 11.7408C11.4876 12.2079 10.5339 12.4519 9.5645 12.4493C8.60045 12.4499 7.65298 12.2021 6.81603 11.7305C6.75127 11.6942 6.67804 11.6751 6.60353 11.6751C6.52901 11.6751 6.45578 11.6942 6.39102 11.7305C5.55407 12.2021 4.6066 12.4499 3.64255 12.4493C3.58578 12.4493 3.52849 12.4493 3.46703 12.4467H3.46391C2.94556 12.4314 2.43207 12.3434 1.93889 12.1854C1.90766 12.1754 1.87448 12.1729 1.84207 12.178C1.80965 12.1831 1.77892 12.1956 1.75236 12.2147C1.72581 12.2337 1.70419 12.2586 1.68927 12.2874C1.67434 12.3162 1.66654 12.3481 1.66649 12.3805V21.1518C1.66649 21.2063 1.64454 21.2585 1.60547 21.297C1.5664 21.3355 1.51341 21.3571 1.45815 21.3571H0.859188C0.409182 21.3571 0.0206361 21.698 0.000844231 22.1416C-0.00422173 22.2525 0.0135515 22.3632 0.0530912 22.4671C0.0926309 22.571 0.153117 22.6659 0.2309 22.7461C0.308682 22.8263 0.402148 22.8902 0.505656 22.9338C0.609164 22.9775 0.720569 23 0.833146 23H24.1407C24.5907 23 24.9793 22.6591 24.9991 22.2155C25.0041 22.1047 24.9863 21.994 24.9468 21.8901C24.9073 21.7862 24.8468 21.6912 24.769 21.611C24.6912 21.5308 24.5977 21.4669 24.4942 21.4233C24.3907 21.3797 24.2793 21.3572 24.1668 21.3571ZM10.8333 17.8661C10.8333 17.9205 10.8113 17.9728 10.7722 18.0113C10.7332 18.0498 10.6802 18.0714 10.6249 18.0714H6.04154C5.98629 18.0714 5.93329 18.0498 5.89422 18.0113C5.85515 17.9728 5.8332 17.9205 5.8332 17.8661V14.5804C5.8332 14.417 5.89905 14.2603 6.01626 14.1447C6.13348 14.0292 6.29245 13.9643 6.45821 13.9643H10.2083C10.374 13.9643 10.533 14.0292 10.6502 14.1447C10.7674 14.2603 10.8333 14.417 10.8333 14.5804V17.8661ZM18.9584 21.3571H15.2083C15.1531 21.3571 15.1001 21.3355 15.061 21.297C15.0219 21.2585 15 21.2063 15 21.1518V14.5804C15 14.417 15.0658 14.2603 15.183 14.1447C15.3003 14.0292 15.4592 13.9643 15.625 13.9643H18.5417C18.7074 13.9643 18.8664 14.0292 18.9836 14.1447C19.1008 14.2603 19.1667 14.417 19.1667 14.5804V21.1518C19.1667 21.2063 19.1447 21.2585 19.1057 21.297C19.0666 21.3355 19.0136 21.3571 18.9584 21.3571ZM24.8214 7.0992L22.586 2.04279C22.0006 0.80192 20.6636 0 19.1797 0H5.81758C4.33371 0 2.99671 0.80192 2.41129 2.04279L0.175846 7.0992C-0.292909 8.09569 0.326369 9.11888 0.32689 9.1194L0.341473 9.1425C0.366994 9.18254 0.412307 9.24518 0.439912 9.28522C0.442516 9.2883 0.444599 9.2919 0.447204 9.29549L0.707623 9.60609C0.71736 9.61782 0.727796 9.62896 0.738874 9.63946L0.999293 9.88743L1.02117 9.90592C1.1741 10.0351 1.33769 10.1516 1.51024 10.254V10.2566C2.07707 10.595 2.72287 10.7837 3.38526 10.8044H3.51391C4.51614 10.8062 5.48186 10.4336 6.21654 9.76165L6.23373 9.74574C6.31046 9.67447 6.4119 9.63479 6.51733 9.63479C6.62275 9.63479 6.72419 9.67447 6.80092 9.74574L6.81811 9.76165C7.56062 10.4325 8.53125 10.8046 9.53846 10.8046C10.5457 10.8046 11.5163 10.4325 12.2588 9.76165C12.3358 9.69136 12.4369 9.65232 12.5419 9.65232C12.6468 9.65232 12.7479 9.69136 12.825 9.76165C13.5653 10.4304 14.5323 10.8023 15.5365 10.8045C16.5406 10.8066 17.5093 10.4389 18.2526 9.77346C18.3285 9.70418 18.4281 9.66569 18.5315 9.66569C18.635 9.66569 18.7346 9.70418 18.8104 9.77346C19.5545 10.443 20.5275 10.8111 21.535 10.8044H21.6646C22.3104 10.7806 22.9387 10.5912 23.4876 10.255C23.5371 10.2258 23.5845 10.195 23.6324 10.1642C24.0025 9.91817 24.3247 9.60843 24.5834 9.2498L24.674 9.11478C24.6831 9.10109 24.6914 9.08671 24.6991 9.07165C24.7855 8.89812 25.2491 8.00585 24.8214 7.0992Z" fill="#C8C8C8"/>
</svg>
