<svg width="54" height="39" viewBox="0 0 54 39" fill="none" xmlns="http://www.w3.org/2000/svg">
<g filter="url(#filter0_d)">
<path d="M40.0932 34.0001H10.028C7.87099 34.0001 6.12598 32.2048 6.12598 29.9857V11.8338C6.12598 9.6147 7.87099 7.81946 10.028 7.81946H40.0992C42.2563 7.81946 44.0013 9.6147 44.0013 11.8338V29.9857C44.0013 32.1986 42.2502 34.0001 40.0932 34.0001Z" fill="#DAE7F7"/>
<path d="M17.8381 20.7788L19.4741 28.8387C19.5468 29.1878 19.8376 29.4371 20.1769 29.4371H29.8351C30.1744 29.4371 30.4653 29.1878 30.538 28.8387L32.1739 20.7788H17.8381ZM20.7162 28.6579C20.4981 28.6579 20.3224 28.4771 20.3224 28.2527L19.771 22.5366C19.771 22.3122 19.9467 22.1315 20.1648 22.1315C20.3829 22.1315 20.5587 22.3122 20.5587 22.5366L21.11 28.2527C21.11 28.4771 20.9343 28.6579 20.7162 28.6579ZM22.7036 28.6579C22.4855 28.6579 22.3097 28.4771 22.3097 28.2527L22.0916 22.5366C22.0916 22.3122 22.2673 22.1315 22.4855 22.1315C22.7036 22.1315 22.8793 22.3122 22.8793 22.5366L23.0974 28.2527C23.1035 28.4771 22.9217 28.6579 22.7036 28.6579ZM25.3938 28.2527C25.3938 28.4771 25.2181 28.6579 25 28.6579C24.7818 28.6579 24.6061 28.4771 24.6061 28.2527V22.5366C24.6061 22.3122 24.7818 22.1315 25 22.1315C25.2181 22.1315 25.3938 22.3122 25.3938 22.5366V28.2527ZM27.6902 28.2527C27.6902 28.4771 27.5145 28.6579 27.2964 28.6579C27.0782 28.6579 26.9025 28.4771 26.9025 28.2527L27.1207 22.5366C27.1207 22.3122 27.2964 22.1315 27.5145 22.1315C27.7326 22.1315 27.9083 22.3122 27.9083 22.5366L27.6902 28.2527ZM29.6776 28.2527C29.6776 28.4771 29.5019 28.6579 29.2837 28.6579C29.0656 28.6579 28.8899 28.4771 28.8899 28.2527L29.4413 22.5366C29.4413 22.3122 29.617 22.1315 29.8351 22.1315C30.0532 22.1315 30.229 22.3122 30.229 22.5366L29.6776 28.2527Z" fill="#FFC676"/>
<path d="M32.2648 21.4271H17.7351C17.3837 21.4271 17.105 21.1341 17.105 20.7788C17.105 20.4172 17.3898 20.1305 17.7351 20.1305H32.2648C32.6162 20.1305 32.8949 20.4235 32.8949 20.7788C32.901 21.1403 32.6162 21.4271 32.2648 21.4271Z" fill="#EBAB51"/>
<path d="M20.7889 20.1742V19.6132C20.7889 18.6782 21.5281 17.9177 22.437 17.9177H27.569C28.4779 17.9177 29.2171 18.6782 29.2171 19.6132V20.1742C29.2171 20.3737 29.3746 20.5357 29.5685 20.5357C29.7624 20.5357 29.9199 20.3737 29.9199 20.1742V19.6132C29.9199 18.273 28.8656 17.1884 27.5629 17.1884H22.4309C21.1282 17.1884 20.0739 18.273 20.0739 19.6132V20.1742C20.0739 20.3737 20.2315 20.5357 20.4253 20.5357C20.6253 20.542 20.7889 20.3799 20.7889 20.1742Z" fill="#FFC676"/>
<path d="M30.3563 12.7189H30.326C28.8597 12.7189 27.6721 11.4972 27.6721 9.98867V7.94409H33.0041V9.98867C33.0102 11.4972 31.8226 12.7189 30.3563 12.7189Z" fill="#00B0B2"/>
<path d="M25.0182 12.7189H24.994C23.5277 12.7189 22.3401 11.4972 22.3401 9.98867V7.94409H27.6721V9.98867C27.6721 11.4972 26.4845 12.7189 25.0182 12.7189Z" fill="#88B2E7"/>
<path d="M19.6862 12.7189H19.662C18.1957 12.7189 17.0081 11.4972 17.0081 9.98867V7.94409H22.3401V9.98867C22.3401 11.4972 21.1525 12.7189 19.6862 12.7189Z" fill="#00B0B2"/>
<path d="M14.3482 12.7189H14.3239C12.8576 12.7189 11.67 11.4972 11.67 9.98867V7.94409H17.002V9.98867C17.002 11.4972 15.8145 12.7189 14.3482 12.7189Z" fill="#88B2E7"/>
<path d="M9.01619 12.7189H8.99195C7.52565 12.7189 6.33807 11.4972 6.33807 9.98867V7.94409H11.6701V9.98867C11.6701 11.4972 10.4825 12.7189 9.01619 12.7189Z" fill="#00B0B2"/>
<path d="M46.3461 12.7189H46.3219C44.8556 12.7189 43.668 11.4972 43.668 9.98867V7.94409H49V9.98867C49 11.4972 47.8124 12.7189 46.3461 12.7189Z" fill="#88B2E7"/>
<path d="M41.0142 12.7189H40.9899C39.5236 12.7189 38.3361 11.4972 38.3361 9.98867V7.94409H43.668V9.98867C43.668 11.4972 42.4805 12.7189 41.0142 12.7189Z" fill="#00B0B2"/>
<path d="M35.6881 12.7189H35.6639C34.1976 12.7189 33.01 11.4972 33.01 9.98867V7.94409H38.342V9.98867C38.342 11.4972 37.1544 12.7189 35.6881 12.7189Z" fill="#88B2E7"/>
<path d="M3.67811 12.7189H3.65388C2.18758 12.7189 1 11.4972 1 9.98867V7.94409H6.33199V9.98867C6.33199 11.4972 5.14441 12.7189 3.67811 12.7189Z" fill="#88B2E7"/>
<path d="M26.9026 1H23.1096L22.3401 7.94409H27.6721L26.9026 1Z" fill="#DAE7F7"/>
<path d="M23.1096 1H19.3166L17.0021 7.94409H22.3401L23.1096 1Z" fill="#02CDCF"/>
<path d="M19.3166 1H15.5236L11.67 7.94409H17.002L19.3166 1Z" fill="#DAE7F7"/>
<path d="M15.5236 1H11.7307L6.33203 7.94409H11.6701L15.5236 1Z" fill="#02CDCF"/>
<path d="M11.7306 1H7.93764L1 7.94409H6.33199L11.7306 1Z" fill="#DAE7F7"/>
<path d="M42.0502 1H38.2573L43.668 7.94409H49L42.0502 1Z" fill="#DAE7F7"/>
<path d="M38.2754 1H34.4824L38.3299 7.94409H43.668L38.2754 1Z" fill="#02CDCF"/>
<path d="M34.4824 1H30.6895L33.0101 7.94409H38.3421L34.4824 1Z" fill="#DAE7F7"/>
<path d="M30.6894 1H26.8964L27.672 7.94409H33.01L30.6894 1Z" fill="#02CDCF"/>
</g>
<defs>
<filter id="filter0_d" x="0" y="0" width="54" height="39.0001" filterUnits="userSpaceOnUse" color-interpolation-filters="sRGB">
<feFlood flood-opacity="0" result="BackgroundImageFix"/>
<feColorMatrix in="SourceAlpha" type="matrix" values="0 0 0 0 0 0 0 0 0 0 0 0 0 0 0 0 0 0 127 0"/>
<feOffset dx="2" dy="2"/>
<feGaussianBlur stdDeviation="1.5"/>
<feColorMatrix type="matrix" values="0 0 0 0 0 0 0 0 0 0 0 0 0 0 0 0 0 0 0.25 0"/>
<feBlend mode="normal" in2="BackgroundImageFix" result="effect1_dropShadow"/>
<feBlend mode="normal" in="SourceGraphic" in2="effect1_dropShadow" result="shape"/>
</filter>
</defs>
</svg>
