<svg width="55" height="56" viewBox="0 0 55 56" fill="none" xmlns="http://www.w3.org/2000/svg">
<line x1="38.6707" y1="20.6237" x2="46.6707" y2="13.6237" stroke="#00B0B2"/>
<path d="M1.5 14C1.5 12.6193 2.61929 11.5 4 11.5H44C45.3807 11.5 46.5 12.6193 46.5 14V52C46.5 53.3807 45.3807 54.5 44 54.5H4C2.61929 54.5 1.5 53.3807 1.5 52V14Z" fill="#F6F6F6" stroke="#9F9FA1" stroke-width="3"/>
<path d="M53.5 17.7472C53.5 26.3076 46.5604 33.2472 38 33.2472C29.4396 33.2472 22.5 26.3076 22.5 17.7472C22.5 9.18678 29.4396 2.2472 38 2.2472C46.5604 2.2472 53.5 9.18678 53.5 17.7472Z" fill="#F6F6F6" stroke="#9F9FA1" stroke-width="3"/>
<path d="M31.5261 17.3039L31.4204 17.1982L31.3143 17.3036L29.8943 18.7136L29.7875 18.8196L29.8939 18.9261L35.4839 24.5161L35.59 24.6221L35.6961 24.5161L41.6961 18.5161L47.6961 12.5161L47.8021 12.41L47.6961 12.3039L46.2861 10.8939L46.18 10.7879L46.074 10.8939L35.5901 21.3679L31.5261 17.3039Z" fill="#9F9FA1" stroke="#9F9FA1" stroke-width="0.3"/>
</svg>
