<svg width="69" height="64" viewBox="0 0 69 64" fill="none" xmlns="http://www.w3.org/2000/svg">
<path d="M15.8 2H67V60H15.8V2Z" fill="#EDFAF1" stroke="#5BC67F" stroke-width="4"/>
<line y1="-2" x2="45.7081" y2="-2" transform="matrix(0.99996 -0.00892671 0.0080022 0.999968 15.0545 18.8901)" stroke="#5BC67F" stroke-width="4"/>
<path d="M16.3091 32.1071L67.7448 32.6607" stroke="#5BC67F" stroke-width="4"/>
<line y1="-2" x2="31.0649" y2="-2" transform="matrix(0.999965 0.00840605 -0.00753546 0.999972 16.3091 47.6072)" stroke="#5BC67F" stroke-width="4"/>
<line y1="-2" x2="15.0548" y2="-2" transform="matrix(0.999954 0.00963357 -0.00815776 0.999967 0 18.8214)" stroke="#5BC67F" stroke-width="4"/>
<path d="M2.50909 16.6071C7.05498 52.4873 10.4463 59.7729 10.1758 58.9306C11.7993 61.2468 13.062 64.4895 16.3091 58.9306" stroke="#5BC67F" stroke-width="4"/>
<line y1="-1.9" x2="8.89365" y2="-1.9" transform="matrix(0.310334 0.950628 -0.946669 0.322208 7 54)" stroke="#5BC67F" stroke-width="3.8"/>
</svg>



