<svg width="50" height="52" viewBox="0 0 50 52" fill="none" xmlns="http://www.w3.org/2000/svg">
<rect x="1.99998" y="3.05882" width="45" height="48.9412" fill="#FFF1F0"/>
<path d="M0.961385 3.19216L48.9999 3.32917" stroke="#FD7160" stroke-width="3"/>
<line y1="-1.5" x2="10.0008" y2="-1.5" transform="matrix(-0.00199219 0.999998 -0.999999 -0.00136319 9.64035 0)" stroke="#FD7160" stroke-width="3"/>
<line y1="-1.5" x2="10.0009" y2="-1.5" transform="matrix(-0.00528439 0.999986 -0.999989 -0.00462514 35.5615 0)" stroke="#FD7160" stroke-width="3"/>
<line x1="2.5" y1="3.05579" x2="2.5" y2="48.8927" stroke="#FD7160" stroke-width="3"/>
<line y1="-1.5" x2="49.9607" y2="-1.5" transform="matrix(0.000183213 1 -1 0.000190469 46 2.03922)" stroke="#FD7160" stroke-width="3"/>
<path d="M1 18.8235H45.9299" stroke="#FD7160" stroke-width="3"/>
<line x1="0.999985" y1="50.5" x2="47.658" y2="50.5" stroke="#FD7160" stroke-width="3"/>
<path d="M27.1055 34.75C26.7279 35.1992 26.2754 35.5605 25.748 35.834C25.2272 36.1074 24.6543 36.2441 24.0293 36.2441C23.209 36.2441 22.4928 36.0423 21.8809 35.6387C21.2754 35.235 20.8066 34.6686 20.4746 33.9395C20.1426 33.2038 19.9766 32.3932 19.9766 31.5078C19.9766 30.5573 20.1556 29.7012 20.5137 28.9395C20.8783 28.1777 21.3926 27.5951 22.0566 27.1914C22.7207 26.7878 23.4954 26.5859 24.3809 26.5859C25.7871 26.5859 26.8939 27.1133 27.7012 28.168C28.515 29.2161 28.9219 30.6484 28.9219 32.4648V32.9922C28.9219 35.7591 28.375 37.7806 27.2812 39.0566C26.1875 40.3262 24.5371 40.9772 22.3301 41.0098H21.9785V39.4863H22.3594C23.8503 39.4603 24.9961 39.0729 25.7969 38.3242C26.5977 37.569 27.0339 36.3776 27.1055 34.75ZM24.3223 34.75C24.9277 34.75 25.4844 34.5645 25.9922 34.1934C26.5065 33.8223 26.8809 33.3633 27.1152 32.8164V32.0938C27.1152 30.9089 26.8581 29.9453 26.3438 29.2031C25.8294 28.4609 25.1784 28.0898 24.3906 28.0898C23.5964 28.0898 22.9583 28.3958 22.4766 29.0078C21.9948 29.6133 21.7539 30.4141 21.7539 31.4102C21.7539 32.3802 21.985 33.181 22.4473 33.8125C22.916 34.4375 23.541 34.75 24.3223 34.75Z" fill="black"/>
</svg>

