<svg width="26" height="38" viewBox="0 0 26 38" fill="none" xmlns="http://www.w3.org/2000/svg">
<path d="M24.6538 35.4743C24.6538 36.3195 19.206 37.0238 12.5116 37.0238C5.79413 37.0238 0.369385 36.343 0.369385 35.4743C0.369385 34.6291 5.81722 33.9248 12.5116 33.9248C19.206 33.9248 24.6538 34.6056 24.6538 35.4743Z" fill="#E6E7E8"/>
<path d="M12.5115 2.74707C7.10985 2.74707 2.70081 7.20773 2.70081 12.7249C2.70081 14.6265 3.23174 16.4812 4.24744 18.1011L4.2936 18.1716C4.40902 18.3594 4.54753 18.5472 4.68603 18.735L4.70912 18.782L9.04891 25.1208L12.4884 30.4501L15.928 25.0973L20.2908 18.782C20.4524 18.5707 20.614 18.3359 20.7525 18.1011L20.7756 18.0542C21.7682 16.4577 22.2991 14.6265 22.2991 12.7249C22.2991 7.20773 17.9132 2.74707 12.5115 2.74707ZM11.7728 19.3924C11.7036 19.7211 11.4266 19.9323 11.1034 19.9323C11.0572 19.9323 11.0111 19.9323 10.9649 19.9089C9.62601 19.6037 8.40256 18.9228 7.43303 17.9368C7.17911 17.6785 7.17911 17.2325 7.43303 16.9742C7.68695 16.716 8.12555 16.716 8.37948 16.9742C9.16433 17.7724 10.1569 18.3359 11.2419 18.5707C11.6112 18.6411 11.8421 19.0167 11.7728 19.3924ZM18.9058 11.6214C18.8365 11.6449 18.7904 11.6449 18.7211 11.6449C18.421 11.6449 18.1671 11.4571 18.0748 11.1519C17.5208 9.22676 16.0203 7.67727 14.1043 7.11382C13.735 7.01991 13.5503 6.6208 13.6426 6.26864C13.735 5.89301 14.1274 5.70519 14.4737 5.7991C16.8051 6.47994 18.675 8.38159 19.3675 10.7763C19.4829 11.1519 19.2751 11.5275 18.9058 11.6214Z" fill="#FCFDFD"/>
<path d="M18.9751 12.8656C18.9751 16.5046 16.0665 19.4627 12.4884 19.4627C12.0037 19.4627 11.542 19.4157 11.1034 19.3218C9.85686 19.0401 8.77191 18.4062 7.89472 17.5376C6.74052 16.3402 6.00183 14.6968 6.00183 12.8891C6.00183 9.25012 8.91042 6.29199 12.4884 6.29199C13.1117 6.29199 13.7119 6.3859 14.289 6.55024C16.4127 7.18412 18.0979 8.87448 18.7211 11.0579C18.8827 11.6213 18.9751 12.2317 18.9751 12.8656Z" fill="#FAAE42"/>
<path d="M12.5115 0.000244141C5.60942 0.000244141 0 5.70519 0 12.7249C0 15.1665 0.69252 17.5377 1.96214 19.5802L2.00831 19.6506C2.1699 19.9089 2.33149 20.1436 2.49307 20.3784L6.80978 26.6703L12.4654 35.4977L18.121 26.6938L22.4377 20.4254C22.6454 20.1671 22.8301 19.8619 23.0378 19.5802L23.084 19.5098C24.3536 17.4672 25.0231 15.1195 25.0231 12.7014C25 5.70519 19.3906 0.000244141 12.5115 0.000244141ZM20.7987 18.0542L20.7756 18.1011C20.614 18.3359 20.4755 18.5707 20.3139 18.782L15.928 25.0973L12.4885 30.4501L9.04893 25.1208L4.70914 18.782L4.68606 18.735C4.54755 18.5472 4.40905 18.3594 4.29363 18.1716L4.24746 18.0777C3.23176 16.4812 2.70083 14.6265 2.70083 12.7014C2.70083 7.20773 7.10988 2.72359 12.5115 2.72359C17.9132 2.72359 22.3222 7.18425 22.3222 12.7014C22.2992 14.603 21.7913 16.4577 20.7987 18.0542Z" fill="#FAAE42"/>
<path d="M11.2652 18.5706C10.1802 18.3359 9.18761 17.7724 8.40276 16.9742C8.14883 16.716 7.71024 16.716 7.45631 16.9742C7.20239 17.2325 7.20239 17.6785 7.45631 17.9368C8.42584 18.9228 9.64929 19.6271 10.9882 19.9088C11.0343 19.9088 11.0805 19.9323 11.1267 19.9323C11.4268 19.9323 11.7269 19.721 11.7961 19.3923C11.8423 19.0167 11.6114 18.6411 11.2652 18.5706Z" fill="#414042"/>
<path d="M14.4969 5.82252C14.1506 5.72861 13.7582 5.91642 13.6659 6.29206C13.5735 6.66769 13.7582 7.04333 14.1275 7.13723C16.0204 7.70069 17.544 9.2267 18.098 11.1753C18.1903 11.4805 18.4443 11.6683 18.7443 11.6683C18.8136 11.6683 18.8598 11.6683 18.929 11.6448C19.2984 11.5509 19.483 11.1518 19.3907 10.7997C18.6982 8.405 16.8284 6.50335 14.4969 5.82252Z" fill="#414042"/>
</svg>
