<svg width="49" height="40" viewBox="0 0 49 40" fill="none" xmlns="http://www.w3.org/2000/svg">
<path fill-rule="evenodd" clip-rule="evenodd" d="M14.9258 12.9759C14.9258 12.9759 16.5771 13.66 17.3319 15.7123C17.3319 15.7123 18.3463 16.2313 19.8797 14.9103C19.8797 14.9103 19.0776 12.9995 19.4079 11.8436C19.4314 11.7964 19.6909 11.3482 19.7145 11.301C19.7145 11.301 19.0776 11.1595 18.9596 11.3718C18.8181 11.6077 18.8653 12.0559 18.5586 12.5277C18.252 12.9995 18.0632 12.2918 17.9689 11.7256C17.8981 11.301 17.733 10.9236 17.733 10.9236L17.2848 11.0179C17.2848 11.0179 17.6622 12.1031 17.4971 12.4805C17.3555 12.8344 16.813 12.0795 16.4119 11.5605C16.176 11.2538 15.8222 11.82 15.8222 11.82C15.8222 11.82 16.8366 12.6928 16.695 13.0231C16.5535 13.3298 15.6571 12.5041 15.6571 12.5041L14.9258 12.9759Z" fill="#99D19A"/>
<path fill-rule="evenodd" clip-rule="evenodd" d="M14.0766 13.5187C14.0766 13.5187 14.4304 13.9905 14.8551 13.8489C15.1617 13.7546 15.3505 13.613 15.3505 13.2356C15.3505 12.9053 15.2325 12.811 15.2325 12.811C15.2325 12.811 15.6335 12.9997 16.011 12.6458C16.3648 12.292 16.0582 11.8438 16.0582 11.8438C16.0582 11.8438 16.7894 11.5135 16.6715 10.9474C16.5771 10.4756 15.8223 10.2868 15.8223 10.2868C15.8223 10.2868 16.3176 9.86223 15.9402 9.31966C15.4448 8.58838 14.6899 9.31966 14.6899 9.31966C14.6899 9.31966 14.3597 8.51761 13.9115 8.61197C13.0151 8.77709 13.251 9.53197 13.251 9.53197C13.251 9.53197 12.9443 9.15453 12.5197 9.43761C11.9535 9.81505 12.3074 10.334 12.614 10.6171C12.614 10.6171 11.3874 10.5227 11.5053 11.3956C11.5997 12.2448 12.4489 12.0325 12.4489 12.0325C12.4489 12.0325 11.2694 12.693 12.1186 13.3771C12.4489 13.6602 13.0386 13.0469 13.0386 13.0469C13.0386 13.0469 12.614 13.9669 13.3217 14.132C14.053 14.3207 14.0766 13.5187 14.0766 13.5187Z" fill="#6FBE70"/>
<path fill-rule="evenodd" clip-rule="evenodd" d="M18.1813 10.782C18.1813 10.782 17.9219 11.3718 18.2757 11.702C18.606 12.0087 18.7947 11.9851 19.1014 11.7728C19.3608 11.5841 19.408 11.3482 19.408 11.3482C19.408 11.3482 19.4552 11.9379 19.927 12.0559C20.4224 12.1738 20.6583 11.5133 20.6583 11.5133C20.6583 11.5133 21.3424 11.9379 21.7434 11.5605C22.0737 11.2302 21.8378 10.4754 21.8378 10.4754C21.8378 10.4754 22.4511 10.6641 22.7106 10.0507C23.0645 9.24869 22.0265 8.9892 22.0265 8.9892C22.0265 8.9892 22.5219 8.37586 22.1916 7.95125C21.6962 7.29073 21.0593 7.88048 21.0593 7.88048C21.0593 7.88048 21.0829 7.40868 20.7526 7.29073C20.1157 7.05483 19.8798 7.52663 19.7855 7.92766C19.7855 7.92766 19.2193 6.84252 18.5352 7.40868C17.9219 7.97484 18.5588 8.56458 18.5588 8.56458C18.5588 8.56458 17.3793 7.92766 17.2378 9.01279C17.1906 9.43741 18.0162 9.60254 18.0162 9.60254C18.0162 9.60254 17.0019 9.74408 17.2613 10.4518C17.5208 11.1831 18.1813 10.782 18.1813 10.782Z" fill="#6FBE70"/>
<path fill-rule="evenodd" clip-rule="evenodd" d="M15.091 9.22514C15.091 9.22514 14.8315 9.81489 15.1853 10.1451C15.5156 10.4518 15.7043 10.4282 16.011 10.2159C16.2704 10.0272 16.3176 9.7913 16.3176 9.7913C16.3176 9.7913 16.3648 10.381 16.8366 10.499C17.332 10.6169 17.5679 9.95643 17.5679 9.95643C17.5679 9.95643 18.252 10.381 18.653 10.0036C18.9833 9.67335 18.7474 8.91848 18.7474 8.91848C18.7474 8.91848 19.3607 9.1072 19.6202 8.49386C19.9741 7.6918 18.9361 7.43232 18.9361 7.43232C18.9361 7.43232 19.4315 6.81898 19.1012 6.39436C18.6058 5.73384 17.9689 6.32359 17.9689 6.32359C17.9689 6.32359 17.9925 5.85179 17.6622 5.73384C17.0253 5.49795 16.7894 5.96974 16.6951 6.37077C16.6951 6.37077 16.1289 5.28564 15.4448 5.85179C14.7843 6.39436 15.4212 6.98411 15.4212 6.98411C15.4212 6.98411 14.2417 6.34718 14.1002 7.43232C14.053 7.85693 14.8786 8.02206 14.8786 8.02206C14.8786 8.02206 13.8643 8.1636 14.1238 8.8713C14.4304 9.62617 15.091 9.22514 15.091 9.22514Z" fill="#65BA67"/>
<path fill-rule="evenodd" clip-rule="evenodd" d="M14.4304 9.93273C14.4304 9.93273 14.0058 10.4753 14.2417 10.8999C14.5012 11.3245 14.6899 11.3481 15.0437 11.2302C15.374 11.1122 15.4919 10.8999 15.4919 10.8999C15.4919 10.8999 15.3504 11.702 15.7986 11.9615C16.2704 12.221 16.7186 11.4425 16.7186 11.4425C16.7186 11.4425 17.2848 12.0794 17.8273 11.7963C18.2755 11.5604 18.2519 10.7348 18.2519 10.7348C18.2519 10.7348 18.8181 11.1122 19.2899 10.5697C19.9032 9.83838 18.9125 9.29581 18.9125 9.29581C18.9125 9.29581 19.6909 8.89478 19.4078 8.28144C19.0304 7.47939 18.2519 7.88042 18.2519 7.88042C18.2519 7.88042 18.4171 7.40862 18.1104 7.19631C17.5442 6.77169 17.1432 7.17272 16.9309 7.57375C16.9309 7.57375 16.6714 6.29989 15.7986 6.67733C14.9494 7.03118 15.4212 7.83324 15.4212 7.83324C15.4212 7.83324 14.454 6.96041 14.0294 7.97478C13.8406 8.39939 14.5719 8.72965 14.5719 8.72965C14.5719 8.72965 13.4868 8.56452 13.534 9.36658C13.6283 10.145 14.4304 9.93273 14.4304 9.93273Z" fill="#85C886"/>
<path fill-rule="evenodd" clip-rule="evenodd" d="M19.4082 11.7493C19.4082 11.7493 19.4554 13.0467 18.6297 14.2262C17.8041 15.4057 17.3087 15.6888 17.3087 15.6888C17.3087 15.6888 18.3231 16.2078 19.8564 14.8867C19.8564 14.8867 19.0544 12.9759 19.3846 11.82" fill="#8BCB8C"/>
<path d="M7.18816 8.77672C7.18816 8.77672 6.71637 7.95107 5.81995 8.1162C5.41893 8.18697 4.28661 8.96543 3.1543 8.3521C2.04557 7.73876 2.70609 6.88953 3.55533 6.86594C4.40456 6.81876 4.40456 6.81876 4.40456 6.81876C4.40456 6.81876 1.50301 7.33773 1.40865 6.0167C1.33788 4.95516 2.58814 5.07311 2.58814 5.07311C2.58814 5.07311 0.158385 4.90798 0.700952 3.51618C1.10198 2.5254 2.75327 3.75207 2.75327 3.75207C2.75327 3.75207 1.55019 2.5254 2.80045 2.00642C4.23943 1.41668 4.23943 4.29464 4.23943 4.29464C4.23943 4.29464 4.21584 1.88848 5.51328 2.59617C6.76355 3.28028 5.53687 5.0967 5.53687 5.0967C5.53687 5.0967 6.1738 3.28028 7.07022 4.20028C7.94304 5.12029 7.18817 6.67722 6.90509 6.93671C6.62201 7.1962 8.20253 8.77672 8.32048 9.72031C8.39125 10.6639 7.18816 8.77672 7.18816 8.77672Z" fill="#61B863"/>
<path d="M2.84759 2.47828C2.75323 2.50187 2.70605 2.61982 2.72964 2.73777C2.72964 2.73777 3.08349 3.68137 3.31939 4.60137C2.09271 3.8465 1.12553 3.44547 1.07835 3.42188C0.98399 3.3747 0.842451 3.42188 0.818861 3.53983C0.771681 3.63419 0.818861 3.77573 0.93681 3.79932C0.9604 3.79932 2.23425 4.34188 3.69682 5.33266C2.96554 5.45061 2.04553 5.75727 1.92758 5.80445C1.80964 5.85163 1.76246 5.96958 1.80964 6.06394C1.85681 6.18189 1.97476 6.22907 2.06912 6.18189C2.51733 6.01676 3.744 5.63932 4.23939 5.6865C4.71119 6.04035 5.20658 6.44138 5.67837 6.866C4.78196 6.91318 3.55529 7.31421 3.39016 7.38498C3.27221 7.43216 3.22503 7.5501 3.27221 7.64446C3.31939 7.76241 3.43734 7.80959 3.5317 7.76241C4.05067 7.57369 5.51324 7.14908 6.12658 7.29062C6.85787 8.06908 7.49479 8.94191 7.87223 9.93268C7.91941 10.027 8.03736 10.0978 8.13172 10.0506C8.20249 10.027 8.24967 9.95627 8.27326 9.8855C8.27326 9.86191 8.27326 9.81473 8.27326 9.79114C7.87223 8.7296 7.18812 7.786 6.43325 7.00754C6.12658 6.3942 6.57479 5.09676 6.7871 4.62496C6.7871 4.60137 6.81069 4.57778 6.81069 4.57778C6.83428 4.48342 6.7871 4.41265 6.69274 4.36547C6.59838 4.31829 6.45684 4.36547 6.43325 4.45983C6.40966 4.50701 5.93786 5.59215 5.93786 6.48856C5.67837 6.25266 5.44247 6.04035 5.18299 5.82804C4.87632 5.28548 5.23017 3.79932 5.39529 3.25675C5.41888 3.1388 5.3717 3.04444 5.25376 2.99726C5.13581 2.97367 5.04145 3.02085 4.99427 3.1388C4.94709 3.30393 4.56965 4.5306 4.64042 5.42702C4.56965 5.37984 4.52247 5.33266 4.4517 5.28548C4.33375 5.19112 4.2158 5.12035 4.09785 5.02599C4.02708 4.97881 3.93272 4.93163 3.86195 4.86086C3.62605 3.79932 3.15426 2.59623 3.15426 2.52546C3.08349 2.47828 2.96554 2.4311 2.84759 2.47828Z" fill="#69BC6B"/>
<path d="M8.08462 8.51725C8.08462 8.51725 8.1318 7.57365 7.28257 7.2198C6.90513 7.07826 5.53692 7.12544 4.89999 6.01672C4.26306 4.908 5.27743 4.53056 6.0323 4.95518C6.76359 5.37979 6.76359 5.37979 6.76359 5.37979C6.76359 5.37979 4.02717 4.27107 4.6405 3.11517C5.13589 2.17157 6.12666 2.95004 6.12666 2.95004C6.12666 2.95004 4.16871 1.51106 5.39538 0.614641C6.2682 -0.022285 7.02308 1.91208 7.02308 1.91208C7.02308 1.91208 6.62205 0.237204 7.96667 0.449512C9.50002 0.709001 7.96667 3.13876 7.96667 3.13876C7.96667 3.13876 9.21694 1.08644 9.94822 2.38388C10.6323 3.63414 8.65078 4.53056 8.65078 4.53056C8.65078 4.53056 10.1605 3.32748 10.42 4.57774C10.6795 5.828 9.19335 6.72442 8.8395 6.81878C8.46206 6.88955 8.98104 9.05981 8.55642 9.93264C8.10821 10.7583 8.08462 8.51725 8.08462 8.51725Z" fill="#69BC6B"/>
<path d="M7.75455 0.874155C7.63661 0.850565 7.54225 0.921334 7.51866 1.03928C7.51866 1.03928 7.32994 2.03006 7.04686 2.92647C6.40993 1.62903 5.82019 0.779795 5.77301 0.732615C5.70224 0.638256 5.58429 0.614666 5.48993 0.685436C5.39557 0.756205 5.37198 0.874155 5.44275 0.968514C5.46634 0.992104 6.2448 2.12442 6.97609 3.72853C6.29198 3.44545 5.34839 3.23314 5.20685 3.18596C5.0889 3.16237 4.99454 3.23314 4.97095 3.35109C4.94736 3.46904 5.01813 3.5634 5.13608 3.58699C5.60788 3.68135 6.83455 4.01161 7.23558 4.31828C7.44789 4.86084 7.6602 5.47418 7.82532 6.08752C7.04686 5.63931 5.77301 5.33264 5.60788 5.30905C5.48993 5.28546 5.39557 5.35623 5.37198 5.47418C5.34839 5.59213 5.41916 5.68649 5.53711 5.71008C6.07967 5.82803 7.54225 6.25265 7.99045 6.70085C8.20276 7.73881 8.27353 8.82394 8.06122 9.86189C8.03763 9.97984 8.1084 10.0742 8.22635 10.0978C8.29712 10.1214 8.36789 10.0742 8.41507 10.027C8.43866 10.0034 8.46225 9.97984 8.46225 9.93266C8.67456 8.82394 8.60379 7.66804 8.39148 6.5829C8.46225 5.8988 9.52379 5.02597 9.94841 4.76648C9.972 4.76648 9.972 4.74289 9.99559 4.7193C10.0428 4.64853 10.0664 4.55417 9.99559 4.4834C9.92482 4.38905 9.80687 4.36546 9.71251 4.43622C9.66533 4.4834 8.69815 5.14392 8.22635 5.8988C8.13199 5.56854 8.03763 5.23828 7.94327 4.93161C7.96686 4.29469 9.07559 3.23314 9.5002 2.8557C9.59456 2.78493 9.59456 2.6434 9.52379 2.57263C9.45302 2.47827 9.31149 2.47827 9.24072 2.54904C9.09918 2.66698 8.15558 3.51622 7.73096 4.31828C7.70738 4.24751 7.68379 4.17674 7.63661 4.10597C7.58943 3.96443 7.51866 3.84648 7.47148 3.70494C7.4243 3.61058 7.40071 3.53981 7.35353 3.44545C7.70737 2.4075 7.96686 1.15723 7.96686 1.08646C7.94327 0.992104 7.8725 0.897745 7.75455 0.874155Z" fill="#61B863"/>
<path d="M7.25918 9.67344C7.25918 9.67344 4.40481 10.9001 5.15969 14.7453C5.93815 18.8027 11.5997 25.8797 15.1854 25.9504C19.5731 26.0448 16.1997 15.4058 14.2654 11.3247C12.7084 8.09292 8.86329 8.32882 7.25918 9.67344Z" fill="#FFCBA8"/>
<path d="M6.55151 13.2355C6.55151 13.2355 7.49511 12.2919 8.6746 12.0088" stroke="#FFD8BE" stroke-width="2.4027" stroke-miterlimit="10" stroke-linecap="round" stroke-linejoin="round"/>
<path d="M10.774 13.6127C10.774 13.6127 11.4582 13.1173 12.0715 13.0938" stroke="#FFD8BE" stroke-width="2.4027" stroke-miterlimit="10" stroke-linecap="round" stroke-linejoin="round"/>
<path d="M8.17944 17.906C8.17944 17.906 9.31176 16.9388 10.1138 16.7029" stroke="#FFD8BE" stroke-width="2.4027" stroke-miterlimit="10" stroke-linecap="round" stroke-linejoin="round"/>
<path d="M12.0244 14.1317C12.0244 14.1317 13.3219 13.3768 14.1475 13.2825" stroke="#FFD8BE" stroke-width="2.4027" stroke-miterlimit="10" stroke-linecap="round" stroke-linejoin="round"/>
<path d="M11.7886 17.4107C11.7886 17.4107 12.7793 16.821 13.1568 16.7974" stroke="#FFD8BE" stroke-width="2.4027" stroke-miterlimit="10" stroke-linecap="round" stroke-linejoin="round"/>
<path d="M10.7032 20.9256C10.7032 20.9256 11.7176 20.0528 12.2838 19.9348" stroke="#FFD8BE" stroke-width="2.4027" stroke-miterlimit="10" stroke-linecap="round" stroke-linejoin="round"/>
<path d="M13.062 24.0868C13.062 24.0868 13.581 23.6386 14.1 23.3792" stroke="#FFD8BE" stroke-width="2.4027" stroke-miterlimit="10" stroke-linecap="round" stroke-linejoin="round"/>
<path d="M14.3359 22.1287C14.3359 22.1287 15.1616 21.3266 16.0816 21.1851" stroke="#FFD8BE" stroke-width="2.4027" stroke-miterlimit="10" stroke-linecap="round" stroke-linejoin="round"/>
<path d="M8.67444 10.664C8.67444 10.664 9.4529 9.88553 10.5852 9.76758" stroke="#FFD8BE" stroke-width="2.4027" stroke-miterlimit="10" stroke-linecap="round" stroke-linejoin="round"/>
<path d="M6.07947 14.9101C6.07947 14.9101 6.59844 14.344 7.37691 14.1553" stroke="#FFD8BE" stroke-width="2.4027" stroke-miterlimit="10" stroke-linecap="round" stroke-linejoin="round"/>
<path opacity="0.6" d="M15.1617 25.9502C19.5494 26.0445 16.1761 15.4055 14.2417 11.3245C14.2417 11.3245 15.9166 18.0004 15.6335 21.303C15.3504 24.464 13.9351 25.6907 13.9351 25.6907L15.1617 25.9502Z" fill="#FFC7A1"/>
<path d="M11.6467 15.9953C11.7647 16.1604 11.7411 16.3727 11.576 16.5143C11.4108 16.6322 11.1985 16.6086 11.057 16.4435C10.939 16.2784 10.9626 16.0661 11.1278 15.9245C11.2929 15.8066 11.5288 15.8537 11.6467 15.9953Z" fill="#FFD8BE"/>
<path d="M15.2084 17.104C15.3263 17.2692 15.3027 17.4815 15.1376 17.623C14.9725 17.741 14.7602 17.7174 14.6186 17.5522C14.5007 17.3871 14.5243 17.1748 14.6894 17.0333C14.8781 16.8917 15.0904 16.9389 15.2084 17.104Z" fill="#FFD8BE"/>
<path d="M11.9771 22.459C12.095 22.6242 12.0714 22.8365 11.9063 22.978C11.7412 23.0959 11.5289 23.0724 11.3873 22.9072C11.2694 22.7421 11.293 22.5298 11.4581 22.3883C11.6232 22.2467 11.8591 22.2939 11.9771 22.459Z" fill="#FFD8BE"/>
<path d="M10.1133 11.3718C10.2312 11.5369 10.2077 11.7492 10.0425 11.8907C9.8774 12.0087 9.66509 11.9851 9.52355 11.82C9.4056 11.6548 9.42919 11.4425 9.59432 11.301C9.75945 11.183 9.99534 11.2302 10.1133 11.3718Z" fill="#FFD8BE"/>
<path opacity="0.2" d="M6.19715 12.0794C6.19715 12.0794 5.65459 14.061 6.12639 15.1933C6.59818 16.3256 7.44742 16.302 7.82486 15.8774C8.50896 15.0989 7.91922 12.9287 8.29665 12.103C8.86281 10.8056 6.45664 10.1922 6.19715 12.0794Z" fill="#FFF3DD"/>
<path fill-rule="evenodd" clip-rule="evenodd" d="M35.3075 12.8106C35.3075 12.8106 36.9588 13.4947 37.7137 15.547C37.7137 15.547 38.728 16.066 40.2614 14.745C40.2614 14.745 39.4593 12.8342 39.7896 11.6783C39.8132 11.6311 40.0726 11.1829 40.0962 11.1357C40.0962 11.1357 39.4593 10.9942 39.3414 11.2065C39.1998 11.4424 39.247 11.8906 38.9403 12.3624C38.6337 12.8342 38.4449 12.1265 38.3506 11.5604C38.2798 11.1357 38.1147 10.7583 38.1147 10.7583L37.6665 10.8527C37.6665 10.8527 38.0439 11.9378 37.8788 12.3152C37.7373 12.6691 37.1947 11.9142 36.7937 11.3952C36.5578 11.0886 36.2039 11.6547 36.2039 11.6547C36.2039 11.6547 37.2183 12.5275 37.0767 12.8578C36.9352 13.1645 36.0388 12.3388 36.0388 12.3388L35.3075 12.8106Z" fill="#99D19A"/>
<path fill-rule="evenodd" clip-rule="evenodd" d="M34.4581 13.3768C34.4581 13.3768 34.8119 13.8486 35.2365 13.7071C35.5432 13.6127 35.7319 13.4712 35.7319 13.0937C35.7319 12.7635 35.614 12.6691 35.614 12.6691C35.614 12.6691 36.015 12.8578 36.3924 12.504C36.7463 12.1501 36.4396 11.7019 36.4396 11.7019C36.4396 11.7019 37.1709 11.3717 37.053 10.8055C36.9586 10.3337 36.2037 10.145 36.2037 10.145C36.2037 10.145 36.6991 9.72038 36.3217 9.17782C35.8263 8.44653 35.0714 9.17782 35.0714 9.17782C35.0714 9.17782 34.7411 8.37576 34.2929 8.47012C33.3965 8.63525 33.6324 9.39013 33.6324 9.39013C33.6324 9.39013 33.3258 9.01269 32.9011 9.29577C32.335 9.6732 32.6888 10.1922 32.9955 10.4753C32.9955 10.4753 31.7688 10.3809 31.8868 11.2537C31.9811 12.103 32.8304 11.8907 32.8304 11.8907C32.8304 11.8907 31.6509 12.5512 32.5001 13.2353C32.8304 13.5184 33.4201 12.905 33.4201 12.905C33.4201 12.905 32.9955 13.825 33.7032 13.9901C34.4345 14.1553 34.4581 13.3768 34.4581 13.3768Z" fill="#6FBE70"/>
<path fill-rule="evenodd" clip-rule="evenodd" d="M38.5861 10.6167C38.5861 10.6167 38.3266 11.2065 38.6804 11.5368C39.0107 11.8434 39.1994 11.8198 39.5061 11.6075C39.7656 11.4188 39.8127 11.1829 39.8127 11.1829C39.8127 11.1829 39.8599 11.7726 40.3317 11.8906C40.8271 12.0085 41.063 11.348 41.063 11.348C41.063 11.348 41.7471 11.7726 42.1481 11.3952C42.4784 11.065 42.2425 10.3101 42.2425 10.3101C42.2425 10.3101 42.8558 10.4988 43.1153 9.88546C43.4692 9.0834 42.4312 8.82392 42.4312 8.82392C42.4312 8.82392 42.9266 8.21058 42.5963 7.78596C42.101 7.12545 41.464 7.71519 41.464 7.71519C41.464 7.71519 41.4876 7.2434 41.1574 7.12545C40.5204 6.88955 40.2845 7.36135 40.1902 7.76237C40.1902 7.76237 39.624 6.67724 38.9399 7.2434C38.2794 7.78596 38.9163 8.37571 38.9163 8.37571C38.9163 8.37571 37.7368 7.73878 37.5953 8.82392C37.5481 9.24853 38.3738 9.41366 38.3738 9.41366C38.3738 9.41366 37.3594 9.5552 37.6189 10.2629C37.9256 11.0178 38.5861 10.6167 38.5861 10.6167Z" fill="#6FBE70"/>
<path fill-rule="evenodd" clip-rule="evenodd" d="M35.4961 9.05986C35.4961 9.05986 35.2366 9.64961 35.5905 9.97987C35.9207 10.2865 36.1094 10.2629 36.4161 10.0506C36.6756 9.86192 36.7228 9.62602 36.7228 9.62602C36.7228 9.62602 36.77 10.2158 37.2418 10.3337C37.7371 10.4517 37.973 9.79115 37.973 9.79115C37.973 9.79115 38.6571 10.2158 39.0582 9.83833C39.3884 9.50807 39.1525 8.75319 39.1525 8.75319C39.1525 8.75319 39.7659 8.94191 40.0254 8.32858C40.3792 7.52652 39.3413 7.26703 39.3413 7.26703C39.3413 7.26703 39.8366 6.6537 39.5064 6.22908C39.011 5.56856 38.3741 6.15831 38.3741 6.15831C38.3741 6.15831 38.3977 5.68651 38.0674 5.56856C37.4305 5.33266 37.1946 5.80446 37.1002 6.20549C37.1002 6.20549 36.5341 5.12035 35.85 5.68651C35.1894 6.22908 35.8264 6.81882 35.8264 6.81882C35.8264 6.81882 34.6469 6.1819 34.5053 7.26703C34.4582 7.69165 35.2838 7.85678 35.2838 7.85678C35.2838 7.85678 34.2694 7.99832 34.5289 8.70601C34.812 9.46089 35.4961 9.05986 35.4961 9.05986Z" fill="#65BA67"/>
<path fill-rule="evenodd" clip-rule="evenodd" d="M34.8354 9.7677C34.8354 9.7677 34.4108 10.3103 34.6467 10.7349C34.9062 11.1595 35.0949 11.1831 35.4487 11.0651C35.779 10.9472 35.897 10.7349 35.897 10.7349C35.897 10.7349 35.7554 11.5369 36.2036 11.7964C36.6754 12.0559 37.1236 11.2774 37.1236 11.2774C37.1236 11.2774 37.6898 11.9144 38.2324 11.6313C38.6806 11.3954 38.657 10.5698 38.657 10.5698C38.657 10.5698 39.2231 10.9472 39.6949 10.4046C40.3083 9.67334 39.3175 9.13077 39.3175 9.13077C39.3175 9.13077 40.096 8.72974 39.8129 8.1164C39.4354 7.31435 38.657 7.71538 38.657 7.71538C38.657 7.71538 38.8221 7.24358 38.5154 7.03127C37.9493 6.60665 37.5482 7.00768 37.3359 7.40871C37.3359 7.40871 37.0764 6.13486 36.2036 6.51229C35.3544 6.86614 35.8262 7.6682 35.8262 7.6682C35.8262 7.6682 34.859 6.79537 34.4344 7.80974C34.2457 8.23435 34.977 8.56461 34.977 8.56461C34.977 8.56461 33.8918 8.39948 33.939 9.20154C34.0334 9.98 34.8354 9.7677 34.8354 9.7677Z" fill="#85C886"/>
<path fill-rule="evenodd" clip-rule="evenodd" d="M39.813 11.6077C39.813 11.6077 39.8602 12.9051 39.0345 14.0846C38.2089 15.2641 37.7135 15.5472 37.7135 15.5472C37.7135 15.5472 38.7279 16.0662 40.2612 14.7451C40.2612 14.7451 39.4592 12.8343 39.7894 11.6784" fill="#8BCB8C"/>
<path fill-rule="evenodd" clip-rule="evenodd" d="M41.2522 13.188C41.2522 13.188 41.1343 14.9572 39.4594 16.349C39.4594 16.349 39.3179 17.4578 41.0635 18.4957C41.0635 18.4957 42.5969 17.1039 43.8 17.0331C43.8707 17.0331 44.3661 17.1275 44.4133 17.1511C44.4133 17.1511 44.3189 16.5142 44.083 16.467C43.8 16.3962 43.3989 16.6085 42.8564 16.467C42.3138 16.3254 42.9271 15.9008 43.4225 15.6649C43.8 15.4762 44.1066 15.1695 44.1066 15.1695L43.8707 14.7921C43.8707 14.7921 42.9507 15.4998 42.5733 15.4762C42.1723 15.4526 42.7384 14.6977 43.0687 14.1552C43.281 13.8485 42.6441 13.6834 42.6441 13.6834C42.6441 13.6834 42.1487 14.9336 41.7948 14.8865C41.441 14.8629 41.9364 13.7306 41.9364 13.7306L41.2522 13.188Z" fill="#99D19A"/>
<path fill-rule="evenodd" clip-rule="evenodd" d="M40.4501 12.5747C40.4501 12.5747 40.1199 13.0465 40.4029 13.424C40.6153 13.6835 40.804 13.825 41.1342 13.6835C41.4409 13.5655 41.4881 13.424 41.4881 13.424C41.4881 13.424 41.4409 13.8722 41.8891 14.1081C42.3373 14.344 42.6676 13.8958 42.6676 13.8958C42.6676 13.8958 43.2337 14.4855 43.7291 14.1789C44.1301 13.943 44.083 13.1645 44.083 13.1645C44.083 13.1645 44.6255 13.4948 45.0502 12.9522C45.5927 12.2445 44.6255 11.7727 44.6255 11.7727C44.6255 11.7727 45.2625 11.2065 45.0502 10.8055C44.6019 10.027 43.965 10.4752 43.965 10.4752C43.965 10.4752 44.2245 10.0742 43.8235 9.76755C43.2809 9.36652 42.9035 9.86191 42.7383 10.2393C42.7383 10.2393 42.4317 9.05986 41.6532 9.43729C40.8747 9.81473 41.3465 10.546 41.3465 10.546C41.3465 10.546 40.3322 9.62601 39.9783 10.664C39.8368 11.065 40.5917 11.4188 40.5917 11.4188C40.5917 11.4188 39.5773 11.3245 39.6481 12.0558C39.6952 12.8106 40.4501 12.5747 40.4501 12.5747Z" fill="#6FBE70"/>
<path fill-rule="evenodd" clip-rule="evenodd" d="M44.4131 15.5704C44.4131 15.5704 43.7762 15.5233 43.5874 15.9479C43.3987 16.3725 43.4931 16.5376 43.7762 16.7499C44.0356 16.9386 44.2715 16.9151 44.2715 16.9151C44.2715 16.9151 43.729 17.151 43.7762 17.6463C43.8233 18.1417 44.531 18.1653 44.531 18.1653C44.531 18.1653 44.3423 18.9438 44.8613 19.2033C45.2859 19.4156 45.9228 18.9438 45.9228 18.9438C45.9228 18.9438 45.9464 19.5807 46.6069 19.6279C47.4798 19.6987 47.3854 18.6371 47.3854 18.6371C47.3854 18.6371 48.1167 18.8966 48.4234 18.4484C48.8952 17.7643 48.1167 17.3397 48.1167 17.3397C48.1167 17.3397 48.5649 17.2217 48.5649 16.8679C48.5885 16.1838 48.0459 16.113 47.6449 16.1838C47.6449 16.1838 48.4705 15.2874 47.7157 14.8156C46.9844 14.3674 46.6305 15.1694 46.6305 15.1694C46.6305 15.1694 46.8428 13.8248 45.7813 14.0843C45.3567 14.1786 45.4746 15.0043 45.4746 15.0043C45.4746 15.0043 45.0028 14.0843 44.4367 14.5561C43.7997 15.0515 44.4131 15.5704 44.4131 15.5704Z" fill="#6FBE70"/>
<path fill-rule="evenodd" clip-rule="evenodd" d="M44.8379 12.1266C44.8379 12.1266 44.201 12.0794 44.0122 12.504C43.8235 12.9286 43.9179 13.0938 44.201 13.3061C44.4605 13.4948 44.6964 13.4712 44.6964 13.4712C44.6964 13.4712 44.1538 13.7071 44.201 14.2025C44.2481 14.6979 44.9558 14.7215 44.9558 14.7215C44.9558 14.7215 44.7671 15.4999 45.2861 15.7594C45.7107 15.9717 46.3476 15.4999 46.3476 15.4999C46.3476 15.4999 46.3712 16.1369 47.0317 16.184C47.9046 16.2548 47.8102 15.1933 47.8102 15.1933C47.8102 15.1933 48.5415 15.4528 48.8482 15.0046C49.32 14.3204 48.5415 13.8958 48.5415 13.8958C48.5415 13.8958 48.9897 13.7779 48.9897 13.424C49.0133 12.7399 48.4707 12.6692 48.0697 12.7399C48.0697 12.7399 48.8953 11.8435 48.1405 11.3717C47.4092 10.9235 47.0553 11.7256 47.0553 11.7256C47.0553 11.7256 47.2676 10.3809 46.2061 10.6404C45.7815 10.7348 45.8994 11.5604 45.8994 11.5604C45.8994 11.5604 45.4276 10.6404 44.8615 11.1122C44.2481 11.6312 44.8379 12.1266 44.8379 12.1266Z" fill="#65BA67"/>
<path fill-rule="evenodd" clip-rule="evenodd" d="M43.965 11.7256C43.965 11.7256 43.3281 11.4897 42.9979 11.8671C42.6912 12.2445 42.7148 12.4333 42.9507 12.7399C43.163 13.023 43.3989 13.0466 43.3989 13.0466C43.3989 13.0466 42.5968 13.1645 42.4789 13.6835C42.3845 14.2025 43.2809 14.3912 43.2809 14.3912C43.2809 14.3912 42.8563 15.1461 43.3045 15.5471C43.682 15.901 44.4604 15.5943 44.4604 15.5943C44.4604 15.5943 44.2953 16.2548 44.9558 16.5143C45.8286 16.8446 46.041 15.7358 46.041 15.7358C46.041 15.7358 46.6543 16.3256 47.1733 15.8538C47.8102 15.2404 47.1733 14.6271 47.1733 14.6271C47.1733 14.6271 47.6687 14.6271 47.7866 14.2733C47.9989 13.5892 47.4799 13.3533 47.0553 13.2825C47.0553 13.2825 48.164 12.622 47.5507 11.9143C46.9374 11.2302 46.324 11.9379 46.324 11.9379C46.324 11.9379 46.843 10.7348 45.7343 10.664C45.2625 10.6404 45.2153 11.4189 45.2153 11.4189C45.2153 11.4189 45.003 10.3573 44.2717 10.664C43.4932 11.0415 43.965 11.7256 43.965 11.7256Z" fill="#85C886"/>
<path fill-rule="evenodd" clip-rule="evenodd" d="M43.8707 17.0332C43.8707 17.0332 42.6676 17.505 41.2758 17.1276C39.884 16.7266 39.4594 16.3491 39.4594 16.3491C39.4594 16.3491 39.3179 17.4578 41.0635 18.4958C41.0635 18.4958 42.5969 17.104 43.8 17.0332" fill="#8BCB8C"/>
<path fill-rule="evenodd" clip-rule="evenodd" d="M23.5358 10.5931C23.5358 10.5931 24.4558 12.1265 23.866 14.2024C23.866 14.2024 24.385 15.1932 26.4137 15.0516C26.4137 15.0516 26.8855 13.0465 27.8291 12.2916C27.8763 12.2444 28.3481 12.0557 28.3953 12.0321C28.3953 12.0321 27.9707 11.5603 27.7348 11.6547C27.4753 11.7726 27.263 12.1501 26.7204 12.3624C26.1778 12.5511 26.4609 11.867 26.7204 11.3716C26.9327 10.9942 27.0035 10.5695 27.0035 10.5695L26.5789 10.3808C26.5789 10.3808 26.225 11.4895 25.8948 11.6783C25.5645 11.8906 25.5881 10.947 25.5645 10.3101C25.5645 9.93261 24.9512 10.1685 24.9512 10.1685C24.9512 10.1685 25.2578 11.466 24.9512 11.6547C24.6445 11.8198 24.4086 10.6403 24.4086 10.6403L23.5358 10.5931Z" fill="#99D19A"/>
<path fill-rule="evenodd" clip-rule="evenodd" d="M22.5452 10.5459C22.5452 10.5459 22.5452 11.1357 22.9934 11.2772C23.3001 11.3716 23.536 11.3716 23.7483 11.0885C23.937 10.829 23.8898 10.6639 23.8898 10.6639C23.8898 10.6639 24.1021 11.0649 24.5975 10.9941C25.0929 10.9234 25.1165 10.3808 25.1165 10.3808C25.1165 10.3808 25.9186 10.5459 26.1545 10.027C26.3668 9.60235 25.8478 8.98901 25.8478 8.98901C25.8478 8.98901 26.4847 8.94183 26.5083 8.28131C26.5555 7.40849 25.4939 7.55003 25.4939 7.55003C25.4939 7.55003 25.7063 6.72438 25.2816 6.51207C24.456 6.11104 24.1965 6.86592 24.1965 6.86592C24.1965 6.86592 24.1729 6.39412 23.6539 6.37053C22.9698 6.34694 22.9462 6.96028 23.017 7.3849C23.017 7.3849 22.097 6.58284 21.6488 7.33772C21.2242 8.09259 22.0262 8.42285 22.0262 8.42285C22.0262 8.42285 20.6816 8.23413 20.9647 9.31927C21.0826 9.74388 21.9083 9.57876 21.9083 9.57876C21.9083 9.57876 21.0119 10.0741 21.5073 10.6403C22.0498 11.1829 22.5452 10.5459 22.5452 10.5459Z" fill="#6FBE70"/>
<path fill-rule="evenodd" clip-rule="evenodd" d="M27.4757 10.7581C27.4757 10.7581 26.9331 11.0884 27.0039 11.5366C27.0983 11.9848 27.2634 12.0792 27.6172 12.0792C27.9475 12.0792 28.1126 11.9376 28.1126 11.9376C28.1126 11.9376 27.8059 12.433 28.1126 12.8105C28.4429 13.1879 29.009 12.8105 29.009 12.8105C29.009 12.8105 29.3157 13.5653 29.8819 13.4946C30.3537 13.4238 30.5896 12.6689 30.5896 12.6689C30.5896 12.6689 30.967 13.1879 31.5567 12.834C32.3116 12.3858 31.6275 11.5838 31.6275 11.5838C31.6275 11.5838 32.3824 11.3951 32.3824 10.8289C32.3824 10.0033 31.486 10.0976 31.486 10.0976C31.486 10.0976 31.7926 9.74377 31.5803 9.4371C31.2029 8.87095 30.7311 9.10684 30.4244 9.38992C30.4244 9.38992 30.5896 8.18684 29.7167 8.23402C28.8675 8.2812 29.0326 9.15402 29.0326 9.15402C29.0326 9.15402 28.4429 7.92735 27.7116 8.72941C27.4049 9.05966 27.9947 9.64941 27.9947 9.64941C27.9947 9.64941 27.0983 9.17761 26.8859 9.88531C26.6972 10.6874 27.4757 10.7581 27.4757 10.7581Z" fill="#6FBE70"/>
<path fill-rule="evenodd" clip-rule="evenodd" d="M25.895 7.69173C25.895 7.69173 25.3524 8.02199 25.4232 8.47019C25.5176 8.9184 25.6827 9.01276 26.0365 9.01276C26.3668 9.01276 26.5319 8.87122 26.5319 8.87122C26.5319 8.87122 26.2253 9.36661 26.5319 9.74405C26.8622 10.1215 27.4283 9.74405 27.4283 9.74405C27.4283 9.74405 27.735 10.4989 28.3012 10.4282C28.773 10.3574 29.0089 9.60251 29.0089 9.60251C29.0089 9.60251 29.3863 10.1215 29.9761 9.76764C30.7309 9.31943 30.0468 8.51737 30.0468 8.51737C30.0468 8.51737 30.8017 8.32865 30.8017 7.7625C30.8017 6.93685 29.9053 7.03121 29.9053 7.03121C29.9053 7.03121 30.2119 6.67736 29.9996 6.3707C29.6222 5.80454 29.1504 6.04044 28.8437 6.32352C28.8437 6.32352 29.0089 5.12043 28.136 5.16761C27.2868 5.21479 27.4519 6.08762 27.4519 6.08762C27.4519 6.08762 26.8622 4.86094 26.1309 5.663C25.8242 5.99326 26.414 6.583 26.414 6.583C26.414 6.583 25.5176 6.11121 25.3053 6.8189C25.1165 7.62096 25.895 7.69173 25.895 7.69173Z" fill="#65BA67"/>
<path fill-rule="evenodd" clip-rule="evenodd" d="M24.9516 7.85682C24.9516 7.85682 24.291 8.02195 24.2439 8.51734C24.1967 9.01273 24.3382 9.13068 24.7157 9.24863C25.0459 9.36658 25.2582 9.24863 25.2582 9.24863C25.2582 9.24863 24.6685 9.81478 24.8808 10.3102C25.0931 10.8056 25.9423 10.4281 25.9423 10.4281C25.9423 10.4281 26.0131 11.2774 26.6264 11.3717C27.1218 11.4425 27.5936 10.7584 27.5936 10.7584C27.5936 10.7584 27.8295 11.3953 28.5136 11.2302C29.4336 10.9943 28.9618 9.97991 28.9618 9.97991C28.9618 9.97991 29.8111 10.1215 29.9526 9.43735C30.1177 8.56452 29.2685 8.44657 29.2685 8.44657C29.2685 8.44657 29.6695 8.16349 29.5752 7.80964C29.3629 7.12554 28.7967 7.2199 28.4193 7.43221C28.4193 7.43221 28.9618 6.25271 28.0418 6.0404C27.1454 5.8281 27.0511 6.77169 27.0511 6.77169C27.0511 6.77169 26.7916 5.49784 25.848 6.06399C25.4469 6.29989 25.848 6.984 25.848 6.984C25.848 6.984 25.0695 6.22912 24.6449 6.88964C24.1731 7.55016 24.9516 7.85682 24.9516 7.85682Z" fill="#85C886"/>
<path fill-rule="evenodd" clip-rule="evenodd" d="M27.8764 12.2678C27.8764 12.2678 27.1687 13.353 25.8005 13.8012C24.4322 14.273 23.8661 14.2022 23.8661 14.2022C23.8661 14.2022 24.3851 15.193 26.4138 15.0514C26.4138 15.0514 26.8856 13.0463 27.8292 12.2914" fill="#8BCB8C"/>
<path d="M42.2664 7.2671C41.3228 6.96043 39.9546 6.7953 38.8931 8.28147C37.6192 10.0979 36.652 11.7492 35.3546 12.7871C34.0571 13.8251 31.7453 17.0097 33.5382 20.4538C35.331 23.898 39.4828 24.0867 41.1105 23.6856C44.2716 22.9308 45.7577 19.8405 44.8613 15.5943C44.2244 12.5984 44.4367 11.8907 44.5782 10.8056C44.7198 9.53173 44.2244 7.88044 42.2664 7.2671Z" fill="#CDE9CE" stroke="#CDE38E" stroke-width="2.1298" stroke-miterlimit="10"/>
<path d="M42.2664 18.661C41.7239 20.4538 39.8131 21.4918 37.9967 20.9256C36.2038 20.383 35.1659 18.4723 35.732 16.6558C36.2746 14.863 38.1854 13.8251 40.0018 14.3912C41.7946 14.9574 42.809 16.8682 42.2664 18.661Z" fill="#FAAE42"/>
<path d="M42.0067 16.0659C42.1011 16.5613 42.0539 17.1039 41.9124 17.6228C41.3698 19.4157 39.459 20.4536 37.6426 19.8875C36.7462 19.6044 36.0385 18.9911 35.6375 18.2362C35.8498 19.4864 36.7226 20.548 38.02 20.949C39.8129 21.4916 41.7236 20.4772 42.2898 18.6844C42.5257 17.7644 42.4077 16.8444 42.0067 16.0659Z" fill="#FFAA71"/>
<path opacity="0.2" d="M38.1855 16.2547C37.8788 16.4906 37.4542 16.4906 37.2655 16.2311C37.0768 15.9717 37.1711 15.5706 37.4778 15.3347C37.7845 15.0988 38.2091 15.0988 38.3978 15.3583C38.5865 15.6178 38.4922 16.0188 38.1855 16.2547Z" fill="#FFEAC2"/>
<path opacity="0.2" d="M33.2314 20.4772C35.0242 23.9214 39.4827 24.3224 41.134 23.945C44.295 23.1901 45.9935 19.8167 45.0971 15.5706C45.0971 15.5706 43.5166 20.2178 41.134 21.3737C37.2653 23.2373 33.1842 20.4537 33.1842 20.4537" fill="#65BA67"/>
<g opacity="0.2">
<path opacity="0.2" d="M36.8171 13.4475C36.7463 13.4239 36.6755 13.3768 36.6283 13.306C36.4868 13.1409 36.5104 12.8814 36.6991 12.7398C37.454 12.1265 38.0909 11.2065 38.7986 10.1449C38.9637 9.88545 39.1525 9.62596 39.3412 9.34288C39.8837 8.56442 40.615 8.18698 41.5114 8.23416C41.7238 8.25775 41.9125 8.44647 41.8889 8.65878C41.8653 8.87109 41.6766 9.05981 41.4643 9.03622C40.8509 8.98904 40.3791 9.24853 40.0017 9.79109C39.813 10.0506 39.6243 10.3337 39.4591 10.5696C38.7043 11.6783 38.0437 12.6455 37.1945 13.3296C37.0766 13.4711 36.935 13.4947 36.8171 13.4475Z" fill="#FFEAC2"/>
</g>
<path fill-rule="evenodd" clip-rule="evenodd" d="M26.1543 16.2075C26.1543 16.2075 26.5317 17.9532 25.3051 19.746C25.3051 19.746 25.4702 20.8547 27.4281 21.3737C27.4281 21.3737 28.5133 19.628 29.6692 19.2034C29.7164 19.1798 30.2353 19.1327 30.2825 19.1327C30.2825 19.1327 30.023 18.5429 29.7871 18.5665C29.5041 18.5901 29.1738 18.8968 28.6076 18.8968C28.0415 18.9204 28.5133 18.3542 28.9143 17.9532C29.221 17.6701 29.4333 17.2927 29.4333 17.2927L29.0794 16.986C29.0794 16.986 28.3953 17.9296 28.0179 18.0003C27.6405 18.0947 27.9471 17.1983 28.1358 16.585C28.2538 16.2311 27.5933 16.2547 27.5933 16.2547C27.5933 16.2547 27.4517 17.5757 27.1215 17.6465C26.7912 17.7173 26.9328 16.5142 26.9328 16.5142L26.1543 16.2075Z" fill="#99D19A"/>
<path fill-rule="evenodd" clip-rule="evenodd" d="M25.2107 15.8301C25.2107 15.8301 25.022 16.3727 25.3994 16.6558C25.6589 16.8445 25.8948 16.9152 26.1779 16.7029C26.4374 16.5142 26.461 16.3491 26.461 16.3491C26.461 16.3491 26.5553 16.7973 27.0271 16.8917C27.5225 16.986 27.7112 16.467 27.7112 16.467C27.7112 16.467 28.4189 16.8681 28.7964 16.467C29.1266 16.1368 28.8436 15.3819 28.8436 15.3819C28.8436 15.3819 29.4569 15.547 29.7164 14.9101C30.0466 14.0845 28.9851 13.8957 28.9851 13.8957C28.9851 13.8957 29.4569 13.1645 29.103 12.8342C28.4661 12.1973 27.9707 12.8106 27.9707 12.8106C27.9707 12.8106 28.1123 12.3388 27.6169 12.1737C26.98 11.9378 26.7677 12.5039 26.6969 12.9286C26.6969 12.9286 26.0835 11.867 25.423 12.4568C24.7861 13.0229 25.4466 13.5891 25.4466 13.5891C25.4466 13.5891 24.2199 12.9993 24.1492 14.0845C24.1256 14.5091 24.9512 14.627 24.9512 14.627C24.9512 14.627 23.9369 14.8157 24.2199 15.4998C24.5502 16.2783 25.2107 15.8301 25.2107 15.8301Z" fill="#6FBE70"/>
<path fill-rule="evenodd" clip-rule="evenodd" d="M29.8341 17.6229C29.8341 17.6229 29.1972 17.7644 29.15 18.2127C29.0792 18.6609 29.2208 18.8024 29.551 18.9203C29.8577 19.0383 30.07 18.9439 30.07 18.9439C30.07 18.9439 29.6218 19.3214 29.7869 19.7932C29.9756 20.265 30.6598 20.0763 30.6598 20.0763C30.6598 20.0763 30.7069 20.8783 31.2731 20.9963C31.7449 21.0906 32.2167 20.4537 32.2167 20.4537C32.2167 20.4537 32.4054 21.067 33.0659 20.9255C33.9387 20.7368 33.5377 19.7696 33.5377 19.7696C33.5377 19.7696 34.3162 19.8168 34.4813 19.2978C34.7408 18.5193 33.868 18.3306 33.868 18.3306C33.868 18.3306 34.269 18.0947 34.1746 17.7409C34.0095 17.0803 33.467 17.1511 33.0895 17.3398C33.0895 17.3398 33.6321 16.2547 32.7828 16.0188C31.9572 15.7829 31.8393 16.6557 31.8393 16.6557C31.8393 16.6557 31.6741 15.3111 30.7305 15.8301C30.3531 16.0424 30.7069 16.7973 30.7069 16.7973C30.7069 16.7973 29.9992 16.0424 29.5746 16.6557C29.1028 17.2926 29.8341 17.6229 29.8341 17.6229Z" fill="#6FBE70"/>
<path fill-rule="evenodd" clip-rule="evenodd" d="M29.3156 14.2025C29.3156 14.2025 28.6786 14.344 28.6315 14.7922C28.5607 15.2404 28.7022 15.382 29.0325 15.4999C29.3391 15.6179 29.5515 15.5235 29.5515 15.5235C29.5515 15.5235 29.1032 15.901 29.2684 16.3728C29.4571 16.8446 30.1412 16.6558 30.1412 16.6558C30.1412 16.6558 30.1884 17.4579 30.7545 17.5758C31.2263 17.6702 31.6981 17.0333 31.6981 17.0333C31.6981 17.0333 31.8869 17.6466 32.5474 17.5051C33.4202 17.3164 33.0192 16.3492 33.0192 16.3492C33.0192 16.3492 33.7976 16.3964 33.9628 15.8774C34.2223 15.0989 33.3494 14.9102 33.3494 14.9102C33.3494 14.9102 33.7505 14.6743 33.6561 14.3204C33.491 13.6599 32.9484 13.7307 32.571 13.9194C32.571 13.9194 33.1135 12.8343 32.2643 12.5984C31.4386 12.3625 31.3207 13.2353 31.3207 13.2353C31.3207 13.2353 31.1556 11.8907 30.212 12.4097C29.8345 12.622 30.1884 13.3769 30.1884 13.3769C30.1884 13.3769 29.4807 12.622 29.0561 13.2353C28.5843 13.8722 29.3156 14.2025 29.3156 14.2025Z" fill="#65BA67"/>
<path fill-rule="evenodd" clip-rule="evenodd" d="M28.3482 14.061C28.3482 14.061 27.6641 14.0138 27.4517 14.462C27.2394 14.9102 27.3574 15.0753 27.6641 15.3112C27.9471 15.5235 28.183 15.4764 28.183 15.4764C28.183 15.4764 27.4282 15.8302 27.4753 16.3492C27.5225 16.8918 28.4425 16.7974 28.4425 16.7974C28.4425 16.7974 28.2538 17.623 28.7964 17.9061C29.2446 18.142 29.9051 17.623 29.9051 17.623C29.9051 17.623 29.9287 18.3071 30.6364 18.3543C31.58 18.4251 31.462 17.3164 31.462 17.3164C31.462 17.3164 32.2405 17.7174 32.5707 17.1277C33.019 16.3728 32.2405 15.9482 32.2405 15.9482C32.2405 15.9482 32.7123 15.8066 32.7359 15.4292C32.7595 14.7215 32.1933 14.6271 31.7451 14.6979C31.7451 14.6979 32.6415 13.7543 31.8395 13.2589C31.061 12.7871 30.6836 13.6364 30.6836 13.6364C30.6836 13.6364 30.8487 12.3389 29.7636 12.5748C29.3153 12.6692 29.4805 13.4476 29.4805 13.4476C29.4805 13.4476 28.9851 12.4805 28.3718 12.9758C27.7112 13.5184 28.3482 14.061 28.3482 14.061Z" fill="#85C886"/>
<path fill-rule="evenodd" clip-rule="evenodd" d="M29.7164 19.1797C29.7164 19.1797 28.702 19.9582 27.263 19.9817C25.824 19.9817 25.3051 19.7458 25.3051 19.7458C25.3051 19.7458 25.4702 20.8546 27.4281 21.3735C27.4281 21.3735 28.5133 19.6279 29.6692 19.2033" fill="#8BCB8C"/>
<path d="M15.4919 13.353C15.4919 13.353 11.0334 19.7459 15.1852 23.2372C20.6345 27.8136 25.1637 20.1233 25.1637 20.1233L15.4919 13.353Z" fill="#FAAE42"/>
<path d="M23.5362 12.952C26.0132 15.0751 26.6265 18.4485 24.8808 20.4772C23.1352 22.5059 19.7147 22.4352 17.2377 20.3121C14.7608 18.189 14.1474 14.8156 15.8931 12.7869C17.6152 10.7582 21.0593 10.8289 23.5362 12.952Z" fill="#B1DCB2"/>
<path d="M21.4603 15.3819C22.3095 16.1132 22.5218 17.2455 21.9085 17.9532C21.3187 18.6373 20.1628 18.6137 19.3136 17.906C18.4643 17.1747 18.252 16.0424 18.8654 15.3347C19.4551 14.627 20.611 14.6506 21.4603 15.3819Z" fill="#DFF1DF"/>
<path d="M18.7706 14.6978C18.865 14.627 18.8414 14.4855 18.7942 14.2967C18.7234 14.0844 18.4167 13.6834 18.1337 13.8721C17.8742 14.0608 17.945 14.2732 18.1101 14.4855C18.2752 14.6506 18.6055 14.8629 18.7706 14.6978Z" fill="#37A539"/>
<path d="M18.1103 15.6885C18.1575 15.5941 18.1103 15.4761 17.9688 15.311C17.8272 15.1459 17.379 14.8864 17.2139 15.1459C17.0488 15.4054 17.1903 15.5941 17.4262 15.712C17.6385 15.83 18.0159 15.9008 18.1103 15.6885Z" fill="#37A539"/>
<path d="M18.2046 16.7736C18.181 16.6557 18.0867 16.5849 17.8744 16.5377C17.662 16.467 17.1431 16.4905 17.1431 16.8208C17.1431 17.1275 17.379 17.1982 17.6385 17.1747C17.8744 17.1511 18.2282 17.0095 18.2046 16.7736Z" fill="#37A539"/>
<path d="M18.4879 17.7645C18.4172 17.6701 18.2992 17.6701 18.0869 17.7409C17.8746 17.7881 17.45 18.0947 17.6387 18.3778C17.8038 18.6373 18.0397 18.5665 18.252 18.4014C18.4172 18.2599 18.6295 17.9532 18.4879 17.7645Z" fill="#37A539"/>
<path d="M19.3131 18.59C19.2188 18.5428 19.1008 18.59 18.9357 18.7315C18.7706 18.873 18.4875 19.2977 18.7706 19.4864C19.0301 19.6515 19.2188 19.51 19.3603 19.2741C19.4311 19.0618 19.5019 18.6843 19.3131 18.59Z" fill="#37A539"/>
<path d="M20.4223 18.9674C20.3044 18.9438 20.21 19.0382 20.0921 19.2269C19.9741 19.4156 19.8562 19.911 20.1864 20.0054C20.4931 20.0762 20.6111 19.8874 20.6582 19.6279C20.7054 19.3685 20.6582 18.991 20.4223 18.9674Z" fill="#37A539"/>
<path d="M21.4834 18.8732C21.3891 18.9204 21.3655 19.0383 21.3655 19.2742C21.3655 19.4865 21.5778 19.9819 21.8845 19.864C22.1675 19.746 22.1675 19.5101 22.0496 19.2742C21.9552 19.0619 21.6957 18.7788 21.4834 18.8732Z" fill="#37A539"/>
<path d="M22.2623 18.354C22.2151 18.4484 22.2623 18.5663 22.4039 18.7315C22.5454 18.8966 22.9936 19.1797 23.1587 18.8966C23.3239 18.6371 23.1823 18.4484 22.9464 18.3304C22.7341 18.2125 22.3567 18.1653 22.2623 18.354Z" fill="#37A539"/>
<path d="M22.6869 17.1746C22.6633 17.2925 22.7341 17.3869 22.9228 17.5048C23.0879 17.6464 23.6069 17.7879 23.7012 17.4577C23.7956 17.1746 23.6069 17.0095 23.3474 16.9623C23.1115 16.9151 22.7341 16.9623 22.6869 17.1746Z" fill="#37A539"/>
<path d="M22.7103 16.1367C22.7339 16.2546 22.8518 16.3018 23.0877 16.3254C23.3 16.349 23.819 16.2546 23.7483 15.9244C23.7011 15.6177 23.4652 15.5705 23.2057 15.6649C22.9698 15.712 22.6395 15.9008 22.7103 16.1367Z" fill="#37A539"/>
<path d="M22.0025 15.3108C22.0733 15.3816 22.2148 15.3816 22.4036 15.3108C22.6159 15.2401 23.0169 14.9098 22.8046 14.6503C22.6159 14.4144 22.38 14.4852 22.1912 14.6503C22.0261 14.8154 21.8374 15.1457 22.0025 15.3108Z" fill="#37A539"/>
<path d="M21.0592 14.5325C21.1535 14.5797 21.2715 14.509 21.4366 14.3674C21.6017 14.2259 21.8612 13.7777 21.5781 13.5889C21.3187 13.4238 21.1299 13.5889 21.012 13.8248C20.9176 14.0607 20.8469 14.4382 21.0592 14.5325Z" fill="#37A539"/>
<path d="M19.8321 14.2965C19.9501 14.2965 20.0208 14.2021 20.1152 13.9898C20.2096 13.8011 20.2331 13.2821 19.9029 13.2349C19.5962 13.2114 19.5019 13.4237 19.4783 13.6832C19.5019 13.9191 19.5962 14.2965 19.8321 14.2965Z" fill="#37A539"/>
<path d="M29.9523 39.5615H22.0497C20.6107 39.5615 19.4548 38.4056 19.4548 36.9666V36.2825H32.5236V36.9666C32.5472 38.4056 31.3677 39.5615 29.9523 39.5615Z" fill="white"/>
<path d="M19.5021 36.7544V37.4385C19.5021 37.9339 19.9739 38.5472 20.1862 38.7831C20.1862 38.7831 25.1165 38.7359 25.9893 38.7359C26.8385 38.7359 31.8632 38.6888 31.8632 38.6888C32.1462 38.3585 32.4529 37.8867 32.4529 37.4385V36.7544H19.5021Z" fill="#FFF7F1"/>
<path d="M46.5126 19.7224H5.70215C5.70215 25.4547 8.08473 30.6445 11.8827 34.3481C14.4304 36.8251 17.8745 38.1697 21.413 38.1697H30.8254C34.3638 38.1697 37.7844 36.8251 40.3321 34.3717C44.1536 30.6445 46.5126 25.4547 46.5126 19.7224Z" fill="white"/>
<path d="M28.4664 38.1697C32.1228 38.2876 35.2838 38.2405 39.0346 35.504C42.9977 32.2486 45.7106 27.5307 46.3475 22.1758H46.3711C46.3947 21.8927 46.4183 21.5388 46.4418 21.1614C46.4654 20.9255 46.4654 20.666 46.489 20.4301C46.489 20.1706 46.5126 19.9111 46.5126 19.7224H37.9023H5.70215C5.70215 20.6188 5.74933 21.5152 5.86728 22.3645L37.5013 22.2229C35.9208 30.1255 31.3207 35.504 28.4664 38.1697Z" fill="#FFF7F1"/>
<path d="M47.1493 20.8783H4.85262C4.40442 20.8783 4.02698 20.5009 4.02698 20.0527C4.02698 19.6045 4.40442 19.2271 4.85262 19.2271H47.1257C47.5739 19.2271 47.9513 19.6045 47.9513 20.0527C47.9749 20.5009 47.5975 20.8783 47.1493 20.8783Z" fill="white"/>
</svg>
