<svg width="72" height="50" viewBox="0 0 72 50" fill="none" xmlns="http://www.w3.org/2000/svg">
<rect x="1.5" y="1.5" width="69" height="47" fill="#EDFAF1" stroke="#4ECF75" stroke-width="3"/>
<path d="M61.7727 15.2174C61.7727 17.7776 59.2561 20.2391 55.6364 20.2391C52.0166 20.2391 49.5 17.7776 49.5 15.2174C49.5 12.6572 52.0166 10.1956 55.6364 10.1956C59.2561 10.1956 61.7727 12.6572 61.7727 15.2174Z" fill="#EDFAF1" stroke="#4ECF75" stroke-width="3"/>
<path d="M2.78825 34.2991C4.92953 32.1656 7.73521 27.9948 10.8921 27.5455C12.2783 27.3482 13.3963 25.3773 14.744 25.3773C15.3822 25.3773 15.8063 26.2588 15.8445 26.7729C15.9576 28.2936 17.2066 28.9446 17.8205 30.2619C18.5595 31.8479 19.0258 33.406 20.3717 34.5234C21.1493 35.1691 25.6066 38.5944 26.3996 38.137C30.5615 35.7362 31.9703 28.9161 37.0046 28.9161C40.1401 28.9161 43.381 32.1879 45.7838 34.0499C47.9821 35.7535 51.7317 35.601 54.3129 36.0686C55.8122 36.3402 56.5723 36.7498 57.7146 37.8878C59.2661 39.4338 63.2984 41.4415 63.5674 43.7194C63.7009 44.8502 67.7579 45.0039 68.6198 45.8627C69.187 46.4278 69.8527 47.506 70.3206 48.2053" stroke="#4ECF75" stroke-width="2" stroke-linecap="round" stroke-linejoin="round"/>
</svg>


