<svg width="45" height="45" viewBox="0 0 45 45" fill="none" xmlns="http://www.w3.org/2000/svg">
<path d="M39.431 28.125H16.5291L17.0404 30.9375H38.0106C39.2138 30.9375 40.1056 32.1944 39.8389 33.5144L39.4079 35.648C40.8681 36.4454 41.875 38.1294 41.875 40.0781C41.875 42.8205 39.8813 45.039 37.4356 44.9995C35.1057 44.9618 33.1895 42.8346 33.1266 40.2141C33.0923 38.7826 33.602 37.4852 34.4394 36.5624H18.0606C18.8713 37.4559 19.375 38.7005 19.375 40.0781C19.375 42.8742 17.3025 45.1258 14.7914 44.9945C12.5617 44.8781 10.7484 42.8513 10.6312 40.3436C10.5407 38.4071 11.4465 36.7001 12.8227 35.8097L7.33461 5.625H1.875C0.839453 5.625 0 4.68061 0 3.51562V2.10937C0 0.944385 0.839453 0 1.875 0H9.88508C10.7758 0 11.5435 0.704971 11.722 1.68662L12.4381 5.625H43.1242C44.3274 5.625 45.2192 6.88192 44.9526 8.20186L41.2594 26.4831C41.0654 27.4435 40.3065 28.125 39.431 28.125ZM31.875 14.7656H28.125V11.25C28.125 10.4733 27.5654 9.84375 26.875 9.84375H25.625C24.9346 9.84375 24.375 10.4733 24.375 11.25V14.7656H20.625C19.9346 14.7656 19.375 15.3952 19.375 16.1719V17.5781C19.375 18.3548 19.9346 18.9844 20.625 18.9844H24.375V22.5C24.375 23.2767 24.9346 23.9062 25.625 23.9062H26.875C27.5654 23.9062 28.125 23.2767 28.125 22.5V18.9844H31.875C32.5654 18.9844 33.125 18.3548 33.125 17.5781V16.1719C33.125 15.3952 32.5654 14.7656 31.875 14.7656Z" fill="#72DAD6"/>
</svg>

