<svg width="28" height="21" viewBox="0 0 28 21" fill="none" xmlns="http://www.w3.org/2000/svg">
<path d="M5.90909 4.52941L28 4.52941" stroke="#00B0B2"/>
<line x1="9.59091" y1="15.7941" x2="25.5455" y2="15.7941" stroke="#00B0B2"/>
<line y1="-0.5" x2="18.4091" y2="-0.5" transform="matrix(0.999999 0.00153916 -0.00167495 0.999999 7.13642 9.20129)" stroke="#00B0B2"/>
<line y1="-0.5" x2="17.1644" y2="-0.5" transform="matrix(0.324722 0.945809 -0.953664 0.300873 4.68182 3.35294)" stroke="#00B0B2"/>
<path d="M24.2602 15.9547L26.7727 4.52941" stroke="#00B0B2"/>
<path d="M1 1.33331L5.86513 1.33331" stroke="#00B0B2"/>
<line x1="5.40909" y1="3.35294" x2="5.40909" y2="1" stroke="#00B0B2"/>
<line y1="-0.5" x2="11.0451" y2="-0.5" transform="matrix(0.99996 -0.00893029 0.00971812 0.999953 10.819 19.9222)" stroke="#00B0B2"/>
<ellipse cx="11.4318" cy="19.2353" rx="1.84091" ry="1.76471" fill="#00B0B2"/>
<ellipse cx="21.25" cy="19.2353" rx="1.84091" ry="1.76471" fill="#00B0B2"/>
<line x1="10.0909" y1="4.52941" x2="10.0909" y2="15.1176" stroke="#00B0B2"/>
<line x1="21.1364" y1="4.52941" x2="21.1364" y2="15.1176" stroke="#00B0B2"/>
<line x1="17.4545" y1="4.52941" x2="17.4545" y2="15.1176" stroke="#00B0B2"/>
<path d="M13.9783 4.49756L13.8815 10.1038L13.7944 15.1495" stroke="#00B0B2"/>
</svg>
