<svg width="30" height="25" viewBox="0 0 30 25" fill="none" xmlns="http://www.w3.org/2000/svg">
<path d="M25 21.4286V22.3214C25 23.8008 23.8807 25 22.5 25H2.5C1.11927 25 0 23.8008 0 22.3214V8.03571C0 6.55636 1.11927 5.35714 2.5 5.35714H3.33333V16.9643C3.33333 19.4259 5.2025 21.4286 7.5 21.4286H25ZM30 16.9643V2.67857C30 1.19922 28.8807 0 27.5 0H7.5C6.11927 0 5 1.19922 5 2.67857V16.9643C5 18.4436 6.11927 19.6429 7.5 19.6429H27.5C28.8807 19.6429 30 18.4436 30 16.9643ZM13.3333 5.35714C13.3333 6.8365 12.2141 8.03571 10.8333 8.03571C9.4526 8.03571 8.33333 6.8365 8.33333 5.35714C8.33333 3.87779 9.4526 2.67857 10.8333 2.67857C12.2141 2.67857 13.3333 3.87779 13.3333 5.35714ZM8.33333 13.3929L11.2247 10.2949C11.4688 10.0334 11.8645 10.0334 12.1086 10.2949L14.1667 12.5L21.2247 4.93778C21.4688 4.67628 21.8645 4.67628 22.1086 4.93778L26.6667 9.82143V16.0714H8.33333V13.3929Z" fill="white"/>
</svg>
