<svg width="23" height="22" viewBox="0 0 23 22" fill="none" xmlns="http://www.w3.org/2000/svg">
<path d="M20.5873 21.9596H2.71234C1.57324 21.9596 0.649841 20.9522 0.649841 19.7096V3.20957C0.649841 1.96692 1.57324 0.959572 2.71234 0.959572H20.5873C21.7264 0.959572 22.6498 1.96692 22.6498 3.20957V19.7096C22.6498 20.9522 21.7264 21.9596 20.5873 21.9596ZM6.14984 5.08457C5.20062 5.08457 4.43109 5.92406 4.43109 6.95957C4.43109 7.99509 5.20062 8.83457 6.14984 8.83457C7.09906 8.83457 7.86859 7.99509 7.86859 6.95957C7.86859 5.92406 7.09906 5.08457 6.14984 5.08457ZM6.14984 9.58457C5.20062 9.58457 4.43109 10.4241 4.43109 11.4596C4.43109 12.4951 5.20062 13.3346 6.14984 13.3346C7.09906 13.3346 7.86859 12.4951 7.86859 11.4596C7.86859 10.4241 7.09906 9.58457 6.14984 9.58457ZM6.14984 14.0846C5.20062 14.0846 4.43109 14.9241 4.43109 15.9596C4.43109 16.9951 5.20062 17.8346 6.14984 17.8346C7.09906 17.8346 7.86859 16.9951 7.86859 15.9596C7.86859 14.9241 7.09906 14.0846 6.14984 14.0846ZM18.5248 7.70957V6.20957C18.5248 5.89893 18.294 5.64707 18.0092 5.64707H9.41547C9.13071 5.64707 8.89984 5.89893 8.89984 6.20957V7.70957C8.89984 8.02021 9.13071 8.27207 9.41547 8.27207H18.0092C18.294 8.27207 18.5248 8.02021 18.5248 7.70957ZM18.5248 12.2096V10.7096C18.5248 10.3989 18.294 10.1471 18.0092 10.1471H9.41547C9.13071 10.1471 8.89984 10.3989 8.89984 10.7096V12.2096C8.89984 12.5202 9.13071 12.7721 9.41547 12.7721H18.0092C18.294 12.7721 18.5248 12.5202 18.5248 12.2096ZM18.5248 16.7096V15.2096C18.5248 14.8989 18.294 14.6471 18.0092 14.6471H9.41547C9.13071 14.6471 8.89984 14.8989 8.89984 15.2096V16.7096C8.89984 17.0202 9.13071 17.2721 9.41547 17.2721H18.0092C18.294 17.2721 18.5248 17.0202 18.5248 16.7096Z" fill="white"/>
</svg>
