<svg width="21" height="20" viewBox="0 0 21 20" fill="none" xmlns="http://www.w3.org/2000/svg">
<path d="M0 4.40359C0 1.90359 2 -0.0964067 4.5 0.00359333H9.5C12 0.00359333 14 2.00359 14 4.40359V15.5036C14 18.0036 12 20.0036 9.5 19.9036H4.5C2 19.9036 0 17.9036 0 15.5036V4.40359Z" fill="#AFAFAF"/>
<path d="M19.7999 9.50366L16.9999 6.60366C16.6999 6.30366 16.2999 6.30366 15.9999 6.60366C15.6999 6.90366 15.6999 7.40364 15.9999 7.70364L17.5999 9.30364H7.69989C7.29989 9.30364 6.8999 9.60366 6.8999 10.1037C6.8999 10.5037 7.19989 10.9036 7.69989 10.9036H17.5999L15.9999 12.5037C15.6999 12.8037 15.6999 13.3037 15.9999 13.6037C16.2999 13.9037 16.6999 13.9037 16.9999 13.6037L19.7999 10.7036C20.0999 10.2036 20.0999 9.80366 19.7999 9.50366Z" fill="#DBDBDB"/>
</svg>
