<svg width="25" height="26" viewBox="0 0 25 26" fill="none" xmlns="http://www.w3.org/2000/svg">
<path d="M18.3 24.1C17.9 24.1 17.6 24 17.2 23.9C16.9 23.8 16.6 23.7 16.2 23.6C15.8 23.5 15.6 23.6 15.3 23.9C15 24.3 14.6 24.7 14.3 25.1C13.3 26.3 11.6 26.3 10.6 25.1C10.3 24.7 10 24.3 9.7 24C9.4 23.6 9.1 23.5 8.6 23.6C8 23.8 7.4 23.9 6.9 24C5.7 24.2 4.4 23.2 4.2 22C4.1 21.4 4.1 20.8 4.1 20.2C4.1 19.8 3.9 19.5 3.5 19.4C3 19.2 2.6 19.1 2.2 18.9C0.7 18.3 0.0999988 16.7 0.999999 15.3C1.3 14.9 1.5 14.5 1.8 14.1C2.1 13.7 2.1 13.4 1.8 13C1.5 12.6 1.2 12.2 0.999999 11.8C0.299999 10.6 0.6 9.29997 1.7 8.49997C2 8.29997 2.4 8.19997 2.7 7.99997C3 7.89997 3.3 7.79997 3.6 7.69997C4 7.49997 4.2 7.29998 4.2 6.79998C4.2 6.19998 4.2 5.69998 4.3 5.09998C4.5 3.59998 5.8 2.69997 7.2 2.99997C7.7 3.09997 8.3 3.29997 8.8 3.39997C9.2 3.49997 9.5 3.39998 9.7 3.09998C10 2.69998 10.4 2.29998 10.7 1.79998C11.7 0.699976 13.4 0.699976 14.3 1.79998C14.6 2.19998 15 2.59997 15.3 2.99997C15.6 3.29997 15.9 3.49998 16.3 3.29998C16.9 3.09998 17.5 2.99997 18.1 2.89997C19.3 2.69997 20.7 3.69997 20.8 4.89997C20.9 5.49997 20.9 6.09998 20.9 6.59998C20.9 6.99998 21.1 7.29997 21.5 7.39997C21.9 7.59997 22.4 7.69997 22.8 7.89997C24.3 8.49997 24.9 10.1 24 11.5C23.7 11.9 23.5 12.3 23.2 12.7C22.9 13.1 22.9 13.4 23.2 13.8C23.5 14.2 23.8 14.6 24 15C24.7 16.2 24.4 17.5 23.3 18.3C23 18.5 22.6 18.6 22.3 18.8C22 18.9 21.7 19 21.4 19.1C21 19.3 20.8 19.5 20.8 20C20.8 20.6 20.8 21.1 20.7 21.7C20.6 23.2 19.5 24.1 18.3 24.1ZM2.2 16.7C2.2 17.1 2.4 17.3 2.7 17.4C3.2 17.6 3.8 17.8 4.3 18C5.1 18.4 5.6 19 5.7 19.8C5.8 20.4 5.8 21 5.8 21.5C5.8 22.1 6.2 22.4 6.8 22.3C7.3 22.2 7.8 22 8.3 21.9C9.2 21.7 10 21.9 10.7 22.6C11.1 23 11.4 23.5 11.8 24C12.2 24.4 12.6 24.4 13 24C13.3 23.7 13.5 23.3 13.8 23C14.6 22 15.5 21.6 16.7 22C17.1 22.1 17.5 22.2 18 22.3C18.6 22.5 19 22.2 19 21.5C19 21 19 20.6 19.1 20.1C19.2 19 19.7 18.2 20.8 17.8C21.2 17.6 21.7 17.5 22.1 17.3C22.7 17.1 22.8 16.6 22.5 16.1C22.3 15.7 22 15.3 21.8 15C21.2 14 21.2 13.1 21.8 12.1C22.1 11.7 22.3 11.3 22.6 10.9C22.9 10.4 22.8 9.89997 22.2 9.69997C21.7 9.49997 21.2 9.29998 20.7 9.09998C19.9 8.69998 19.4 8.09998 19.3 7.29998C19.2 6.69998 19.2 6.09998 19.2 5.59998C19.2 4.99998 18.8 4.69998 18.2 4.79998C17.7 4.89998 17.3 5.09997 16.8 5.19997C15.8 5.49997 15 5.19997 14.3 4.49997C13.9 4.09997 13.6 3.59997 13.2 3.19997C12.8 2.69997 12.4 2.69997 12 3.19997C11.7 3.49997 11.4 3.89998 11.1 4.29998C10.4 5.19998 9.4 5.59997 8.3 5.19997C7.9 5.09997 7.4 4.99997 7 4.89997C6.4 4.69997 6 4.99997 6 5.69997C6 6.09997 6 6.59997 5.9 6.99997C5.9 8.09997 5.3 8.99997 4.2 9.39997C3.8 9.59997 3.3 9.69997 2.9 9.89997C2.3 10.1 2.1 10.6 2.5 11.2C2.7 11.6 3 11.9 3.2 12.3C3.8 13.3 3.8 14.2 3.2 15.2C3 15.6 2.7 16 2.5 16.3C2.3 16.3 2.2 16.5 2.2 16.7Z" fill="#8bd7a1"/>
<path d="M8.3 18.3999C8 18.3999 7.7 18.1999 7.6 17.8999C7.5 17.5999 7.5 17.2999 7.7 16.9999C8 16.5999 8.4 16.2999 8.8 15.8999C10.9 13.7999 13 11.6999 15.1 9.59994C15.2 9.49994 15.2 9.49993 15.3 9.39993C15.7 9.09993 16.1 9.09993 16.5 9.39993C16.8 9.69993 16.8 10.1999 16.5 10.5999L16.4 10.6999C14 13.0999 11.5 15.5999 9.1 17.9999C8.9 18.2999 8.7 18.3999 8.3 18.3999Z" fill="#8bd7a1"/>
<path d="M10.8 10.8999C10.8 11.7999 10.1 12.5 9.2 12.5C8.3 12.5 7.5 11.7 7.5 10.8C7.5 9.89996 8.3 9.19995 9.2 9.19995C10.1 9.19995 10.8 9.89995 10.8 10.8999Z" fill="#8bd7a1"/>
<path d="M15.1 18.4C14.2 18.4 13.5 17.7 13.5 16.7C13.5 15.8 14.3 15.1 15.2 15.1C16.1 15.1 16.8 15.9 16.9 16.8C16.8 17.7 16 18.4 15.1 18.4Z" fill="#8bd7a1"/>
</svg>
