<svg width="24" height="23" viewBox="0 0 24 23" fill="none" xmlns="http://www.w3.org/2000/svg">
<path d="M23.2422 10.0704C23.9035 9.48954 23.546 8.39941 22.6692 8.32289L16.2547 7.76304C15.8847 7.73075 15.5631 7.49607 15.4194 7.15357L12.9229 1.2006C12.5799 0.382686 11.4209 0.383 11.0783 1.2011L8.58078 7.16538C8.43707 7.5086 8.11467 7.74363 7.74394 7.77547L1.33853 8.32551C0.460524 8.4009 0.102206 9.49275 0.764804 10.0737L5.64858 14.3559C5.92536 14.5986 6.04643 14.9737 5.96375 15.3324L4.50029 21.6819C4.30133 22.5451 5.24009 23.2217 5.99606 22.7599L11.4787 19.4106C11.7987 19.2151 12.2013 19.2151 12.5213 19.4106L18.0077 22.7622C18.7631 23.2236 19.7015 22.5484 19.5038 21.6855L18.0481 15.3311C17.9661 14.9731 18.087 14.5989 18.3629 14.3565L23.2422 10.0704Z" fill="#FCB441"/>
</svg>
