<svg width="15" height="15" viewBox="0 0 15 15" fill="none" xmlns="http://www.w3.org/2000/svg">
<circle cx="7.5" cy="7.5" r="7" fill="white" stroke="#10CC00"/>
<path d="M6.54812 9.73599L6.54619 9.73405L6.5462 9.73404L6.54399 9.73188L4.71328 7.94583L4.71244 7.94498L4.71438 7.94305L5.14076 7.51667L5.16503 7.54094L6.37135 8.74726L6.54693 8.92283L6.72369 8.74845L10.0299 5.48694L10.0299 5.48694L10.0311 5.48574L10.033 5.4838L10.035 5.48574L10.4167 5.86744L10.3924 5.89172L6.54812 9.73599Z" fill="#10CC00" stroke="white" stroke-width="0.5"/>
<path d="M6.23514 10.0894L6.54788 10.4022L6.86063 10.0894L10.7476 6.20241L11.0604 5.88966L10.703 5.53224L10.2562 5.08545L9.94344 4.77271L9.63069 5.08545L6.50321 8.21294L5.4756 7.18533L5.16286 6.87259L4.85011 7.18533L4.40332 7.63212L4.09058 7.94487L4.40332 8.25761L6.23514 10.0894Z" fill="#10CC00"/>
</svg>
